<?xml version="1.0" encoding="UTF-8"?>
<!DOCTYPE svg PUBLIC "-//W3C//DTD SVG 1.1//EN" "http://www.w3.org/Graphics/SVG/1.1/DTD/svg11.dtd">
<!-- Creator: CorelDRAW X7 -->
<svg xmlns="http://www.w3.org/2000/svg" xml:space="preserve" width="190.324mm" height="135.988mm" version="1.1" style="shape-rendering:geometricPrecision; text-rendering:geometricPrecision; image-rendering:optimizeQuality; fill-rule:evenodd; clip-rule:evenodd"
viewBox="0 0 19518 13946"
 xmlns:xlink="http://www.w3.org/1999/xlink">
 <defs>
  <style type="text/css">
   <![CDATA[
    .str9 {stroke:#F2F2F2;stroke-width:51.2762}
    .str5 {stroke:#B1B9B3;stroke-width:35.8831}
    .str4 {stroke:#B1B9B3;stroke-width:35.8933}
    .str0 {stroke:#9DA574;stroke-width:12.296}
    .str6 {stroke:#D3D3D4;stroke-width:20.5105}
    .str3 {stroke:#D4D9D6;stroke-width:15.3829}
    .str2 {stroke:#99A99C;stroke-width:15.3829}
    .str1 {stroke:#99A99C;stroke-width:15.3829;stroke-linejoin:round}
    .str10 {stroke:#533F16;stroke-width:51.2762;stroke-dasharray:256.380956 153.828573 51.276191 51.276191 51.276191 153.828573}
    .str8 {stroke:#8B8B8C;stroke-width:15.3829;stroke-dasharray:46.148572 30.765715}
    .str7 {stroke:#8B8B8C;stroke-width:15.3829;stroke-linejoin:round;stroke-dasharray:46.148572 30.765715}
    .fil0 {fill:none}
    .fil10 {fill:none;fill-rule:nonzero}
    .fil1 {fill:#F2F2F2}
    .fil4 {fill:#FFFCDB}
    .fil6 {fill:#FBEED4}
    .fil3 {fill:#F0F6E3}
    .fil8 {fill:#CBD4CD}
    .fil5 {fill:#E2EDBB}
    .fil2 {fill:#BEDFC3}
    .fil7 {fill:#95C99F}
    .fil9 {fill:#FEFEFE;fill-opacity:0.749020}
   ]]>
  </style>
    <clipPath id="id0">
     <path d="M5945 1247l187 84c0,0 33,5 47,2 14,-3 38,12 50,28 13,17 21,21 21,21l37 -32c0,0 23,5 47,8 25,2 104,5 119,8 15,3 170,38 224,62 53,23 234,123 331,184 187,118 375,240 558,364 69,47 192,125 321,211 215,143 446,300 461,312 25,18 776,555 797,563 21,9 231,165 246,176 15,11 138,68 161,80 23,12 373,232 431,285 62,55 215,142 296,227 80,84 234,203 249,221 14,18 13,28 0,34 -1,0 -2,1 -2,1 -134,-47 -279,-122 -342,-170 -111,-85 -123,-33 -123,-33l-59 102 -147 -51 -13 -51c0,0 -4,-17 -182,-51 -178,-35 -469,-273 -501,-308 -32,-35 -91,-110 -143,-111 -52,-1 -208,-127 -208,-119 0,8 -14,-60 -14,-60l-202 -34c0,0 0,-77 -45,-86 -44,-8 -269,-50 -269,-50l-300 -239c0,0 -505,-55 -534,-91 -78,-92 -186,39 -456,-129 -94,-59 -128,-84 -284,-140 -117,-43 -146,-80 -197,-138 -65,-73 -124,-162 -200,-273 -56,-82 -75,-140 -90,-177 -21,-51 -22,-65 21,-78 104,-30 45,-67 25,-119 -25,-64 -31,-187 -112,-153 -65,27 -106,-121 -157,-192 -30,-42 -49,-88 -49,-88z"/>
    </clipPath>
    <clipPath id="id1">
     <path d="M5945 1247l187 84c0,0 33,5 47,2 14,-3 38,12 50,28 13,17 21,21 21,21l37 -32c0,0 23,5 47,8 25,2 104,5 119,8 15,3 170,38 224,62 53,23 234,123 331,184 187,118 375,240 558,364 69,47 192,125 321,211 215,143 446,300 461,312 25,18 776,555 797,563 21,9 231,165 246,176 15,11 138,68 161,80 23,12 373,232 431,285 62,55 215,142 296,227 80,84 234,203 249,221 14,18 13,28 0,34 -1,0 -2,1 -2,1 -134,-47 -279,-122 -342,-170 -111,-85 -123,-33 -123,-33l-59 102 -147 -51 -13 -51c0,0 -4,-17 -182,-51 -178,-35 -469,-273 -501,-308 -32,-35 -91,-110 -143,-111 -52,-1 -208,-127 -208,-119 0,8 -14,-60 -14,-60l-202 -34c0,0 0,-77 -45,-86 -44,-8 -269,-50 -269,-50l-300 -239c0,0 -505,-55 -534,-91 -78,-92 -186,39 -456,-129 -94,-59 -128,-84 -284,-140 -117,-43 -146,-80 -197,-138 -65,-73 -124,-162 -200,-273 -56,-82 -75,-140 -90,-177 -21,-51 -22,-65 21,-78 104,-30 45,-67 25,-119 -25,-64 -31,-187 -112,-153 -65,27 -106,-121 -157,-192 -30,-42 -49,-88 -49,-88z"/>
    </clipPath>
 </defs>
 <g id="图层_x0020_1">
  <metadata id="CorelCorpID_0Corel-Layer"/>
  <g id="崇明面_x0020_副本">
   <path class="fil0" d="M11912 10122c-92,-68 -911,-529 -1262,-699 -231,-112 -305,-157 -396,-205 -30,-16 -81,-39 -134,-63 -29,-14 -63,-27 -92,-37 -207,-67 -267,-55 -402,-58 -112,-3 -402,-13 -597,-34 -10,-1 -3,12 -12,14 -12,3 -35,-4 -47,-6 -8,-1 -2,-5 -5,-9 1,9 1,19 -1,30 -6,39 -18,88 -18,91 0,3 61,13 141,20 60,5 157,9 223,103 23,33 50,78 60,136 33,188 69,206 144,307 19,26 39,46 53,68 42,63 55,112 69,141 69,24 180,65 217,100 20,7 56,4 99,13 6,1 10,5 17,6 45,12 117,28 168,39 23,6 40,16 53,13 25,-4 110,7 168,25 22,7 46,19 58,25 6,3 13,6 14,8 14,17 124,41 140,61 34,39 32,30 90,39 46,6 104,40 173,70 68,30 106,61 134,58 28,-4 27,0 54,10 28,9 87,28 106,34 18,6 19,11 34,0 15,-10 29,-4 61,-3 32,1 132,38 189,55 58,16 42,13 49,31 7,18 13,11 77,33 64,21 64,19 89,39 25,21 51,27 100,46 49,19 314,130 370,143 55,13 52,11 90,26 38,14 46,21 63,21 17,0 53,22 66,32 13,10 112,60 133,68 0,0 42,-120 77,-229 35,-110 19,-86 -139,-205 -158,-119 -383,-289 -474,-357z"/>
   <path class="fil1" d="M13887 12863c0,0 0,1 0,0 0,0 0,0 0,0zm-4960 -3842c-151,-17 -243,-43 -364,-43 -122,0 -296,-25 -317,69 -28,124 102,219 311,324 209,104 160,58 261,148 101,90 199,147 268,238 68,91 211,278 315,347 103,69 153,108 153,131 0,23 26,-6 45,51 9,27 51,13 86,16 40,3 73,23 84,28 26,13 -15,41 73,25 20,-3 36,-5 57,-5l102 106c0,0 58,16 103,13 45,-3 27,-1 27,-1l4 35 44 1 30 -68c0,0 14,0 14,5 0,4 -6,21 -6,21l11 0c0,0 -44,44 -28,68 17,24 32,22 56,11 23,-11 -2,13 55,18 58,6 88,39 88,39 0,0 6,52 54,75 48,24 96,68 102,73 6,6 -30,9 2,34 32,24 107,105 131,81 25,-24 55,43 97,71 41,29 -24,17 31,47 55,29 166,101 238,159 73,57 143,90 202,116 59,26 245,146 300,180 56,34 151,112 165,129 14,17 29,-89 29,-89l16 4c0,0 -36,67 -1,102 35,35 37,58 76,58 39,0 2,12 37,22 34,10 48,19 42,33 -7,14 53,30 100,55 47,24 173,89 183,95 11,6 20,14 33,7 13,-7 34,14 37,27 3,14 209,144 238,158 29,14 -3,11 29,35 33,25 44,44 66,37 22,-7 153,124 186,155 33,32 -7,16 52,76 59,59 106,103 106,103l-19 16 22 18c0,0 20,-11 20,-14 0,-3 51,63 61,81 10,18 39,27 56,1 15,-22 51,-56 41,-9 0,0 -25,52 -25,56 0,3 25,10 3,30 -22,21 5,47 28,87 23,41 32,54 36,79 4,25 22,43 32,29 10,-13 25,16 43,0 17,-16 17,-28 30,-16 12,12 -37,21 -25,42 12,20 -52,3 9,60 60,57 1,16 38,54 37,38 54,77 77,75 22,-2 10,8 68,25 58,17 142,51 201,56 60,4 3,12 144,63 141,51 127,77 162,51 35,-26 -41,-115 -41,-245 0,-122 -21,-121 -24,-117 1,-6 8,-47 0,-115 -10,-76 -1,-187 -23,-197 -21,-9 -18,-26 5,-26 23,0 -19,-84 -12,-169 6,-86 0,-256 0,-256l-67 -1 23 -33c0,0 -74,-128 -89,-161 -15,-34 -22,-96 -40,-107 3,-31 -28,-97 -45,-130 -16,-33 -100,-149 -137,-183 -36,-34 -68,-63 -140,-102 -72,-40 -486,-297 -521,-323 -34,-27 -211,-92 -211,-92 0,0 -30,-20 -41,10 -12,30 -29,55 -29,51 0,-4 -39,5 -17,-56 9,-26 -13,-30 -36,-39 -28,-10 -59,-21 -59,-21 -21,-8 -120,-58 -133,-68 -13,-10 -49,-32 -66,-32 -17,0 -25,-7 -63,-21 -38,-15 -35,-13 -90,-26 -56,-13 -321,-124 -370,-143 -49,-19 -75,-25 -100,-46 -25,-20 -25,-18 -89,-39 -64,-22 -70,-15 -77,-33 -7,-18 9,-15 -49,-31 -57,-17 -157,-54 -189,-55 -32,-1 -46,-7 -61,3 -15,11 -16,6 -34,0 -19,-6 -78,-25 -106,-34 -27,-10 -26,-14 -54,-10 -28,3 -66,-28 -134,-58 -69,-30 -127,-64 -173,-70 -58,-9 -56,0 -90,-39 -16,-20 -126,-44 -140,-61 -1,-2 -8,-5 -14,-8 -12,-6 -36,-18 -58,-25 -58,-18 -143,-29 -168,-25 -13,3 -30,-7 -53,-13 -51,-11 -123,-27 -168,-39 -7,-1 -11,-5 -17,-6 -43,-9 -79,-6 -99,-13 -37,-35 -148,-76 -217,-100 -14,-29 -27,-78 -69,-141 -14,-22 -34,-42 -53,-68 -75,-101 -111,-119 -144,-307 -10,-58 -37,-103 -60,-136 -66,-94 -163,-98 -223,-103 -80,-7 -141,-17 -141,-20 0,-3 12,-52 18,-91 2,-11 2,-21 1,-30 -3,-3 -11,-5 -38,-4z"/>
   <polygon class="fil1" points="10029,9388 9934,9532 10110,9712 10291,9866 10388,9763 10238,9483 "/>
   <path class="fil1" d="M14000 11621c-56,8 -50,-3 -43,52l9 10 40 48 20 88c0,0 94,126 100,143 7,18 12,17 -9,30 -22,13 -22,0 -15,73 6,73 15,152 14,176 -1,23 11,24 37,20 27,-4 -11,16 -29,18 -17,1 1,61 -1,88 -1,27 79,387 90,393 11,5 77,45 77,45 0,0 36,158 36,161 0,3 67,72 67,72 0,0 209,174 215,178l132 82 62 -13 7 19 -38 10c-3,1 -38,59 -39,65 0,5 100,62 122,77 39,27 65,27 89,-4 13,-17 11,-17 30,-3l65 48 9 17 27 18 15 0c0,0 31,45 36,51 5,7 8,21 45,-10 38,-31 189,-149 198,-161 9,-12 10,1 25,-40 15,-41 58,-138 65,-160 8,-22 3,-12 31,-30 29,-19 96,-56 102,-66 12,-21 -14,-4 23,-60 45,-70 119,-228 176,-283 6,-7 13,-21 15,-31 4,-30 20,-86 2,-112 -18,-24 -30,-81 7,-110 15,-12 17,-11 -27,-45 -20,-47 -60,-207 -82,-232 -18,-20 -16,-60 -16,-92l-89 -102 -290 -93 -93 -70c0,0 -294,-144 -307,-150 -13,-7 -28,-1 -44,-2 -16,0 -102,12 -118,12 -15,0 -14,3 -14,13 1,9 -15,6 -17,-6 -3,-12 -37,-19 -60,-29 -23,-11 -18,-2 -41,8 -22,9 -38,17 -38,17 0,0 -81,-124 -84,-124l-418 -50 -37 20c6,46 9,37 -39,26z"/>
   <path class="fil1" d="M15871 9938c0,0 -54,132 -66,166 -12,34 -17,29 -44,31 -27,3 -311,29 -311,29l10 -21 -35 -17 -22 46 -367 35 -325 6 -17 -52 -22 5 -89 -53 -51 0 -342 -162c0,0 -82,-58 -80,-64l20 -46 -347 -235c-52,-35 -40,-20 -14,-104 25,-84 82,-149 82,-149 0,0 -18,-16 -18,-13 0,3 -71,111 -71,111l-34 -11c0,0 -96,136 -96,143 0,8 -262,-168 -262,-168l-58 -9 -212 -120 33 -42c0,0 -20,-10 -20,-13 0,-2 -8,12 -8,12l-17 -1 -202 -51 -61 -25c0,0 -149,-102 -149,-106 0,-4 -17,-31 -17,-31l-288 -180 -14 21c0,0 -201,-101 -213,-120 -12,-19 -7,-18 -59,-27 -51,-8 -257,-96 -273,-108 -15,-12 -15,-11 -20,-7 -5,4 -8,13 -27,-8 -19,-21 -72,-42 -108,-48 -36,-6 -83,-34 -125,-44 -42,-11 -138,-37 -178,-51 -41,-13 -40,-32 -53,-7 -12,24 -15,30 -51,14 -46,-21 40,-61 11,-81 -16,-11 -25,5 -46,35 -18,25 -44,9 -44,37 0,5 -207,-49 -207,-49l11 -19 -49 -33 -65 -15c-1,12 -2,14 -4,28 -8,0 -21,-5 -31,-8 -34,-8 -30,-13 -62,0 -40,17 -109,10 -165,11 -55,1 -45,-12 -79,-33 -34,-21 -29,-24 -63,-7 -51,26 -40,35 -84,-3 -43,-38 -44,-30 -130,-48 -87,-18 -63,-17 -93,-40 -31,-23 -26,22 -78,-10 -29,-18 -59,-26 -34,-57l85 -107 -22 -18c0,0 -66,86 -84,108 -18,22 -71,-6 -95,-28 -24,-22 -92,-52 -97,-57 -5,-5 -24,-34 -69,-23 -45,12 -81,-24 -81,-24l-29 -25 14 -43c0,0 -50,-16 -50,-13 0,4 -8,14 -8,14l26 16 -12 26 -95 -34 -53 -42 -30 -17 3 -24c0,0 13,7 -81,-40 -94,-47 -110,-55 -106,-63 15,-29 -6,-16 -13,-39 -8,-23 -53,-5 -53,-22 0,-17 10,-42 0,-51 -11,-8 -11,-18 -21,6 -9,23 2,20 2,20 0,0 0,5 -10,42 -9,36 -1,38 -46,17 -45,-21 -345,-199 -377,-212 -31,-13 -19,-19 -4,-47 15,-27 19,-43 14,-50 -5,-6 -23,-5 -42,-1 -18,3 -12,4 -32,-8 -21,-13 -142,-91 -142,-91 0,0 -20,-6 -31,-3 -11,4 -40,-15 -49,-28 -8,-12 -13,-4 -34,-7 -21,-4 -17,-36 -7,-62 9,-25 -10,-16 -10,-16l-17 39 -19 -12 -10 -24c0,0 -199,-109 -199,-113 0,-3 11,-20 11,-20l-63 -10 -122 -69 10 -34c0,0 -16,-21 -54,-28 -38,-8 -165,-78 -165,-78l-57 -24c0,0 -31,11 -31,7 0,-3 -30,-36 -50,-56 -12,-12 -14,-19 -13,-22 2,-15 -10,-11 -15,-4 -11,17 1,8 -30,9 -40,1 -59,-21 -59,-21l-66 -18 -15 25 -73 -17c0,0 -416,-207 -432,-218 -16,-11 -20,-35 -20,-35 0,0 -40,-15 -80,-35 -41,-20 -24,5 -40,10 -16,6 -35,-21 -50,-23 -15,-1 -53,-31 -59,-45 -5,-15 -100,-114 -100,-114l-22 12c-17,-19 -35,-38 -53,-57 -48,8 -45,7 -93,-4 -59,-30 -69,-35 -78,-47 -29,-36 -35,-26 -72,-25 -28,-3 -124,-55 -134,-64 -20,-17 -104,-37 -170,-51 -56,-13 -109,-23 -148,-30 -60,-10 -34,-4 -80,-33 -44,-28 -108,-54 -129,-86 -22,-32 -22,-7 -34,-30 -14,-25 1,-35 1,-35l26 -45 -10 -6 -16 17 -31 30 -43 -42 -6 -55 16 -13c-50,-49 -167,-132 -264,-173 -66,-27 -90,-21 -163,-58 -32,-15 -78,-38 -110,-54 -4,-3 -274,-226 -265,-234 10,-9 21,-22 19,-23 -30,-15 -124,-86 -140,-118l-17 21 -33 -28c-61,-46 -137,-100 -199,-148 -49,-38 33,-12 -26,-81 -50,-58 -144,-224 -275,-318 0,0 -116,-164 -139,-192 -19,-22 -44,-75 -28,-104 7,-12 37,-65 37,-65l-67 -50c0,0 -4,-13 -63,63 -78,100 -121,99 -238,80 -66,-12 -588,-237 -588,-237 0,0 -5,-6 -14,-17 -16,-21 -44,-58 -66,-93 -24,-37 -38,-72 -41,-78 -9,-15 -23,-47 -23,-47 0,0 -33,-47 -26,-52 15,-9 42,-25 60,-33 33,-15 70,-27 109,-35 92,-19 187,-23 224,-22 62,2 66,2 66,2 -8,-41 -12,-99 -69,-67l-60 -81 -33 -21 -146 4 -633 -139 -44 -66 9 -106 -27 -3c0,0 -3,24 -3,38 -1,13 -4,33 -15,19 -45,-63 -293,-441 -325,-490l30 4 3 -22 -53 -11 -74 -110c-8,4 -15,8 -23,13 -109,-66 -226,-211 -313,-307 -9,-10 -145,-229 -165,-258 -19,-29 -16,-29 -8,-39 24,-33 41,-78 54,-99 5,-8 46,-51 75,-75 157,-127 299,-277 427,-380 24,-20 85,-66 91,-74 6,-7 114,-84 114,-84l-11 -21 275 -213c0,0 9,-32 26,-45 26,-21 119,-86 148,-95l20 59 23 -19c0,0 -2,-25 -2,-40 0,-15 -10,-27 33,-50l765 -413c111,-61 261,-111 380,-164 63,-27 131,-41 197,-61 76,9 152,19 228,28l402 216 58 115c0,0 18,11 38,14 20,4 24,14 20,35 -9,47 -5,43 6,46 47,13 11,-90 17,-131 2,-9 86,24 109,29 6,1 255,171 297,200 42,29 117,71 143,76 27,5 70,46 111,85 40,38 44,40 44,40l-9 51 23 5 9 -24c130,80 163,99 277,187 32,-27 30,-17 73,-4 31,13 61,21 86,43l21 -18 37 8 241 108c0,0 33,5 47,2 14,-3 38,12 50,28 13,17 21,21 21,21l37 -32c0,0 22,5 47,8 25,2 104,5 119,8 15,3 170,38 224,62 53,23 234,123 331,184 187,117 375,240 558,364 68,47 192,125 321,211 215,143 445,300 461,312 24,17 775,555 796,563 21,9 232,164 247,176 14,11 138,68 161,80 23,12 373,232 430,284 62,56 216,143 296,227 81,85 234,203 249,221 15,18 13,29 0,34 -13,6 6,34 6,34 0,0 43,-10 81,18 38,29 489,353 505,375 16,21 73,102 62,136 -4,13 18,19 34,35 28,28 61,68 87,94 15,15 287,151 317,161 67,22 343,90 385,102 42,12 43,10 21,48 -22,38 -287,497 -294,532 -7,35 41,29 41,29 0,0 60,-91 65,-97 4,-6 3,-12 26,-1 193,96 655,243 847,281 35,7 67,18 67,18l108 51 441 68 491 232c0,0 11,4 -2,26 -9,14 25,19 35,1 65,-108 48,-178 214,-164l658 58c137,12 241,3 179,140l-132 296 33 13 13 -29 60 7 2 -41 -21 -12 141 -354c22,-57 28,-96 98,-93 49,3 110,5 133,6 126,5 340,69 464,117 90,34 181,89 252,155 59,55 129,129 128,157 -1,47 -11,30 -11,30 75,67 150,133 225,199 25,28 18,27 18,65l35 -8c11,-3 17,-8 28,9 106,160 206,199 348,319 101,85 193,163 209,177 40,33 403,358 403,358l245 273 132 204 107 275c23,62 27,94 26,137 -2,66 -8,166 -11,222 -3,65 11,83 -77,54 -88,-29 -554,-168 -554,-168l-114 298 -176 358c0,0 -252,229 -324,290 -31,26 -24,22 2,40 23,16 52,38 57,40 9,4 16,10 -3,22l-239 155 -253 121 -274 -15z"/>
  </g>
  <g id="_1417821232">
   <polygon class="fil2" points="10029,9388 9934,9532 10110,9712 10291,9866 10388,9763 10238,9483 "/>
   <path class="fil2" d="M14000 11621c-56,8 -50,-3 -43,52l9 10 40 48 20 88c0,0 94,126 100,143 7,18 12,17 -9,30 -22,13 -22,0 -15,73 6,73 15,152 14,176 -1,23 11,24 37,20 27,-4 -11,16 -29,18 -17,1 1,61 -1,88 -1,27 79,387 90,393 11,5 77,45 77,45 0,0 36,158 36,161 0,3 67,72 67,72 0,0 209,174 215,178l132 82 62 -13 7 19 -38 10c-3,1 -38,59 -39,65 0,5 100,62 122,77 39,27 65,27 89,-4 13,-17 11,-17 30,-3l65 48 9 17 27 18 15 0c0,0 31,45 36,51 5,7 8,21 45,-10 38,-31 189,-149 198,-161 9,-12 10,1 25,-40 15,-41 58,-138 65,-160 8,-22 3,-12 31,-30 29,-19 96,-56 102,-66 12,-21 -14,-4 23,-60 45,-70 119,-228 176,-283 6,-7 13,-21 15,-31 4,-30 20,-86 2,-112 -18,-24 -30,-81 7,-110 15,-12 17,-11 -27,-45 -20,-47 -60,-207 -82,-232 -18,-20 -16,-60 -16,-92l-89 -102 -290 -93 -93 -70c0,0 -294,-144 -307,-150 -13,-7 -28,-1 -44,-2 -16,0 -102,12 -118,12 -15,0 -14,3 -14,13 1,9 -15,6 -17,-6 -3,-12 -37,-19 -60,-29 -23,-11 -18,-2 -41,8 -22,9 -37,17 -37,17 0,0 -82,-124 -85,-124l-418 -50 -37 20c6,46 9,37 -39,26z"/>
   <path class="fil3" d="M15871 9938c0,0 -54,132 -66,166 -12,34 -17,29 -44,31 -27,3 -311,29 -311,29l10 -21 -35 -17 -22 46 -367 35 -325 6 -17 -52 -22 5 -89 -53 -51 0 -342 -162c0,0 -82,-58 -80,-64l20 -46 -347 -235c-52,-35 -40,-20 -14,-104 25,-84 82,-149 82,-149 0,0 -18,-16 -18,-13 0,3 -71,111 -71,111l-34 -11c0,0 -96,136 -96,143 0,8 -262,-168 -262,-168l-58 -9 -212 -120 33 -42c0,0 -20,-10 -20,-13 0,-2 -8,12 -8,12l-17 -1 -202 -51 -61 -25c0,0 -149,-102 -149,-106 0,-4 -17,-31 -17,-31l-288 -180 -14 21c0,0 -201,-101 -213,-120 -12,-19 -7,-18 -59,-27 -51,-8 -257,-96 -273,-108 -15,-12 -15,-11 -20,-7 -5,4 -8,13 -27,-8 -19,-21 -72,-42 -108,-48 -36,-6 -83,-34 -125,-44 -42,-11 -138,-37 -178,-51 -41,-13 -40,-32 -53,-7 -12,24 -15,30 -51,14 -46,-21 40,-61 11,-81 -16,-11 -25,5 -46,35 -18,25 -44,9 -44,37 0,5 -207,-49 -207,-49l11 -19 -49 -33 -65 -15c-1,12 -2,14 -4,28 -8,0 -21,-5 -31,-8 -34,-8 -30,-13 -62,0 -40,17 -109,10 -165,11 -55,1 -45,-12 -79,-33 -34,-21 -29,-24 -63,-7 -51,26 -40,35 -84,-3 -43,-38 -44,-30 -130,-48 -87,-18 -63,-17 -93,-40 -31,-23 -26,22 -78,-10 -29,-18 -59,-26 -34,-57l85 -107 -22 -18c0,0 -66,86 -84,108 -18,22 -71,-6 -95,-28 -24,-22 -92,-52 -97,-57 -5,-5 -24,-34 -69,-23 -45,12 -81,-24 -81,-24l-29 -25 14 -43c0,0 -50,-16 -50,-13 0,4 -8,14 -8,14l26 16 -12 26 -95 -34 -53 -42 -30 -17 3 -24c0,0 13,7 -81,-40 -94,-47 -110,-55 -106,-63 15,-29 -6,-16 -13,-39 -8,-23 -53,-5 -53,-22 0,-17 10,-42 0,-51 -11,-8 -11,-18 -21,6 -9,23 2,20 2,20 0,0 0,5 -10,42 -9,36 -1,38 -46,17 -45,-21 -345,-199 -377,-212 -31,-13 -19,-19 -4,-47 15,-27 19,-43 14,-50 -5,-6 -23,-5 -42,-1 -18,3 -12,4 -32,-8 -21,-13 -142,-91 -142,-91 0,0 -20,-6 -31,-3 -11,4 -40,-15 -49,-28 -8,-12 -13,-4 -34,-7 -21,-4 -17,-36 -7,-62 9,-25 -10,-16 -10,-16l-17 39 -19 -12 -10 -24c0,0 -199,-109 -199,-113 0,-3 11,-20 11,-20l-63 -10 -122 -69 10 -34c0,0 -16,-21 -54,-28 -38,-8 -165,-78 -165,-78l-57 -24c0,0 -31,11 -31,7 0,-3 -30,-36 -50,-56 -12,-12 -14,-19 -13,-22 2,-15 -10,-11 -15,-4 -11,17 1,8 -30,9 -40,1 -59,-21 -59,-21l-66 -18 -15 25 -73 -17c0,0 -416,-207 -432,-218 -16,-11 -20,-35 -20,-35 0,0 -40,-15 -80,-35 -41,-20 -24,5 -40,10 -16,6 -35,-21 -50,-23 -15,-1 -53,-31 -59,-45 -5,-15 -100,-114 -100,-114l-22 12c-17,-19 -35,-38 -53,-57 -48,8 -45,7 -93,-4 -59,-30 -69,-35 -78,-47 -29,-36 -35,-26 -72,-25 -28,-3 -124,-55 -134,-64 -20,-17 -104,-37 -170,-51 -56,-13 -109,-23 -148,-30 -60,-10 -34,-4 -80,-33 -44,-28 -108,-54 -129,-86 -22,-32 -22,-7 -34,-30 -14,-25 1,-35 1,-35l26 -45 -10 -6 -16 17 -31 30 -43 -42 -6 -55 16 -13c-51,-49 -167,-132 -264,-173 -66,-27 -90,-21 -163,-58 -32,-15 -78,-38 -110,-54 -4,-3 -274,-226 -265,-234 10,-9 21,-22 19,-23 -30,-15 -124,-86 -140,-118l-17 21 -33 -28c-61,-46 -137,-100 -199,-148 -49,-38 33,-12 -26,-81 -50,-58 -144,-224 -275,-318 0,0 -116,-164 -139,-192 -19,-22 -44,-75 -28,-104 7,-12 37,-65 37,-65l-67 -50c0,0 -4,-13 -63,63 -78,100 -121,99 -238,80 -66,-12 -588,-237 -588,-237 0,0 -5,-6 -14,-17 -16,-21 -44,-58 -66,-93 -24,-37 -38,-72 -41,-78 -9,-15 -23,-47 -23,-47 0,0 -33,-47 -26,-52 15,-9 42,-25 60,-33 33,-15 70,-27 109,-35 92,-19 187,-23 224,-22 62,2 66,2 66,2 -8,-41 -12,-99 -69,-67l-60 -81 -33 -21 -146 4 -633 -139 -44 -66 9 -106 -27 -3c0,0 -3,24 -3,38 -1,13 -4,33 -15,18 -45,-62 -293,-440 -325,-489l30 4 3 -22 -53 -11 -74 -110c-8,4 -15,8 -23,13 -109,-66 -226,-211 -313,-307 -9,-10 -145,-229 -165,-258 -19,-29 -16,-29 -8,-39 24,-33 41,-78 54,-99 5,-8 46,-51 75,-75 157,-127 299,-277 427,-380 24,-20 85,-66 91,-74 6,-7 114,-84 114,-84l-11 -21 275 -213c0,0 9,-32 26,-46 26,-20 119,-85 148,-94l20 59 23 -19c0,0 -2,-25 -2,-40 0,-15 -10,-27 33,-50l765 -413c111,-61 261,-111 380,-164 63,-27 131,-41 197,-61 76,9 152,19 228,28l402 216 58 115c0,0 18,11 38,14 20,4 24,14 20,35 -9,47 -5,43 6,46 46,13 11,-90 17,-131 2,-9 86,23 109,29 6,1 255,171 297,200 42,29 117,71 143,76 27,5 70,46 111,85 40,38 44,40 44,40l-9 50 23 6 9 -24c130,80 163,99 277,187 32,-27 30,-17 73,-4 31,13 61,21 86,43l21 -18 37 8 241 107c0,0 33,6 47,3 14,-3 38,12 50,28 13,17 21,21 21,21l37 -32c0,0 22,5 47,7 25,3 104,6 119,9 15,3 170,38 224,62 53,23 234,123 331,184 187,117 375,240 558,364 68,47 192,125 321,211 215,143 445,300 461,312 24,17 775,554 796,563 21,9 232,164 247,176 14,11 138,68 161,80 23,12 373,232 430,284 62,56 216,143 296,227 81,85 234,203 249,221 15,18 13,29 0,34 -13,6 6,34 6,34 0,0 43,-10 81,18 38,29 489,353 505,375 16,21 73,102 62,136 -4,13 18,19 34,35 28,28 61,68 87,94 15,15 287,151 317,161 67,22 343,90 385,102 42,12 43,10 21,48 -22,38 -287,497 -294,532 -7,35 41,29 41,29 0,0 60,-91 65,-97 4,-6 3,-12 26,-1 193,96 655,243 847,281 35,7 67,18 67,18l108 51 441 68 491 232c0,0 11,4 -2,26 -9,14 25,19 35,1 65,-108 48,-178 214,-164l658 58c137,12 241,3 179,140l-132 296 33 13 13 -29 60 7 2 -41 -21 -12 141 -354c22,-57 28,-96 98,-93 49,3 110,5 133,6 126,5 340,69 464,117 90,34 181,89 252,155 59,55 129,129 128,157 -1,47 -11,30 -11,30 75,67 150,133 225,199 25,28 18,27 18,65l35 -8c11,-3 17,-8 28,9 106,160 206,199 348,319 101,85 193,163 209,177 40,33 403,358 403,358l245 273 132 204 107 275c23,62 27,94 26,137 -2,66 -8,166 -11,222 -3,65 11,83 -77,54 -88,-29 -554,-168 -554,-168l-114 298 -176 358c0,0 -252,229 -324,290 -31,26 -24,22 2,40 23,16 52,38 57,40 9,4 16,10 -3,22l-239 155 -253 121 -274 -15z"/>
   <path class="fil2" d="M13887 12863c0,0 0,1 0,0 0,0 0,0 0,0zm-4960 -3842c-151,-17 -243,-43 -364,-43 -122,0 -296,-25 -317,69 -28,124 102,219 311,324 209,104 160,58 261,148 101,90 199,147 268,238 68,91 211,278 315,347 103,69 153,108 153,131 0,23 26,-6 45,51 9,27 51,13 86,16 40,3 73,23 84,28 26,13 -15,41 73,25 20,-3 36,-5 57,-5l102 106c0,0 58,16 103,13 45,-3 27,-1 27,-1l4 35 44 1 30 -68c0,0 14,0 14,5 0,4 -6,21 -6,21l11 0c0,0 -44,44 -28,68 17,24 32,22 56,11 23,-11 -2,13 55,18 58,6 88,39 88,39 0,0 6,52 54,75 48,24 96,68 102,73 6,6 -30,9 2,34 32,24 107,105 131,81 25,-24 55,43 97,71 41,29 -24,17 31,47 55,29 166,101 238,159 73,57 143,90 202,116 59,26 245,146 300,180 56,34 151,112 165,129 14,17 29,-89 29,-89l16 4c0,0 -36,67 -1,102 35,35 37,58 76,58 39,0 2,12 37,22 34,10 48,19 42,33 -7,14 53,30 100,55 47,24 173,89 183,95 11,6 20,14 33,7 13,-7 34,14 37,27 3,14 209,144 238,158 29,14 -3,11 29,35 33,25 44,44 66,37 22,-7 153,124 186,155 33,32 -7,16 52,76 59,59 106,103 106,103l-19 16 22 18c0,0 20,-11 20,-14 0,-3 51,63 61,81 10,18 39,27 56,1 15,-22 51,-56 41,-9 0,0 -25,52 -25,56 0,3 25,10 3,30 -22,21 5,47 28,87 23,41 32,54 36,79 4,25 22,43 32,29 10,-13 25,16 43,0 17,-16 17,-28 30,-16 12,12 -37,21 -25,42 12,20 -52,3 9,60 60,57 1,16 38,54 37,38 54,77 77,75 22,-2 10,8 68,25 58,17 142,51 201,56 60,4 3,12 144,63 141,51 127,77 162,51 35,-26 -41,-115 -41,-245 0,-122 -21,-121 -24,-117 1,-6 8,-47 0,-115 -10,-76 -1,-187 -23,-197 -21,-9 -18,-26 5,-26 23,0 -19,-84 -12,-169 6,-86 0,-256 0,-256l-67 -1 23 -33c0,0 -74,-128 -89,-161 -15,-34 -22,-96 -40,-107 3,-31 -28,-97 -45,-130 -16,-33 -100,-149 -137,-183 -36,-34 -68,-63 -140,-102 -72,-40 -486,-297 -521,-323 -34,-27 -211,-92 -211,-92 0,0 -30,-20 -41,10 -12,30 -29,55 -29,51 0,-4 -39,5 -17,-56 9,-26 -13,-30 -36,-39 -28,-10 -59,-21 -59,-21 -21,-8 -120,-58 -133,-68 -13,-10 -49,-32 -66,-32 -17,0 -25,-7 -63,-21 -38,-15 -35,-13 -90,-26 -56,-13 -321,-124 -370,-143 -49,-19 -75,-25 -100,-46 -25,-20 -25,-18 -89,-39 -64,-22 -70,-15 -77,-33 -7,-18 9,-15 -49,-31 -57,-17 -157,-54 -189,-55 -32,-1 -46,-7 -61,3 -15,11 -16,6 -34,0 -19,-6 -78,-25 -106,-34 -27,-10 -26,-14 -54,-10 -28,3 -66,-28 -134,-58 -69,-30 -127,-64 -173,-70 -58,-9 -56,0 -90,-39 -16,-20 -126,-44 -140,-61 -1,-2 -8,-5 -14,-8 -11,-6 -36,-18 -58,-25 -58,-18 -143,-29 -168,-25 -13,3 -30,-7 -53,-13 -51,-11 -123,-27 -168,-39 -7,-1 -11,-5 -17,-6 -43,-9 -79,-6 -99,-13 -37,-35 -148,-76 -217,-100 -14,-29 -27,-78 -69,-141 -14,-22 -34,-42 -53,-68 -75,-101 -111,-119 -144,-307 -10,-58 -37,-103 -60,-136 -66,-94 -163,-98 -223,-103 -80,-7 -141,-17 -141,-20 0,-3 12,-52 18,-91 2,-11 2,-21 1,-30 -3,-3 -11,-5 -38,-4z"/>
   <g>
    <path class="fil4 str0" d="M6158 1911c15,-2 190,-38 221,121 31,160 170,336 186,377 15,41 144,258 299,325 155,67 129,195 129,195 0,0 -47,62 -119,21 -72,-41 -139,-46 -191,-41 -51,5 -128,0 -128,-31 0,-31 -21,-62 -114,-52 -93,11 -113,-56 -118,-108 -6,-51 -36,-129 -88,-118 -52,10 -62,61 -57,113 5,52 52,144 52,144 0,0 46,140 26,201 -21,62 -78,103 -78,103 0,0 -103,93 -98,-82 5,-175 -5,-387 -5,-387 0,0 -21,-165 62,-247 82,-83 93,-150 93,-150 0,0 46,-67 -88,-51 -134,15 -139,-62 -118,-98 20,-36 82,-83 82,-150 0,-67 0,-82 52,-85z"/>
    <path class="fil4 str0" d="M3490 560c161,-15 352,-33 408,-38 123,72 239,180 239,180 0,0 67,186 20,243 -46,56 -108,134 -108,134 0,0 -93,103 -165,5 -72,-98 -173,-328 -271,-343 -98,-16 -141,-34 -141,-34 0,0 -68,-33 -68,-87 4,-5 38,-31 86,-60z"/>
    <path class="fil4 str0" d="M4233 538c48,8 101,18 159,33 56,13 105,25 148,35 129,199 257,143 257,143l105 -28c1,1 3,2 4,3 30,20 113,40 217,80 21,12 42,24 60,32l0 0c8,44 6,57 72,147 67,90 6,105 -10,147 -15,41 -110,72 -110,72 0,0 -62,-6 -90,79 -29,85 -168,13 -178,-18 -10,-31 -126,-43 -128,29 -3,72 -114,33 -114,33l-131 5c0,0 -77,75 -154,-2 -77,-78 -175,-29 -175,-29 0,0 -51,26 -98,21 -46,-5 -64,-21 -61,-90 2,-70 136,-46 136,-46 0,0 64,5 80,-34 15,-38 128,-64 128,-64 0,0 82,24 26,-131 -56,-156 -128,-226 -149,-409l6 -8z"/>
    <path class="fil4 str0" d="M7780 3041c31,34 52,60 54,63 4,4 88,96 107,107 19,12 180,157 180,157l35 -73 65 0 230 123 -54 107c0,0 65,27 123,77 57,50 88,73 88,73 0,0 -50,23 0,61 50,38 38,65 38,65l-29 40c-58,2 -116,-5 -165,-9 -119,-11 -500,-165 -593,-212 -93,-46 -150,-56 -160,-165 -10,-108 -10,-129 -57,-144 -46,-15 -67,-36 -72,-93 -4,-44 143,-137 210,-177z"/>
    <path class="fil4 str0" d="M5839 1376c0,0 98,-30 124,75 25,105 87,123 72,314 -6,71 3,118 1,148 -2,50 -14,54 -35,52 -33,-2 -56,-31 -67,-74 -10,-44 -43,-216 -90,-265 -46,-49 -77,-170 -49,-206 29,-36 44,-44 44,-44z"/>
    <path class="fil4 str0" d="M5201 1506c-5,-11 11,-106 -136,-76 -146,31 -159,75 -144,165 16,90 28,213 21,265 -8,51 -36,149 85,162 120,13 182,39 239,103 56,64 149,41 149,41 0,0 77,-46 77,-103 0,-57 0,-126 57,-154 56,-29 169,-88 162,-160 -8,-72 -63,-146 -101,-167 -38,-20 -155,-72 -200,34 -45,105 -39,102 -75,108 -36,5 -51,-47 -46,-88 5,-41 -31,-56 -31,-56 0,0 -57,-39 -57,-74z"/>
    <path class="fil4 str0" d="M2103 1211l2 3 8 155c0,0 -49,10 -51,38 -3,29 -8,173 -8,173 0,0 -13,92 -103,92 -90,0 -90,0 -93,21 -2,20 -25,61 -25,61 0,0 -80,26 -75,-48 5,-75 -8,-178 -8,-178l0 -7c31,-28 62,-55 92,-79 24,-20 85,-66 91,-74 6,-7 114,-84 114,-84l-11 -21 67 -52z"/>
    <path class="fil4 str0" d="M3743 2073c77,0 196,-23 183,56 -13,79 -34,104 -124,93 -91,-10 -107,-54 -169,-51 -62,2 -158,-21 -148,-78 11,-57 101,-45 101,-45 56,4 98,25 157,25z"/>
    <path class="fil4 str0" d="M3855 2314c9,87 -20,92 -70,106 -50,14 -170,20 -170,20 0,0 -59,-26 -15,-75 38,-43 245,-138 255,-51z"/>
    <path class="fil4 str0" d="M3973 2481c4,-6 81,-94 184,-27 103,67 198,-26 198,-26 0,0 116,-43 167,-31 52,13 204,-87 217,-97 12,-11 213,-113 293,-72 79,41 36,139 -44,167 -20,7 -35,-4 -46,0 -34,11 -35,31 -47,77 -11,46 0,85 -43,72 -44,-13 -62,-110 -239,-75 -76,15 -206,113 -255,173 -49,59 -100,77 -88,229 13,151 57,210 -2,231 -59,21 -77,13 -77,13 0,0 -49,0 -72,51 -23,52 -98,29 -95,-38 2,-67 -54,-193 25,-265 13,-11 13,-36 17,-47 22,-62 -57,-103 -122,-48 -65,54 -124,131 -183,126 -59,-5 -23,-101 -13,-155 11,-54 0,-82 67,-123 67,-41 155,-129 158,-135z"/>
    <path class="fil4 str0" d="M5119 2765c0,0 62,-80 124,-23 61,57 -42,113 -42,113 0,0 -87,100 -156,75 -70,-26 -49,-62 -18,-95 30,-34 92,-70 92,-70z"/>
    <path class="fil4 str0" d="M5595 2426c0,0 -10,-90 -31,-119 -21,-28 26,-87 80,-66 54,20 149,95 144,321 -5,226 -5,370 -65,352 -59,-18 -133,-59 -136,-236 -2,-178 8,-252 8,-252z"/>
    <path class="fil4 str0" d="M5667 3169c0,0 141,-24 254,13 114,37 217,86 162,193 -18,36 -44,59 -67,74 -39,25 -83,16 -118,-44 -34,-59 -162,-118 -182,-115 -21,2 -93,-41 -83,-77 11,-36 34,-44 34,-44z"/>
    <path class="fil4 str0" d="M5420 4115c0,0 85,-51 118,41 34,93 -2,119 -54,129 -51,10 -108,-10 -105,-77 2,-67 41,-93 41,-93z"/>
    <path class="fil4 str0" d="M5399 4520c13,-14 119,-81 214,-22 95,59 146,119 100,188 -46,70 -95,72 -152,16 -56,-57 -113,-78 -113,-78 0,0 -92,0 -49,-104z"/>
    <path class="fil4 str0" d="M6515 3943c0,0 -90,82 -115,0 -26,-82 33,-149 61,-170 29,-20 75,-69 150,-74 74,-6 180,-90 180,-90 0,0 146,-98 136,66 -10,165 0,142 28,162 28,21 34,103 -2,124 -36,20 -129,164 -134,213 -5,49 -77,72 -18,198 59,126 54,173 51,211 -2,39 -74,147 65,257 138,111 159,227 159,255 0,28 23,134 -72,129 -95,-6 -98,30 -98,30 0,0 -46,34 -72,-41 -25,-74 -7,-72 -82,-61 -75,10 -116,51 -144,-60 -28,-110 -15,-226 -13,-246 3,-21 23,-129 -28,-144 -52,-16 -70,-13 -116,0 -46,12 -69,-52 -69,-52l-5 -118c0,0 2,-47 -31,-54 -34,-8 -44,-101 -23,-106 20,-5 38,-31 92,-46 54,-15 31,-49 31,-49 0,0 -33,-92 39,-98 36,-2 20,-58 15,-82 -5,-23 75,-56 75,-56 0,0 167,-67 151,-137 -15,-69 -72,-61 -128,-18 -57,44 -83,57 -83,57z"/>
    <path class="fil4 str0" d="M6762 5614c47,49 44,111 44,111 0,0 26,77 80,98 54,20 115,28 115,121 0,34 -4,37 -19,42 -26,9 -68,4 -68,4 0,0 -95,-70 -108,-88 -13,-18 -85,-54 -85,-54 0,0 -95,-41 -95,-90 0,-36 -4,-81 4,-108 13,-43 97,-73 132,-36z"/>
    <path class="fil4 str0" d="M8409 7225l4 -11c0,0 126,-193 162,-214 36,-20 198,-133 211,101 5,92 -43,244 -92,324l-8 16c-3,-1 -7,-4 -14,-8 -21,-13 -142,-91 -142,-91 0,0 -20,-6 -31,-3 -11,4 -40,-15 -49,-28 -8,-12 -13,-4 -34,-7 -21,-4 -17,-36 -7,-62 4,-11 3,-16 0,-17z"/>
    <path class="fil4 str0" d="M7554 6779l-15 2c-16,-6 -23,-15 -23,-15l-66 -18 -15 25 -40 -9 0 -36c0,0 5,-183 93,-136 87,46 69,185 69,185l-3 2z"/>
    <path class="fil4 str0" d="M9561 7978l71 -65c0,0 165,-133 232,-74 67,59 18,200 5,213 -1,1 -12,15 -24,29 -10,-5 -18,-9 -20,-11 -5,-5 -24,-34 -69,-23 -45,12 -81,-24 -81,-24l-29 -25 14 -43c0,0 -50,-16 -50,-13 0,4 -8,14 -8,14l26 16 -12 26 -55 -20z"/>
    <path class="fil4 str0" d="M10138 8233c0,-3 1,-6 1,-8 15,-155 206,-152 206,-152 17,3 149,1 156,-8 44,-49 21,-54 -30,-123 -52,-70 30,-85 30,-85 0,0 90,8 90,-5 0,-13 16,-16 16,-16 0,0 69,-20 51,-64 -18,-44 18,-59 18,-59 0,0 41,-8 72,-106 31,-97 -50,-119 -103,-154 -53,-35 -113,-38 -161,-20 -5,2 -63,14 -95,46 -31,31 -45,71 -54,87 -15,26 -134,-31 -173,26 -20,28 -121,69 -159,55 -18,-7 -19,-27 -21,-50 -13,-121 -111,-46 -111,-46 -20,9 -65,10 -74,-16 -23,-63 -47,-74 -72,-90 -26,-15 -57,-20 -49,90 8,111 -18,98 -34,96 -15,-3 -90,-49 -105,-157 -15,-108 -57,-98 -136,-49 -80,49 -121,8 -147,-16 -26,-23 -36,-49 -113,-43 -77,5 -85,-13 -82,-142 2,-128 -62,-126 -116,-146 -54,-21 -26,-85 -26,-85 0,0 36,7 36,-77 0,-85 -113,-98 -176,-84 -204,45 -211,30 -242,-33 -12,-24 -21,-67 -57,-101 -129,-118 -222,-26 -232,212 -3,60 -38,163 -66,223 -16,-10 -26,-16 -26,-17 0,-3 11,-20 11,-20l-63 -10 -6 -3c14,-24 25,-44 25,-45 13,-36 -1,-174 -60,-182 -43,-5 -35,123 -27,192l-54 -31 10 -34c0,0 -16,-21 -54,-28 -38,-8 -165,-78 -165,-78l-33 -14c-3,-47 -3,-143 32,-217 59,-125 191,146 226,176 12,10 35,7 44,1 14,-9 21,-31 21,-57 -1,-116 -100,-285 -226,-282 -144,2 -281,-116 -365,-147 -85,-31 -162,-185 -180,-247 -19,-62 -29,-105 -78,-164 -49,-60 -38,-65 -13,-250 26,-185 -92,-118 -92,-118 0,0 -93,80 -108,-54 -16,-134 85,-80 128,-88 44,-7 91,-23 96,-84 5,-62 5,-144 -44,-204 -49,-59 -77,-151 -77,-151 0,0 -116,-121 -113,-312 2,-190 -60,-208 -60,-208 0,0 -131,-134 -25,-211 105,-77 211,-131 211,-131 0,0 133,-41 105,57 -28,97 70,79 70,79 0,0 74,26 64,168 -2,29 -21,63 18,72 39,9 -13,90 -39,90 -25,0 -154,2 -136,136 18,134 139,221 231,185 117,-45 179,-100 232,50 16,45 -3,63 -52,115 -48,52 -100,10 -97,252 2,241 -16,463 -16,463 0,0 -7,110 80,87 87,-23 80,-98 72,-126 -8,-28 21,-80 77,-77 57,2 147,18 144,-34 -2,-51 -36,-144 106,-169 141,-26 120,-113 120,-113 0,0 0,-57 -15,-54 -15,2 -5,-126 87,-129 93,-3 57,-90 60,-111 2,-20 -13,-61 -83,-61 -69,0 -95,-67 -82,-93 13,-26 39,-134 239,-126 201,8 100,244 100,244 0,0 -92,101 -56,144 36,44 -46,65 -46,65 0,0 -132,36 -8,105 46,26 41,46 40,60 -2,24 -27,33 -27,33 0,0 -116,59 -93,259 7,57 21,74 23,99 5,63 -18,58 -59,51 -41,-8 -62,-101 -152,-60 -90,42 -56,152 -38,183 18,31 108,185 105,208 -2,23 67,113 93,124 26,10 131,103 229,72 97,-31 144,-77 105,-250 -38,-172 -49,-193 39,-193 87,0 61,-92 38,-115 -23,-23 -77,-47 -79,-178 -3,-131 -3,-169 -29,-213 -25,-44 -28,-124 -7,-154 20,-31 54,-72 131,7 77,80 110,85 139,62 28,-23 138,-15 151,51 13,67 72,44 72,44 0,0 8,-33 41,-28 34,5 70,0 72,31 3,31 121,18 157,-8 36,-26 175,-51 237,26 22,28 55,-3 87,23 32,25 169,51 160,218 -5,84 109,163 154,52 45,-111 59,-247 147,-221 87,25 74,64 74,64 0,0 21,8 47,13 25,5 133,41 151,298 5,63 -74,127 -123,93 -49,-35 -108,-16 -124,20 -15,36 -33,111 -64,93 -31,-18 -44,-13 -62,-70 -18,-56 -90,-61 -105,-48 -16,12 -54,48 -85,36 -31,-13 -62,10 -105,-47 -22,-28 -49,-30 -71,-30 -29,0 -32,16 -56,-5 -14,-14 -27,-42 8,-73 57,-49 144,-141 62,-193 -82,-51 -252,54 -270,75 -18,21 -165,129 -72,275 26,41 60,53 76,80 40,69 34,120 6,159 -27,39 -133,180 -108,363 26,182 21,172 108,188 88,15 210,-62 257,113 11,38 44,55 62,74 33,34 88,39 142,41 91,2 207,-22 306,-68 123,-58 223,-145 249,-196 26,-52 77,-175 149,-229 72,-54 155,-62 345,-52 190,11 398,11 473,139 75,129 103,298 31,422 -72,123 -113,149 -111,249 3,101 -2,101 -41,101 -14,0 -13,39 -11,68 3,45 12,83 73,91 59,8 80,154 18,193 -62,39 -208,51 -208,51 0,0 -93,-20 -85,52 7,72 90,72 105,90 16,18 190,87 172,278 -6,66 -10,126 -12,175 -4,5 -8,11 -12,18 -18,25 -44,9 -44,37 0,5 -207,-49 -207,-49l11 -19 -49 -33 -65 -15c-1,12 -2,14 -4,28 -8,0 -21,-5 -31,-8 -34,-8 -30,-13 -62,0 -40,17 -109,10 -165,11 -55,1 -45,-12 -79,-33 -34,-21 -29,-24 -63,-7 -51,26 -40,35 -84,-3 -43,-38 -44,-30 -130,-48 -87,-18 -63,-17 -93,-40 -5,-3 -9,-5 -12,-6zm-1444 -2043c0,0 18,-66 108,-51 90,15 115,46 110,67 -5,20 -2,23 -23,26 -21,2 -36,59 -28,110 7,52 -31,77 -31,77 -11,9 -46,238 -111,165 -64,-74 -79,-103 -67,-221 13,-119 42,-173 42,-173zm100 -358c8,-12 49,-56 144,-43 95,13 167,8 162,70 -5,61 -72,56 -72,56l-108 -5c-21,-1 -70,21 -87,13 -33,-17 -75,-43 -39,-91zm1878 1334c7,-9 61,-63 87,-24 25,38 -29,87 -29,87 0,0 -54,42 -72,23 -18,-18 -31,-38 14,-86zm-142 -199c14,79 10,147 -34,180 -43,33 -110,-8 -105,-75 5,-66 15,-167 15,-167 14,-28 36,-29 54,-26 32,6 61,39 70,88zm349 300c33,2 120,2 106,83 -18,101 -72,103 -72,103 0,0 -131,13 -118,-69 6,-40 34,-118 84,-117zm89 392c1,-13 4,-126 76,-106 72,21 126,16 123,98 -2,82 -87,49 -87,49 0,0 -103,3 -112,-41zm117 571c-7,39 -49,60 -85,41 -36,-19 -67,-44 -54,-139 20,-146 150,36 139,98z"/>
    <path class="fil4 str0" d="M10926 5841c15,2 108,2 128,-26 21,-28 178,-26 214,31 36,56 20,157 -13,177 -34,21 -113,-15 -134,-49 -20,-33 -62,-74 -134,-59 -72,16 -146,44 -146,44 0,0 -70,28 -75,-49 -5,-77 144,-72 160,-69z"/>
    <path class="fil4 str0" d="M11029 6107c-6,-7 -42,-43 -129,1 -87,44 -198,77 -139,183 31,54 168,-13 206,-34 38,-20 95,-82 62,-150z"/>
    <path class="fil4 str0" d="M11331 6278c22,-16 29,-57 227,-44 198,13 275,26 309,90 33,64 146,62 146,62 0,0 152,33 180,134 29,100 103,90 124,82 20,-8 159,-59 159,49 0,25 -30,111 -7,128 22,18 -8,52 -47,54 -38,3 -97,23 -162,-64 -64,-87 -167,-87 -193,-87 -25,0 -77,12 -156,-62 -80,-75 -214,-36 -260,-36 -46,0 -178,31 -196,-82 -18,-114 -77,-85 -77,-85 0,0 -115,0 -47,-139z"/>
    <path class="fil4 str0" d="M12274 7020c9,-12 118,-97 153,32 12,41 -52,142 -101,153 -29,7 -71,9 -89,-25 -28,-54 5,-136 37,-160z"/>
    <path class="fil4 str0" d="M12309 7355c21,-5 72,34 36,90 -36,57 -139,29 -146,8 -22,-59 64,-86 110,-98z"/>
    <path class="fil4 str0" d="M11755 7408c6,-17 66,-153 130,-130 64,23 54,83 51,137 -2,54 67,54 80,59 13,5 131,-3 159,216 7,51 -26,139 -92,131 -66,-8 -100,-67 -100,-67 0,0 -21,-39 -108,-23 -88,15 -70,31 -108,18 -39,-13 -124,-77 -42,-247 16,-32 16,-60 30,-94z"/>
    <path class="fil4 str0" d="M12357 7568c11,-7 135,-89 155,-120 21,-31 175,-85 250,-67 29,7 65,15 78,32 22,26 8,65 -27,76 -34,11 -69,8 -97,-5 -29,-13 -78,10 -67,57 10,46 2,146 5,200 0,0 7,59 -54,59 -62,0 -47,-49 -47,-49 0,0 -18,-36 -54,-15 -36,21 -41,51 -82,46 -41,-5 -77,-13 -105,-95 -29,-82 20,-105 45,-119z"/>
    <path class="fil4 str0" d="M12911 6804c-3,-12 -64,-81 -18,-120 46,-38 152,-26 188,18 36,44 213,152 270,152 56,0 110,36 95,95 -16,59 -82,85 -82,85 0,0 -119,46 -116,144 2,98 -108,136 -108,136 0,0 -88,16 -124,-51 -36,-67 -90,-23 -105,-11 -15,13 -93,60 -126,24 -33,-36 -5,-134 10,-142 16,-8 3,-95 -43,-100 -47,-5 -39,-103 -26,-113 13,-11 26,-41 118,-39 93,3 70,-67 67,-78z"/>
    <path class="fil4 str0" d="M12941 9205c-2,-65 -9,-186 -9,-186 0,0 -37,-61 5,-118 42,-57 39,-67 -8,-118 -98,-107 -302,120 -360,190l-198 -124 -14 21c0,0 -201,-101 -213,-120 -12,-19 -7,-18 -59,-27 -51,-8 -257,-96 -273,-108 -15,-12 -15,-11 -20,-7 -5,4 -8,13 -27,-8 -3,-3 -7,-7 -12,-11l3 -33c0,0 8,-200 75,-208 17,-2 29,-32 47,-45 53,-38 116,-87 174,-84 58,4 103,-46 103,-46 0,0 128,-82 280,-20 152,61 221,72 286,69 64,-3 139,-5 172,33 73,84 174,-69 306,137 14,22 51,43 5,87 -46,44 -110,129 -82,175 28,46 72,46 134,0 61,-46 156,-67 218,59 22,45 60,126 88,215 51,157 94,341 126,397 15,29 12,101 5,165 -28,40 -61,89 -61,93 0,8 -262,-168 -262,-168l-58 -9 -212 -120 33 -42c0,0 -20,-10 -20,-13 0,-2 -8,12 -8,12l-17 -1 -147 -37z"/>
    <path class="fil4 str0" d="M13708 7463c41,21 8,108 -13,121 -20,13 -85,36 -95,-36 -7,-52 53,-112 108,-85z"/>
    <path class="fil4 str0" d="M13972 7763c1,-19 -1,-86 63,-55 63,31 58,123 59,144 1,20 0,85 -70,56 -34,-14 -43,-37 -47,-66 -5,-29 -6,-63 -5,-79z"/>
    <path class="fil4 str0" d="M13736 7964c17,53 7,106 -12,111 -20,6 -83,16 -93,-79 -13,-121 70,-148 105,-32z"/>
    <path class="fil4 str0" d="M14328 7485c23,4 95,22 113,-1 18,-23 131,-49 126,87 -5,137 -5,178 -28,186 -23,7 -49,105 -49,105 0,0 -49,90 -100,100 -52,11 -96,-33 -103,-90 -8,-56 -3,-131 -3,-131 0,0 18,-49 -33,-74 -52,-26 -39,-198 77,-182zm54 152c5,-4 74,-71 121,-6 46,64 -8,120 -29,141 -20,21 -69,57 -105,-10 -36,-67 8,-121 13,-125z"/>
    <path class="fil4 str0" d="M14585 8011c-3,70 3,80 -33,88 -36,7 -72,5 -62,-78 10,-81 97,-63 95,-10z"/>
    <path class="fil4 str0" d="M14091 8160c36,3 54,59 52,88 -3,28 -5,72 -52,72 -46,0 -105,7 -95,-83 3,-23 54,-80 95,-77z"/>
    <path class="fil4 str0" d="M14347 9332c54,10 97,45 61,117 -44,87 -160,82 -198,77 -39,-5 -201,-13 -168,-103 40,-106 210,-109 305,-91z"/>
    <path class="fil4 str0" d="M14616 8945c123,7 206,-18 216,-47 10,-28 69,-69 103,5 33,75 61,121 46,191 -15,69 -224,95 -224,95 0,0 -164,-34 -193,-23 -28,10 -146,20 -131,-129 7,-61 57,-100 183,-92z"/>
    <path class="fil4 str0" d="M4767 4295c0,0 20,-59 92,-41 59,15 63,-28 57,72 -3,44 15,134 -87,131 -103,-2 -173,5 -160,-51 13,-57 75,-88 75,-88l23 -23z"/>
   </g>
   <g>
    <path class="fil5 str0" d="M6405 6021c25,-17 93,-105 170,-40 76,65 152,58 152,58 0,0 127,34 146,118 19,84 156,134 179,141 23,8 84,42 138,61 53,20 103,69 76,176 -8,33 -52,27 -96,-2 -44,-29 -88,-83 -128,-85 -40,-2 -100,-7 -141,-5 -148,6 -242,-128 -361,-198 -63,-38 -198,-149 -135,-224z"/>
    <path class="fil5 str0" d="M4954 5435l64 -84 318 -394c0,0 96,-91 187,-20 91,70 237,10 248,-31 24,-98 216,-128 305,-109 51,11 97,38 139,115 42,76 104,38 114,18 10,-20 70,-83 96,-71 25,13 52,51 52,169 0,118 5,260 18,277 13,18 58,134 53,159 -5,25 3,83 -60,81 -63,-3 -121,-38 -157,-18 -35,20 -131,15 -143,-20 -13,-35 -86,-68 -36,-131 51,-63 194,-119 154,-202 -40,-83 -106,-50 -106,-50 0,0 -73,63 -138,68 -66,5 -101,-15 -136,15 -36,30 -53,78 -48,149 5,70 -41,113 -73,131 -33,17 -99,30 -119,60 -18,28 -163,117 -192,175 -54,-50 -162,-125 -253,-163 -66,-27 -90,-21 -163,-58 -32,-15 -78,-38 -110,-54 0,-1 -6,-5 -14,-12z"/>
    <path class="fil5 str0" d="M6485 1373l-173 206c0,0 36,170 170,268 134,98 258,216 289,325 31,108 315,371 428,422 82,37 190,45 273,6 32,-15 -33,78 -11,47l2 -3 89 69c0,0 84,-71 70,-38 -30,72 -77,169 -72,187 2,5 54,25 107,64 -190,143 -427,-96 -463,-177 -21,-47 -181,-179 -327,-325 -140,-142 -265,-300 -312,-330 -57,-36 -248,-190 -263,-288 -16,-98 -170,-356 -170,-356l-47 -103 4 -40 53 23c0,0 33,6 47,3 14,-3 38,12 50,28 13,17 21,21 21,21l37 -32c0,0 22,5 47,7 25,3 104,6 119,9l0 0 0 0 0 0 1 0 0 0 0 0 0 0 0 0 1 0 0 0 0 0 0 0 0 0 1 1 0 0 0 0 0 0 1 0 0 0 0 0 0 0 1 0 0 0 1 0 0 0 0 0 0 0 1 0 0 1 1 0 0 0 0 0 1 0 0 0 1 0 0 0 0 0 1 0 0 0 1 0 0 0 0 1 1 0 0 0 1 0 0 0 0 0 1 0 0 0 1 0 0 1 1 0 1 0 1 0 0 0 0 0 1 0 0 1 1 0 1 0 0 0 0 0 1 0 1 0 0 0 1 1 1 0 1 0 0 0 0 0 1 0 1 0 1 1 0 0 0 0 1 0 1 0z"/>
    <path class="fil5 str0" d="M5615 1212c0,0 126,-39 132,105 5,144 -11,173 -11,173 0,0 -67,30 -90,-29 -23,-59 -77,-95 -77,-95 0,0 -77,-90 -18,-123 59,-34 64,-31 64,-31z"/>
    <path class="fil5 str0" d="M4521 1457c14,-9 169,-68 184,45 16,114 28,219 -20,242 -49,23 -62,-36 -62,-51 0,-16 -49,-88 -98,-83 -49,6 -80,-25 -77,-54 2,-28 20,-74 73,-99z"/>
    <path class="fil5 str0" d="M2861 924c11,-8 119,-10 119,103 0,113 -11,92 -11,92 0,0 0,101 16,126 15,26 -3,65 -21,72 -18,8 -64,8 -72,-33 -8,-41 -33,-28 -33,-28l2 -88c0,0 23,-90 16,-126 -8,-36 -57,-67 -16,-118z"/>
    <path class="fil5 str0" d="M1430 1810l3 1c0,0 445,102 621,93 110,-6 369,22 302,199 -68,177 -28,228 -28,228 0,0 9,120 -42,153 -51,32 -102,-14 -102,-14 0,0 -111,-60 -213,-37 -102,23 -255,125 -255,125l-1 1c-92,-74 -184,-186 -256,-266 -9,-10 -145,-229 -165,-258 -19,-29 -16,-29 -8,-39 24,-33 41,-78 54,-99 5,-8 46,-51 75,-75 5,-4 10,-8 15,-12z"/>
    <path class="fil5 str0" d="M3376 1554c2,26 5,87 -24,103 -28,15 -90,-57 -90,-72 0,-16 0,-75 29,-85 38,-14 79,-3 85,54z"/>
    <path class="fil5 str0" d="M3203 1734c16,87 0,188 0,188 0,0 -13,56 -64,54 -51,-3 -59,-83 -59,-83l2 -149c23,-53 104,-109 121,-10z"/>
    <path class="fil5 str0" d="M2738 1837c0,0 28,54 100,38 72,-15 77,-36 116,-15 38,20 26,108 26,108 0,0 -29,64 -34,113 -5,49 -15,121 -15,142 0,20 -34,69 -49,77 -16,7 -70,33 -103,82 -33,49 -67,41 -80,41 -13,0 -33,-13 -46,-82 -13,-70 -51,-170 -41,-252 10,-83 -49,-113 -49,-113 0,0 -44,-34 -21,-75 19,-33 51,-87 95,-98 34,-9 115,24 101,34z"/>
    <path class="fil5 str0" d="M3075 2221c5,-4 64,-96 154,-14 28,26 80,36 104,63 51,62 54,144 50,187 -3,42 -38,54 -56,48 -18,-5 -52,-41 -52,-41 0,0 -23,-56 -90,-38 -67,18 -72,-44 -72,-44 0,0 0,-39 -41,-33 -41,5 -92,-34 -77,-57 15,-23 75,-67 80,-71z"/>
    <path class="fil5 str0" d="M2846 2462c0,0 64,-52 113,13 49,64 18,97 18,97 0,0 -69,3 -75,31 -5,28 -61,23 -61,23 0,0 -67,-28 -57,-85 10,-56 62,-79 62,-79z"/>
    <path class="fil5 str0" d="M3440 3766c-16,-22 -40,-42 -68,-61 -20,-14 -72,-49 -141,-88l0 -1 0 -1 -1 -1 0 -1 0 -1 0 0 0 -2 0 0 -1 -2 0 -2 0 -1 -1 -1 0 -1 0 -1 0 0 -1 -2 0 0 0 -2 0 0 0 -1 -1 -1 0 -1 0 -1 0 0 -1 -2 0 0 0 -2 0 0 -1 -1 0 0 -1 -2 0 -1 0 0 0 0 0 -1 -1 -2 0 0 -1 -1 0 0 0 -2 0 0 -1 -1 0 0 -1 -1 0 0 0 -1 0 0 -1 -1 0 -1 -1 -1 0 0 -1 -1 0 0 0 0 -1 -1 0 0 0 -1 -1 -1 0 0 -1 -1 0 0 -1 -1 0 0 -1 -1 0 0 0 0 -1 -1 0 0 -1 0 0 0 -1 -1 0 0 -1 0 0 0 0 0 -1 -1 0 0 -1 0 -1 -1 0 0 0 0 -1 0 -1 0 0 0 0 0 -1 -1 0 0 0 0 0 0 0 0 0 0 -1 0 0 0 0 0 0 0 0 0 0 0 0 0 0 0 0 0 -1 0 -1 0 0 0 0 0 0 0 0 0 0 0 -2 0 0 0 0 0 -1 0 -1 0 -1 0 0 0 0 0 -2 0 0 0 0 0 -1 0 -1 0 0 0 -2 0 0 0 0 1 -2 0 0 0 0 0 -2 0 -1 1 0 0 0 0 -1 0 -1 0 -2 1 0 0 0 0 -2 1 -2 1 0 0 0 0 -1 0 -1 1 -1 0 0 0 -2 1 -1 0 0 1 -2 1 -60 -81 -33 -21 -146 4 -401 -88c8,-18 120,-255 122,-288 2,-35 12,-56 25,-60 14,-5 35,-47 35,-65 0,-19 33,-127 127,-53 34,25 60,27 93,-3 33,-29 100,-2 97,23 -2,26 -37,236 -32,267 3,21 3,47 10,67 17,45 51,74 109,42 35,-19 38,-72 38,-72 0,0 79,-232 70,-280 -10,-49 -30,-63 -30,-63 0,0 -21,-44 20,-83 42,-40 109,-132 197,-109 88,23 70,120 56,164 -14,44 -95,107 -21,192 22,26 37,85 25,118 -11,34 -44,107 35,107 79,0 109,76 104,111 -5,35 -44,257 -95,296 -49,38 -70,68 -71,70z"/>
    <path class="fil5 str0" d="M3909 4348l0 0c3,-33 4,-75 0,-111 -10,-70 69,-158 69,-158 0,0 79,-47 172,93 93,139 283,315 283,315l190 190c0,0 163,130 74,265 -42,64 -79,112 -106,144 -4,-5 -7,-10 -9,-14l-17 21 -33 -28c-61,-46 -137,-100 -199,-148 -49,-38 33,-12 -26,-81 -50,-58 -144,-224 -275,-318 0,0 -83,-117 -123,-170z"/>
    <path class="fil5 str0" d="M12569 8973c58,-70 262,-297 360,-190 47,51 50,61 8,118 -42,57 -5,118 -5,118 0,0 7,121 9,186l-55 -14 -61 -25c0,0 -149,-102 -149,-106 0,-4 -17,-31 -17,-31l-90 -56z"/>
    <path class="fil5 str0" d="M3634 1648c24,-2 109,4 143,-27 33,-31 67,2 67,2 0,0 110,16 110,-25 0,-42 -18,-31 -18,-31 0,0 -20,-21 -10,-41 10,-21 10,-80 85,-80 74,0 151,128 151,128 0,0 39,42 75,11 36,-31 141,-34 175,56 33,90 411,348 424,355 13,8 142,17 121,152 -8,49 -52,78 -90,62 -38,-16 -121,-11 -139,13 -18,23 -56,56 -100,59 -44,2 -185,-13 -216,-31 -31,-18 -41,-26 -67,-8 -26,18 -111,80 -162,26 -51,-54 -67,-144 -10,-172 56,-29 69,-70 162,-44 92,26 87,-82 87,-82 0,0 -18,-67 -98,-75 -79,-8 -192,-21 -200,-88 -8,-66 -28,-118 -67,-105 -39,13 -8,157 -8,157 0,0 3,72 -67,72 -69,0 -84,-10 -92,-39 -8,-28 -121,-18 -121,-18 0,0 -39,-5 -49,-31 -10,-25 -108,-15 -121,-10 -13,5 -31,31 -74,31 -44,0 -134,-26 -121,-111 13,-84 98,-118 230,-106z"/>
    <path class="fil5 str0" d="M5070 2415c-7,6 -2,96 -67,144 -64,49 -131,90 -131,90 0,0 -69,65 18,70 88,5 175,-80 175,-80 0,0 34,-26 54,-10 21,15 52,-18 52,-70 0,-51 -3,-115 33,-113 36,3 44,-92 36,-108 -8,-15 -18,-74 -103,-2 -85,72 -59,74 -67,79z"/>
    <path class="fil5 str0" d="M4741 2765c0,0 43,-54 88,-16 45,37 69,54 65,119 -4,64 -93,46 -93,46 0,0 -118,4 -107,-63 10,-68 47,-86 47,-86z"/>
    <path class="fil5 str0" d="M4451 3049c1,-12 79,-103 123,-86 43,17 113,78 122,139 9,60 16,153 -60,201 -77,48 -122,5 -133,-5 -12,-10 -21,-45 -77,-35 -55,11 -52,33 -99,8 -16,-8 -9,-81 18,-85 23,-4 105,-93 106,-137z"/>
    <path class="fil5 str0" d="M5500 3058c46,31 56,49 13,83 -44,33 -54,20 -72,5 -18,-16 -52,-21 -54,-49 -3,-28 85,-57 113,-39z"/>
    <path class="fil5 str0" d="M5093 3335c8,-2 52,-2 62,-20 10,-18 88,-2 72,44 -15,46 -28,57 -28,57 0,0 -39,23 -77,20 -39,-2 -95,16 -88,-46 8,-62 34,-57 59,-55z"/>
    <path class="fil5 str0" d="M4951 3575c9,-10 47,-46 78,-41 31,5 75,3 64,69 -10,67 -28,88 -72,83 -43,-5 -66,-11 -82,-31 -15,-21 -26,-44 12,-80z"/>
    <path class="fil5 str0" d="M5392 3328c-3,11 0,90 -13,93 -13,2 -31,121 -18,175 13,54 87,85 131,23 44,-62 59,-72 51,-165 -7,-92 0,-159 -28,-167 -28,-8 -105,-33 -123,41z"/>
    <path class="fil5 str0" d="M4811 3940c0,0 23,-54 72,-25 48,28 38,100 36,115 -3,16 5,57 -44,49 -67,-10 -91,-86 -64,-139z"/>
    <path class="fil5 str0" d="M5011 4016c-2,-17 18,-63 39,-60 20,2 92,13 90,67 -3,54 20,66 -34,61 -54,-5 -90,-36 -95,-68z"/>
    <path class="fil5 str0" d="M6158 3711c0,0 44,-84 111,-30 66,54 46,156 -8,172 -54,15 -178,-5 -178,-5 0,0 -18,-75 26,-90 44,-16 49,-47 49,-47z"/>
    <path class="fil5 str0" d="M6220 3465c0,0 87,-129 95,-165 8,-36 110,-147 141,-134 8,3 23,-2 30,2 22,12 29,40 -7,101 -35,61 -74,31 -100,144 -26,113 -31,147 -95,180 -64,34 -77,-82 -77,-82l13 -46z"/>
    <path class="fil5 str0" d="M7493 3804c10,-5 54,-18 54,15 0,34 2,157 2,157 0,0 -41,80 -100,52 -59,-29 -23,-126 -18,-142 5,-15 36,-74 62,-82z"/>
    <path class="fil5 str0" d="M8741 4205c14,1 106,-10 135,-52 29,-42 126,-98 159,-2 32,96 30,163 -33,201 -63,38 -123,7 -136,-9 -13,-17 -102,-6 -105,-10 -3,-4 -90,8 -94,-54 -4,-61 21,-76 74,-74z"/>
    <path class="fil5 str0" d="M8898 4554c90,-18 158,26 192,95 29,61 40,138 -11,152 -51,14 -98,27 -128,-73 -31,-100 -54,-104 -54,-104 0,0 -56,-40 1,-70z"/>
    <path class="fil5 str0" d="M8527 4400c1,-8 64,-33 108,12 44,44 172,82 176,180 4,98 -8,130 -73,134 -65,4 -98,-50 -94,-77 4,-26 31,-171 -27,-184 -20,-4 -109,-20 -90,-65z"/>
    <path class="fil5 str0" d="M13084 7908c7,-9 164,-74 267,-5 103,68 214,240 203,290 -12,50 -27,111 -119,61 -40,-22 -25,-36 -43,-56 -25,-28 -76,-65 -159,-78 -45,-7 -160,-46 -171,-109 -4,-21 -20,-79 22,-103z"/>
    <path class="fil5 str0" d="M14012 8472c19,15 69,134 130,122 61,-11 111,-42 95,-195 -15,-153 81,-160 81,-160 0,0 110,-35 126,92 15,126 61,198 88,213 26,16 107,54 84,176 -23,122 -157,88 -157,88 0,0 -138,0 -122,157 15,156 -27,202 -84,202 -58,0 -157,-19 -168,-153 -12,-133 -23,-202 19,-217 44,-17 34,-73 -17,-86 -30,-8 -79,4 -125,36 -87,61 -256,53 -256,53 0,0 -53,-68 -3,-141 49,-73 118,-99 110,-179 -7,-81 -15,-85 23,-88 39,-4 130,19 176,80z"/>
    <path class="fil5 str0" d="M15009 7450c8,-13 107,-78 210,-32 103,45 283,133 317,141 35,8 130,23 184,126 53,103 175,157 175,157 0,0 134,57 61,248 -72,191 -206,344 -168,378 38,34 50,130 -19,153 -69,23 -107,-27 -114,-77 -8,-49 -46,-156 -31,-179 15,-23 4,-168 -65,-199 -69,-30 -111,-229 -118,-256 -8,-26 -54,-183 -142,-225 -88,-42 -135,-75 -191,-88 -55,-12 -148,-53 -99,-147z"/>
    <path class="fil5 str0" d="M15276 8092c8,-10 77,-52 130,17 61,78 32,197 -84,134 0,0 -61,-35 -61,-77 0,-42 -19,-42 15,-74z"/>
    <path class="fil5 str0" d="M15336 8707c9,-10 59,-86 131,-52 73,35 54,138 42,164 -11,27 -72,111 -160,100 -119,-16 -59,-189 -13,-212z"/>
    <path class="fil5 str0" d="M16877 9310l0 0 -3 -1c-10,-47 -20,-96 -22,-117 -11,-99 -15,-252 -13,-354 3,-102 108,-80 174,-56 7,2 58,20 109,39l-41 106 -176 358 -1 0 0 1 -1 1 -1 1 -2 1 -2 2 -2 2 -2 2 -3 3 -3 2 -3 4 -4 3 -4 3z"/>
    <path class="fil5 str0" d="M15904 9695l-3 4c0,0 3,18 16,27l9 18 10 18c-4,20 -15,47 -27,75 -16,38 -39,100 -61,156l0 1 0 1 -1 1 0 1 0 1 -1 0 0 1 0 1 -1 1 0 0 0 1 -1 1 0 1 0 1 0 0 -1 2 0 1 -1 0 0 1 0 1 -1 1 0 1 0 0 -1 1 0 1 0 1 -1 1 0 1 0 1 -1 1 0 0 0 1 -1 1 0 1 0 0 -1 2 0 1 -1 1 0 0 0 1 -1 1 0 1 0 0 0 1 -1 2 0 1 0 0 -1 1 0 1 -1 1 0 0 0 1 -1 1 0 1 0 1 0 1 -1 1 0 1 -1 0 0 1 0 1 -1 1 0 1 0 0 -1 1 0 2 0 1 -1 1 0 1 -1 1 0 0 0 1 -1 1 0 1 0 0 0 1 -1 1 0 1 0 0 -1 1 0 1 -1 1 0 1 0 0 0 1 0 0c-6,16 -12,30 -15,39 -12,34 -17,29 -44,31 -27,3 -311,29 -311,29l10 -21 -35 -17 -22 46 -240 23c-9,-37 -19,-82 -36,-138 -49,-172 23,-156 54,-210 30,-53 122,-73 145,-76 23,-4 119,-42 138,-73 19,-31 42,-65 137,-61 96,4 88,-57 88,-57 0,0 -34,-50 61,-92 96,-42 153,179 153,179l1 28z"/>
   </g>
   <g>
    <path class="fil6 str0" d="M10879 7267c33,2 120,2 106,83 -18,101 -72,103 -72,103 0,0 -131,13 -118,-69 6,-40 34,-118 84,-117z"/>
    <path class="fil6 str0" d="M10530 6967c14,79 10,147 -34,180 -43,33 -110,-8 -105,-75 5,-66 15,-167 15,-167 14,-28 36,-29 54,-26 32,6 61,39 70,88z"/>
    <path class="fil6 str0" d="M10140 8216c0,4 -1,10 -1,17 -20,-6 -22,24 -67,-4 -29,-18 -59,-26 -34,-57l85 -107 -22 -18c0,0 -66,86 -84,108 -18,22 -71,-6 -95,-28 -14,-13 -42,-28 -65,-40l22 -30 57 -54c0,0 87,-54 105,-120 18,-67 206,-178 219,-196 13,-18 43,-51 41,-67 -1,-5 -3,-25 -6,-48 20,2 35,2 40,-6 9,-16 23,-56 54,-87 32,-32 90,-44 95,-46 48,-18 108,-15 161,20 53,35 134,57 103,154 -31,98 -72,106 -72,106 0,0 -36,15 -18,59 18,44 -51,64 -51,64 0,0 -16,3 -16,16 0,13 -90,5 -90,5 0,0 -82,15 -30,85 51,69 74,74 30,123 -7,9 -139,11 -156,8 0,0 -183,-3 -205,143z"/>
    <path class="fil6 str0" d="M14382 7637c5,-4 74,-71 121,-6 46,64 -8,120 -29,141 -20,21 -69,57 -105,-10 -36,-67 8,-121 13,-125z"/>
   </g>
   <path class="fil7 str0" d="M9905 10349c2,0 2,3 0,7l96 100c0,0 58,16 103,13 45,-3 27,-1 27,-1l4 35 44 1 30 -68c0,0 14,0 14,5 0,4 -6,21 -6,21l11 0c0,0 -44,44 -28,68 17,24 32,22 56,11 23,-11 -2,13 55,18 58,6 88,39 88,39 0,0 6,52 54,75 48,24 96,68 102,73 7,6 13,0 28,-2 24,-2 30,7 36,16l32 -61c0,0 64,-153 -16,-210 -80,-58 -38,-126 -19,-126 19,0 69,-19 84,57 15,76 57,88 100,84 42,-4 53,-42 45,-80 -7,-38 -76,-96 -107,-96 -30,0 -72,-30 -72,-57 0,-2 0,-11 1,-20 -2,-1 -5,-1 -7,-1 -58,-9 -56,0 -90,-39 -16,-20 -126,-44 -140,-61 -1,-2 -8,-5 -14,-8 -11,-6 -33,-16 -53,-23l5 91c0,0 38,80 27,130 -12,49 -73,49 -104,19 -30,-31 -68,-115 -68,-115 0,0 -19,-49 -111,-49 -92,0 -115,-4 -103,-69 4,-22 5,-51 5,-75 -17,-4 -32,-7 -45,-11 -7,-1 -11,-5 -17,-6 -28,-6 -53,-7 -72,-9 19,41 70,155 64,223 -6,68 -30,93 -39,101z"/>
   <path class="fil7 str0" d="M10824 10945c-1,4 -3,18 -7,34 55,30 165,101 237,159 73,57 143,90 202,116 59,26 245,146 300,180 56,34 151,112 165,129 14,17 29,-89 29,-89l16 4c0,0 -36,67 -1,102 35,35 37,58 76,58 39,0 2,12 37,22 34,10 48,19 42,33 -7,14 53,30 100,55 33,17 106,55 150,77 0,-7 1,-14 0,-21l-18 -215c0,0 -23,-126 84,-145 107,-19 114,-96 103,-130 -12,-35 8,-92 69,-84 61,7 76,42 76,42 0,0 134,46 206,-8 73,-53 138,-7 161,31 7,12 37,73 90,106 91,55 213,174 74,241 -50,24 -160,-121 -179,-160 -20,-39 -88,-149 -203,-118 -115,30 -134,129 -134,129 0,0 -15,50 46,104 61,53 4,80 -27,64 -30,-15 -91,23 -84,73 6,38 -17,67 8,177 0,17 -6,46 -13,75 38,24 72,44 82,49 29,14 -3,11 29,35 33,25 44,44 66,37 22,-7 153,124 186,155 33,32 -7,16 52,76 59,59 106,103 106,103l-19 16 22 18c0,0 20,-11 20,-14 0,-3 51,63 61,81 10,18 39,27 56,1 15,-22 51,-56 41,-9 0,0 -25,52 -25,56 0,3 25,10 3,30 -22,21 5,47 28,87 23,41 32,54 36,79 4,25 22,43 32,29 10,-13 25,16 43,0 17,-16 17,-28 30,-16 12,12 -37,21 -25,42 12,20 -52,3 9,60 57,54 7,21 33,49 37,-8 70,-12 75,17 9,60 70,36 70,36 0,0 65,-6 86,35 21,41 96,17 96,17 0,0 18,-16 85,-21 66,-6 70,-104 70,-104 0,0 1,-48 29,-41 28,6 37,-10 36,-39 -1,-10 0,-25 -1,-40 -20,1 -55,-3 -58,-52 -4,-69 -15,-111 -15,-111 0,0 0,-42 -27,-50 -27,-7 -157,-103 -73,-168 45,-35 84,-72 117,-97 -1,-14 6,-22 13,-28 12,-10 19,-131 12,-146 -7,-15 -36,-44 -16,-71 2,0 4,-1 6,-2l13 -19c0,0 -19,-32 -39,-69 -20,-4 -36,-7 -45,-7 -34,0 -30,-80 -30,-80 0,0 -35,-80 -77,-69 -42,11 -65,-15 -76,76 -11,92 -23,218 -23,218 0,0 -42,164 -130,153 -88,-12 -95,-80 -95,-80 0,0 -8,-92 -77,-115 -68,-23 -30,-141 0,-172 31,-30 27,-114 61,-133 24,-13 44,-78 49,-146 -41,5 -54,-27 -82,-59 -17,-19 -85,-92 -151,-164 -43,-46 -83,-98 -115,-123 -13,-10 -35,-15 -43,-18 -8,-3 -49,1 -85,-49 -36,-51 -48,-84 -130,-127 -55,-28 -128,-51 -160,-79 -3,5 -5,7 -5,6 0,-4 -39,5 -17,-56 9,-26 -13,-30 -36,-39 -28,-10 -59,-21 -59,-21 -15,-6 -70,-33 -105,-52 -2,1 -4,2 -6,3l-227 14c0,0 -134,-30 -84,115 20,58 56,104 53,136 -8,66 -103,73 -130,-29 0,0 -53,-92 -122,-34 -69,57 -80,53 -80,3 0,-49 15,-129 -57,-129 -73,0 -62,30 -62,30 0,0 -19,42 -72,-4 -54,-46 -50,-71 -134,-46 -33,10 -52,35 -64,24 -14,-12 -16,-36 -16,-62 0,-26 46,-69 76,-69 31,0 103,-11 96,-72 -8,-61 -42,-77 -107,-92 -65,-15 -115,-46 -130,-103 -10,-37 -25,-86 -41,-120 -51,-8 -64,-6 -76,-3 0,1 -1,1 -2,1 -12,8 -14,3 -31,-2l-22 -7c-3,-1 -6,-2 -9,-3 -11,5 -18,8 -18,8 0,0 -107,53 -53,141 32,54 31,145 -46,142 -95,-4 -115,38 -115,38 0,0 -49,4 -42,187 1,6 1,12 2,17z"/>
   <path class="fil7 str0" d="M14507 11645c1,1 2,1 3,2 24,35 69,102 69,102 0,0 15,-8 37,-17 23,-10 18,-19 41,-8 23,10 57,17 60,29 2,12 18,15 17,6 0,-10 -1,-13 14,-13 16,0 102,-12 118,-12 16,1 31,-5 44,2 5,2 56,27 115,56 4,4 7,6 12,9 -17,19 -39,44 -62,74 -58,73 -130,19 -130,19 0,0 -46,-53 -80,-57 -35,-4 -39,50 -12,111 27,61 0,88 -95,88 -96,0 -165,-65 -207,-168 -42,-103 35,-226 35,-226l21 3z"/>
   <path class="fil7 str0" d="M15234 11903l2 -3 74 56 125 40c-2,74 -6,209 -4,287 4,111 -53,80 -53,80 0,0 -16,-16 -27,-33 -12,-17 -20,-35 -52,-40 -63,-9 -69,110 -69,161 0,52 -1,94 44,112 46,17 96,-68 96,-68 0,0 35,-93 121,-86 86,8 94,115 94,115 0,0 -14,58 34,41 48,-18 83,47 94,63 10,15 -60,87 -43,172 3,11 15,18 16,37 8,100 -86,113 -96,117 -9,4 -138,13 -245,-150 -107,-163 -252,-103 -234,18 3,25 3,62 24,90 61,82 55,289 55,289 0,0 -61,131 -132,123 -71,-8 -86,-27 -107,-138 -21,-111 -73,-63 -73,-63 0,0 -50,28 -71,-29 -21,-58 52,-131 54,-142 2,-12 -14,-63 -101,-83 -87,-19 -96,0 -98,52 -2,41 -6,106 -6,159 0,72 -14,117 -37,142l-1 0 -10 -6c-6,-4 -215,-178 -215,-178 0,0 -67,-69 -67,-72 0,-1 -5,-24 -11,-51 14,-34 32,-60 45,-65 26,-9 68,-78 76,-96 8,-17 -11,-166 -34,-186 -23,-19 -27,-74 -4,-103 23,-29 -4,-92 4,-129 7,-36 -71,-168 -71,-168 0,0 -37,-98 71,-98 107,0 134,100 134,100 0,0 14,39 37,59 10,9 15,13 33,10 60,-11 28,-47 83,-81 105,-65 106,74 153,88 22,7 49,0 63,-37 28,-78 13,-166 100,-220 15,-9 49,6 76,62 27,55 67,34 115,21 45,-13 39,-150 38,-169z"/>
  </g>
  <g id="_1431685072">
   <g id="海岸线_x0020_副本">
    <polygon class="fil0 str1" points="10029,9388 9934,9532 10110,9712 10291,9866 10388,9763 10238,9483 "/>
    <path class="fil0 str1" d="M14000 11621c-56,8 -50,-3 -43,52l9 10 40 48 20 88c0,0 94,126 100,143 7,18 12,17 -9,30 -22,13 -22,0 -15,73 6,73 15,152 14,176 -1,23 11,24 37,20 27,-4 -11,16 -29,18 -17,1 1,61 -1,88 -1,27 79,387 90,393 11,5 77,45 77,45 0,0 36,158 36,161 0,3 67,72 67,72 0,0 209,174 215,178l132 82 62 -13 7 19 -38 10c-3,1 -38,59 -39,65 0,5 100,62 122,77 39,27 65,27 89,-4 13,-17 11,-17 30,-3l65 48 9 17 27 18 15 0c0,0 31,45 36,51 5,7 8,21 45,-10 38,-31 189,-149 198,-161 9,-12 10,1 25,-40 15,-41 58,-138 65,-160 8,-22 3,-12 31,-30 29,-19 96,-56 102,-66 12,-21 -14,-4 23,-60 45,-70 119,-228 176,-283 6,-7 13,-21 15,-31 4,-30 20,-86 2,-112 -18,-24 -30,-81 7,-110 15,-12 17,-11 -27,-45 -20,-47 -60,-207 -82,-232 -18,-20 -16,-60 -16,-92l-89 -102 -290 -93 -93 -70c0,0 -294,-144 -307,-150 -13,-7 -28,-1 -44,-2 -16,0 -102,12 -118,12 -15,0 -14,3 -14,13 1,9 -15,6 -17,-6 -3,-12 -37,-19 -60,-29 -23,-11 -18,-2 -41,8 -22,9 -38,17 -38,17 0,0 -81,-124 -84,-124l-418 -50 -37 20c6,46 9,37 -39,26z"/>
    <path class="fil0 str1" d="M15871 9938c0,0 -54,132 -66,166 -12,34 -17,29 -44,31 -27,3 -311,29 -311,29l10 -21 -35 -17 -22 46 -367 35 -325 6 -17 -52 -22 5 -89 -53 -51 0 -342 -162c0,0 -82,-58 -80,-64l20 -46 -347 -235c-52,-35 -40,-20 -14,-104 25,-84 82,-149 82,-149 0,0 -18,-16 -18,-13 0,3 -71,111 -71,111l-34 -11c0,0 -96,136 -96,143 0,8 -262,-168 -262,-168l-58 -9 -212 -120 33 -42c0,0 -20,-10 -20,-13 0,-2 -8,12 -8,12l-17 -1 -202 -51 -61 -25c0,0 -149,-102 -149,-106 0,-4 -17,-31 -17,-31l-288 -180 -14 21c0,0 -201,-101 -213,-120 -12,-19 -7,-18 -59,-27 -51,-8 -257,-96 -273,-108 -15,-12 -15,-11 -20,-7 -5,4 -8,13 -27,-8 -19,-21 -72,-42 -108,-48 -36,-6 -83,-34 -125,-44 -42,-11 -138,-37 -178,-51 -41,-13 -40,-32 -53,-7 -12,24 -15,30 -51,14 -46,-21 40,-61 11,-81 -16,-11 -25,5 -46,35 -18,25 -44,9 -44,37 0,5 -207,-49 -207,-49l11 -19 -49 -33 -65 -15c-1,12 -2,14 -4,28 -8,0 -21,-5 -31,-8 -34,-8 -30,-13 -62,0 -40,17 -109,10 -165,11 -55,1 -45,-12 -79,-33 -34,-21 -29,-24 -63,-7 -51,26 -40,35 -84,-3 -43,-38 -44,-30 -130,-48 -87,-18 -63,-17 -93,-40 -31,-23 -26,22 -78,-10 -29,-18 -59,-26 -34,-57l85 -107 -22 -18c0,0 -66,86 -84,108 -18,22 -71,-6 -95,-28 -24,-22 -92,-52 -97,-57 -5,-5 -24,-34 -69,-23 -45,12 -81,-24 -81,-24l-29 -25 14 -43c0,0 -50,-16 -50,-13 0,4 -8,14 -8,14l26 16 -12 26 -95 -34 -53 -42 -30 -17 3 -24c0,0 13,7 -81,-40 -94,-47 -110,-55 -106,-63 15,-29 -6,-16 -13,-39 -8,-23 -53,-5 -53,-22 0,-17 10,-42 0,-51 -11,-8 -11,-18 -21,6 -9,23 2,20 2,20 0,0 0,5 -10,42 -9,36 -1,38 -46,17 -45,-21 -345,-199 -377,-212 -31,-13 -19,-19 -4,-47 15,-27 19,-43 14,-50 -5,-6 -23,-5 -42,-1 -18,3 -12,4 -32,-8 -21,-13 -142,-91 -142,-91 0,0 -20,-6 -31,-3 -11,4 -40,-15 -49,-28 -8,-12 -13,-4 -34,-7 -21,-4 -17,-36 -7,-62 9,-25 -10,-16 -10,-16l-17 39 -19 -12 -10 -24c0,0 -199,-109 -199,-113 0,-3 11,-20 11,-20l-63 -10 -122 -69 10 -34c0,0 -16,-21 -54,-28 -38,-8 -165,-78 -165,-78l-57 -24c0,0 -31,11 -31,7 0,-3 -30,-36 -50,-56 -12,-12 -14,-19 -13,-22 2,-15 -10,-11 -15,-4 -11,17 1,8 -30,9 -40,1 -59,-21 -59,-21l-66 -18 -15 25 -73 -17c0,0 -416,-207 -432,-218 -16,-11 -20,-35 -20,-35 0,0 -40,-15 -80,-35 -41,-20 -24,5 -40,10 -16,6 -35,-21 -50,-23 -15,-1 -53,-31 -59,-45 -5,-15 -100,-114 -100,-114l-22 12c-17,-19 -35,-38 -53,-57 -48,8 -45,7 -93,-4 -59,-30 -69,-35 -78,-47 -29,-36 -35,-26 -72,-25 -28,-3 -124,-55 -134,-64 -20,-17 -104,-37 -170,-51 -56,-13 -109,-23 -148,-30 -60,-10 -34,-4 -80,-33 -44,-28 -108,-54 -129,-86 -22,-32 -22,-7 -34,-30 -14,-25 1,-35 1,-35l26 -45 -10 -6 -16 17 -31 30 -43 -42 -6 -55 16 -13c-50,-49 -167,-132 -264,-173 -66,-27 -90,-21 -163,-58 -32,-15 -78,-38 -110,-54 -4,-3 -274,-226 -265,-234 10,-9 21,-22 19,-23 -30,-15 -124,-86 -140,-118l-17 21 -33 -28c-61,-46 -137,-100 -199,-148 -49,-38 33,-12 -26,-81 -50,-58 -144,-224 -275,-318 0,0 -116,-164 -139,-192 -19,-22 -44,-75 -28,-104 7,-12 37,-65 37,-65l-67 -50c0,0 -4,-13 -63,63 -78,100 -121,99 -238,80 -66,-12 -588,-237 -588,-237 0,0 -5,-6 -14,-17 -16,-21 -44,-58 -66,-93 -24,-37 -38,-72 -41,-78 -9,-15 -23,-47 -23,-47 0,0 -33,-47 -26,-52 15,-9 42,-25 60,-33 33,-15 70,-27 109,-35 92,-19 187,-23 224,-22 62,2 66,2 66,2 -8,-41 -12,-99 -69,-67l-60 -81 -33 -21 -146 4 -633 -139 -44 -66 9 -106 -27 -3c0,0 -3,24 -3,38 -1,13 -4,33 -15,19 -45,-63 -293,-441 -325,-490l30 4 3 -22 -53 -11 -74 -110c-8,4 -15,8 -23,13 -109,-66 -226,-211 -313,-307 -9,-10 -145,-229 -165,-258 -19,-29 -16,-29 -8,-39 24,-33 41,-78 54,-99 5,-8 46,-51 75,-75 157,-127 299,-277 427,-380 24,-20 85,-66 91,-74 6,-7 114,-84 114,-84l-11 -21 275 -213c0,0 9,-32 26,-45 26,-21 119,-86 148,-95l20 59 23 -19c0,0 -2,-25 -2,-40 0,-15 -10,-27 33,-50l765 -413c111,-61 261,-111 380,-164 63,-27 131,-41 197,-61 76,9 152,19 228,28l402 216 58 115c0,0 18,11 38,14 20,4 24,14 20,35 -9,47 -5,43 6,46 47,13 11,-90 17,-131 2,-9 86,24 109,29 6,1 255,171 297,200 42,29 117,71 143,76 27,5 70,46 111,85 40,38 44,40 44,40l-9 51 23 5 9 -24c130,80 163,99 277,187 32,-27 30,-17 73,-4 31,13 61,21 86,43l21 -18 37 8 241 108c0,0 33,5 47,2 14,-3 38,12 50,28 13,17 21,21 21,21l37 -32c0,0 22,5 47,8 25,2 104,5 119,8 15,3 170,38 224,62 53,23 234,123 331,184 187,117 375,240 558,364 68,47 192,125 321,211 215,143 445,300 461,312 24,17 775,555 796,563 21,9 232,164 247,176 14,11 138,68 161,80 23,12 373,232 430,284 62,56 216,143 296,227 81,85 234,203 249,221 15,18 13,29 0,34 -13,6 6,34 6,34 0,0 43,-10 81,18 38,29 489,353 505,375 16,21 73,102 62,136 -4,13 18,19 34,35 28,28 61,68 87,94 15,15 287,151 317,161 67,22 343,90 385,102 42,12 43,10 21,48 -22,38 -287,497 -294,532 -7,35 41,29 41,29 0,0 60,-91 65,-97 4,-6 3,-12 26,-1 193,96 655,243 847,281 35,7 67,18 67,18l108 51 441 68 491 232c0,0 11,4 -2,26 -9,14 25,19 35,1 65,-108 48,-178 214,-164l658 58c137,12 241,3 179,140l-132 296 33 13 13 -29 60 7 2 -41 -21 -12 141 -354c22,-57 28,-96 98,-93 49,3 110,5 133,6 126,5 340,69 464,117 90,34 181,89 252,155 59,55 129,129 128,157 -1,47 -11,30 -11,30 75,67 150,133 225,199 25,28 18,27 18,65l35 -8c11,-3 17,-8 28,9 106,160 206,199 348,319 101,85 193,163 209,177 40,33 403,358 403,358l245 273 132 204 107 275c23,62 27,94 26,137 -2,66 -8,166 -11,222 -3,65 11,83 -77,54 -88,-29 -554,-168 -554,-168l-114 298 -176 358c0,0 -252,229 -324,290 -31,26 -24,22 2,40 23,16 52,38 57,40 9,4 16,10 -3,22l-239 155 -253 121 -274 -15z"/>
    <path class="fil0 str2" d="M13887 12863c0,0 0,1 0,0 0,0 0,0 0,0zm-4960 -3842c-151,-17 -243,-43 -364,-43 -122,0 -296,-25 -317,69 -28,124 102,219 311,324 209,104 160,58 261,148 101,90 199,147 268,238 68,91 211,278 315,347 103,69 153,108 153,131 0,23 26,-6 45,51 9,27 51,13 86,16 40,3 73,23 84,28 26,13 -15,41 73,25 20,-3 36,-5 57,-5l102 106c0,0 58,16 103,13 45,-3 27,-1 27,-1l4 35 44 1 30 -68c0,0 14,0 14,5 0,4 -6,21 -6,21l11 0c0,0 -44,44 -28,68 17,24 32,22 56,11 23,-11 -2,13 55,18 58,6 88,39 88,39 0,0 6,52 54,75 48,24 96,68 102,73 6,6 -30,9 2,34 32,24 107,105 131,81 25,-24 55,43 97,71 41,29 -24,17 31,47 55,29 166,101 238,159 73,57 143,90 202,116 59,26 245,146 300,180 56,34 151,112 165,129 14,17 29,-89 29,-89l16 4c0,0 -36,67 -1,102 35,35 37,58 76,58 39,0 2,12 37,22 34,10 48,19 42,33 -7,14 53,30 100,55 47,24 173,89 183,95 11,6 20,14 33,7 13,-7 34,14 37,27 3,14 209,144 238,158 29,14 -3,11 29,35 33,25 44,44 66,37 22,-7 153,124 186,155 33,32 -7,16 52,76 59,59 106,103 106,103l-19 16 22 18c0,0 20,-11 20,-14 0,-3 51,63 61,81 10,18 39,27 56,1 15,-22 51,-56 41,-9 0,0 -25,52 -25,56 0,3 25,10 3,30 -22,21 5,47 28,87 23,41 32,54 36,79 4,25 22,43 32,29 10,-13 25,16 43,0 17,-16 17,-28 30,-16 12,12 -37,21 -25,42 12,20 -52,3 9,60 60,57 1,16 38,54 37,38 54,77 77,75 22,-2 10,8 68,25 58,17 142,51 201,56 60,4 3,12 144,63 141,51 127,77 162,51 35,-26 -41,-115 -41,-245 0,-122 -21,-121 -24,-117 1,-6 8,-47 0,-115 -10,-76 -1,-187 -23,-197 -21,-9 -18,-26 5,-26 23,0 -19,-84 -12,-169 6,-86 0,-256 0,-256l-67 -1 23 -33c0,0 -74,-128 -89,-161 -15,-34 -22,-96 -40,-107 3,-31 -28,-97 -45,-130 -16,-33 -100,-149 -137,-183 -36,-34 -68,-63 -140,-102 -72,-40 -486,-297 -521,-323 -34,-27 -211,-92 -211,-92 0,0 -30,-20 -41,10 -12,30 -29,55 -29,51 0,-4 -39,5 -17,-56 9,-26 -13,-30 -36,-39 -28,-10 -59,-21 -59,-21 -21,-8 -120,-58 -133,-68 -13,-10 -49,-32 -66,-32 -17,0 -25,-7 -63,-21 -38,-15 -35,-13 -90,-26 -56,-13 -321,-124 -370,-143 -49,-19 -75,-25 -100,-46 -25,-20 -25,-18 -89,-39 -64,-22 -70,-15 -77,-33 -7,-18 9,-15 -49,-31 -57,-17 -157,-54 -189,-55 -32,-1 -46,-7 -61,3 -15,11 -16,6 -34,0 -19,-6 -78,-25 -106,-34 -27,-10 -26,-14 -54,-10 -28,3 -66,-28 -134,-58 -69,-30 -127,-64 -173,-70 -58,-9 -56,0 -90,-39 -16,-20 -126,-44 -140,-61 -1,-2 -8,-5 -14,-8 -12,-6 -36,-18 -58,-25 -58,-18 -143,-29 -168,-25 -13,3 -30,-7 -53,-13 -51,-11 -123,-27 -168,-39 -7,-1 -11,-5 -17,-6 -43,-9 -79,-6 -99,-13 -37,-35 -148,-76 -217,-100 -14,-29 -27,-78 -69,-141 -14,-22 -34,-42 -53,-68 -75,-101 -111,-119 -144,-307 -10,-58 -37,-103 -60,-136 -66,-94 -163,-98 -223,-103 -80,-7 -141,-17 -141,-20 0,-3 12,-52 18,-91 2,-11 2,-21 1,-30 -3,-3 -11,-5 -38,-4z"/>
   </g>
   <g id="次干_x0020_副本">
    <path class="fil0 str3" d="M2517 960l20 149 41 350 -4 89 53 376 -51 81c0,0 -260,404 -260,406 0,2 -71,750 -71,750"/>
    <polyline class="fil0 str3" points="3411,960 3413,1374 3416,1768 3242,2964 "/>
    <path class="fil0 str3" d="M4652 675c0,0 -42,178 -44,183l-110 383 -157 440 -51 324c-33,101 -77,166 -159,360 -73,173 -140,345 -140,345l-95 156 -39 162 -41 142 -123 403"/>
    <path class="fil0 str3" d="M6259 1374c313,323 680,556 680,556l469 262c0,0 123,70 162,103"/>
    <path class="fil0 str3" d="M5590 5798c62,-132 50,-121 66,-155 15,-35 41,-93 55,-104 63,-46 118,-112 154,-152 33,-38 46,-46 92,-71 20,-12 81,-43 96,-88 15,-46 28,-87 28,-87l56 -169 30 -86 71 -203 46 -128c0,0 1,-44 2,-74 2,-114 -1,-179 31,-298 9,-32 30,-61 47,-95 22,-43 34,-83 33,-137 -2,-43 -8,-42 21,-94 22,-40 34,-73 46,-96 15,-30 43,-85 65,-114 16,-20 37,-39 42,-42 7,-5 14,-155 14,-161 0,-204 152,-257 268,-386"/>
    <path class="fil0 str3" d="M6926 6506c75,-125 155,-237 232,-349 15,-22 29,-47 44,-70 46,-69 92,-137 139,-207l176 -233 58 -198 61 -331 83 -434 89 -458 63 -311 48 -260 18 -76 7 -146c4,-80 45,-118 50,-197 6,-117 186,-381 350,-570"/>
    <path class="fil8 str3" d="M9180 3805c0,2 68,-85 68,-82 0,1 66,37 187,89 106,46 260,104 386,170 260,136 488,299 520,324 67,51 76,63 131,-11 45,-61 71,-96 80,-115 16,-35 58,-14 36,-10 -19,3 -27,23 -33,40 -17,44 -22,42 -48,80 -22,32 -74,72 -34,118 40,47 247,223 357,274 73,34 100,52 115,61 18,10 12,19 -3,41 -21,34 -64,80 -78,98 0,0 -9,30 -66,-12 -58,-43 -276,-173 -310,-213 -35,-39 -110,-89 -143,-139 -32,-50 -491,-406 -757,-514 -266,-108 -408,-199 -408,-199z"/>
    <path class="fil0 str3" d="M7615 6772l323 -538c0,0 62,-58 79,-147 17,-89 74,-450 74,-450l101 -605 79 -488 111 -721"/>
    <line class="fil0 str3" x1="8356" y1="3991" x2="9081" y2= "4247" />
    <path class="fil0 str3" d="M10073 5090l-77 214 -16 248 -18 68 -10 58 -36 73c-12,40 -25,79 -37,119 -3,6 -7,26 -9,36 -7,39 -13,80 -20,128l-46 308 -77 530 -48 333"/>
    <path class="fil0 str3" d="M10541 5301c0,0 -43,133 -44,137 -2,5 -2,13 -6,26 -4,13 -35,120 -42,132 -7,12 -57,94 -63,105 -7,11 -85,80 -91,84 -6,5 -6,4 -9,23 -3,18 -18,129 -20,137 -2,9 -11,88 -14,106 -2,18 -32,199 -36,216 -4,17 -28,163 -30,173 -1,11 -20,102 -22,112 -3,11 -13,12 -17,43 -3,31 -8,71 -8,98 0,28 -16,169 -17,176 -2,8 -47,366 -49,388 -2,22 5,15 -44,114"/>
    <path class="fil0 str3" d="M13121 6424c0,0 -172,299 -172,301 0,2 -73,111 -85,135 -7,14 -139,212 -297,461 -145,228 -313,493 -429,679 -41,65 -76,119 -100,160 -25,42 -39,71 -42,77 -26,46 -69,110 -79,127 -10,18 -66,84 -87,131 -22,48 -27,65 -34,109"/>
    <line class="fil0 str3" x1="9387" y1="7066" x2="9181" y2= "7660" />
    <path class="fil0 str3" d="M13956 6929c202,118 326,182 498,267"/>
    <path class="fil0 str3" d="M13331 8937c-103,167 -188,278 -208,301"/>
    <line class="fil0 str3" x1="13741" y1="8304" x2="14294" y2= "8639" />
    <path class="fil0 str3" d="M15121 13312c0,0 12,29 15,36 3,6 3,11 18,0 15,-10 37,-19 48,-20 11,0 15,-3 22,-12 7,-8 9,-9 20,-10 12,-1 11,-4 15,13 5,17 11,40 13,46 3,7 3,15 1,23 -3,8 -2,17 8,24 10,7 26,13 34,24"/>
    <path class="fil8 str3" d="M2822 3741c23,-32 73,-48 145,-48 101,0 287,66 363,187 76,120 216,200 254,228 38,28 42,67 60,97 15,23 20,23 31,27 14,4 27,-9 39,-19 18,-16 31,-34 31,-34 0,0 -17,-26 -58,-60 -22,-18 -109,-119 -199,-207 -81,-78 -165,-143 -187,-158 -72,-48 -64,-54 -121,-53 -20,0 -45,-9 -81,-18 -63,-16 -220,-26 -301,51 18,31 16,18 24,7z"/>
    <polyline class="fil0 str3" points="3360,969 3388,642 3416,552 "/>
    <polyline class="fil0 str3" points="3360,3373 3571,3255 3871,1053 4002,502 "/>
    <line class="fil0 str3" x1="5767" y1="1559" x2="5832" y2= "1350" />
    <polyline class="fil0 str3" points="5914,1596 5477,2333 5336,2308 5062,2883 4397,4000 4032,4518 "/>
    <path class="fil0 str3" d="M7197 2256c-83,179 -364,441 -477,681"/>
    <path class="fil0 str3" d="M8570 2814c-27,236 -40,319 -152,485 -112,166 -152,245 -187,441"/>
    <path class="fil0 str3" d="M9828 4183c-56,92 -168,267 -168,267 0,0 -37,248 -52,339l-135 791c0,0 0,14 -12,34 -12,21 -20,51 -28,76 -9,25 -60,339 -60,339l-38 210c0,0 -43,263 -43,265 0,1 -15,64 -30,139 -23,111 -43,220 -69,330"/>
    <path class="fil0 str3" d="M10533 4694c0,0 -97,14 -99,86 -3,72 -9,119 -65,112 -56,-6 -24,77 -131,282"/>
    <path class="fil0 str3" d="M11149 4554c-60,130 -38,119 -175,269 -136,150 -376,493 -376,493"/>
    <path class="fil0 str3" d="M12462 5806c-48,182 -319,489 -366,504 -47,16 -104,42 -66,67 15,9 -24,52 -34,65 -18,22 -1142,1762 -1181,1837"/>
    <path class="fil0 str3" d="M13067 6375c0,0 122,-194 138,-212"/>
    <path class="fil0 str3" d="M12631 9012c9,-10 17,-25 22,-35 13,-22 -1,-9 7,-25 3,-7 8,-15 19,-31 38,-51 183,-281 183,-281l321 -506 801 -1248 296 -458"/>
    <line class="fil0 str3" x1="13981" y1="9144" x2="13843" y2= "9346" />
    <path class="fil0 str3" d="M15697 6705c-83,194 -124,489 -235,604 -64,66 -138,107 -171,151 -30,39 -30,69 -79,93 -103,52 -175,135 -211,193 -36,59 -70,152 -123,111 -46,-34 -54,-14 -126,98 -121,189 -241,385 -373,569"/>
    <path class="fil0 str3" d="M15550 9291c24,-18 64,-125 34,-199 -13,-32 -30,-32 -53,-77 -25,-48 53,-144 85,-259 22,-82 36,-166 34,-224 0,-24 0,-16 -16,-31 -48,-48 34,-58 41,-96 17,-88 88,-535 61,-577 -30,-47 -70,-184 -101,-179 -32,4 -57,-8 -90,-75 -32,-68 -139,-107 -212,-156"/>
    <path class="fil0 str3" d="M15475 9253c-36,42 -58,136 -53,158 4,23 -7,52 -72,70 -65,18 -194,129 -221,175"/>
    <polygon class="fil8 str3" points="3014,2924 3061,3028 3042,3073 3012,3081 3000,3139 3003,3340 2957,3337 2932,3454 3081,3451 3139,3325 3176,3150 3179,3040 3149,2948 "/>
    <path class="fil0 str3" d="M11758 11476c17,-56 21,-161 -19,-222 -18,-28 -24,-67 -20,-111 14,-129 14,-256 0,-380 -18,-164 -171,-195 -303,-251 -132,-57 -153,-95 -261,-73 -108,22 -72,-36 -163,-38 -139,-4 -231,-132 -339,-136 -108,-5 -62,-22 -205,-88 -144,-66 -127,-76 -239,-76 -112,0 -128,7 -169,-18 -42,-25 -78,-46 -161,-47 -83,-1 -64,-12 -167,-60 -103,-47 -85,-11 -146,3 -60,13 -65,11 -58,78 7,68 107,117 157,117 49,0 177,-21 273,27 77,38 119,47 231,82 71,22 -5,92 143,171 149,79 290,103 371,181 94,92 335,301 445,321 55,11 131,5 187,8 54,2 93,10 182,60 121,67 267,58 330,44 63,-13 130,-14 129,33 -1,85 252,168 252,168 0,0 171,-17 243,10 71,27 480,202 511,220 32,18 44,33 44,62 0,23 16,32 34,35 5,1 10,1 14,1 22,-1 14,18 47,81 33,63 30,97 72,93 42,-4 44,26 85,146 23,63 39,27 74,59 90,82 250,175 256,208 13,71 214,278 210,301 -14,170 -35,279 -64,335l-35 -20"/>
    <path class="fil0 str3" d="M9568 10139c0,0 -35,78 34,83"/>
    <polyline class="fil0 str3" points="10707,10857 10749,10819 10777,10836 10739,10887 "/>
    <line class="fil0 str3" x1="10749" y1="10819" x2="11044" y2= "10413" />
    <path class="fil0 str3" d="M11703 10700c131,-15 136,7 259,41 122,33 166,13 177,87 11,74 24,57 72,68 47,11 215,94 289,125 74,32 256,88 319,180 62,92 62,85 110,85 47,0 38,18 107,85 70,68 243,240 267,315 25,74 38,58 95,76 56,18 228,128 273,199 45,72 144,178 135,247 -9,70 -1,86 -32,108 -30,22 -34,69 -22,101"/>
    <path class="fil0 str3" d="M11758 11294c66,-2 124,-10 243,17 119,27 248,23 257,175 43,48 51,38 106,91 55,52 197,176 264,196 67,20 656,528 674,551 10,29 33,135 154,243 120,109 239,175 253,265 13,90 55,269 99,349"/>
    <line class="fil0 str3" x1="13302" y1="12324" x2="13163" y2= "12482" />
    <path class="fil0 str3" d="M13246 12273c0,0 165,-329 174,-350 9,-20 146,-125 177,-143"/>
    <path class="fil0 str3" d="M11827 11068c0,0 117,40 153,80"/>
    <line class="fil0 str3" x1="13766" y1="13077" x2="13923" y2= "13073" />
    <path class="fil0 str3" d="M12367 11265c2,-159 13,-178 125,-337"/>
    <polyline class="fil0 str3" points="14734,11759 14758,12164 14794,12301 14936,12875 15038,13237 "/>
    <line class="fil0 str3" x1="14806" y1="13294" x2="15591" y2= "13101" />
    <polyline class="fil0 str3" points="15084,13226 15129,13436 15217,13535 "/>
    <path class="fil0 str3" d="M14204 12737c102,-1 147,-17 221,-53 74,-35 61,-44 198,-56 136,-11 253,-65 419,-56 95,5 207,-2 286,6 59,6 64,11 101,46 34,32 90,64 138,97 74,51 141,99 186,102"/>
    <path class="fil0 str3" d="M14130 12300c141,2 62,-48 85,-47 179,9 319,-28 387,-35 81,-9 183,-36 230,-4 47,33 69,27 162,33 94,5 228,0 298,0 69,0 55,-2 91,-58 35,-56 134,-167 134,-167"/>
    <path class="fil0 str3" d="M15787 12475c-96,176 -97,192 23,227"/>
    <path class="fil0 str3" d="M14737 11802c-29,-6 -50,-13 -69,-30 -19,-16 -101,1 -101,1l-82 -116 -407 -56 -7 232c0,0 57,65 80,86 22,22 21,63 -6,77 -27,13 -36,6 -31,62 2,31 2,147 15,195 54,2 86,0 86,0"/>
    <path class="fil0 str3" d="M14130 12300c16,143 31,285 90,437"/>
    <path class="fil0 str3" d="M14278 12733c5,49 8,56 12,72 4,16 25,109 36,161 117,141 351,299 414,333 9,-6 47,-12 62,-14"/>
    <path class="fil0 str3" d="M14737 11802c37,-1 2,-42 65,-42 62,0 91,-19 146,16 54,35 295,150 336,185 42,35 172,58 220,75 48,18 59,9 115,65 57,56 51,52 59,119 7,64 74,147 92,286"/>
    <path class="fil0 str3" d="M15790 12696c-2,42 6,48 -41,112 -77,104 -126,210 -189,315l-107 64 -85 210 -215 183c-11,8 -18,6 -24,-2 -8,-11 -21,-27 -35,-41 -19,-19 -9,19 -67,-48 7,-61 -62,-109 -113,-120 -50,-11 -66,-14 -105,-65"/>
    <path class="fil0 str3" d="M15773 12502c-11,137 54,152 17,194"/>
    <path class="fil0 str3" d="M13975 9153c0,0 0,0 0,0l209 -305 110 -209c30,-39 59,-78 87,-118 440,318 926,702 1436,884"/>
   </g>
   <g id="主干_x0020_副本">
    <path class="fil0 str4" d="M2059 2745c-42,-45 -84,-90 -126,-135 -5,-4 -10,-16 -9,-32 7,-88 17,-215 20,-251 10,-110 19,-220 28,-330 4,-49 8,-98 12,-147 3,-35 0,-39 -3,-75 -5,-54 -19,-146 -22,-182 -4,-53 -28,-123 57,-175 51,-32 107,-74 163,-114 103,-73 198,-142 211,-153 30,-25 75,-33 147,-42 72,-8 874,-149 874,-149l451 90 636 191 1416 355 189 272 236 495 112 224c29,59 38,72 81,123 60,72 148,197 230,267 26,22 94,106 152,101 36,-2 64,1 125,27 113,49 532,222 532,222 0,0 141,53 153,66 12,12 227,198 245,215 19,17 58,34 96,51 39,17 219,108 254,125 34,18 63,36 122,86 60,50 99,114 197,105 97,-9 88,-21 187,15 99,37 203,78 229,86 26,8 45,7 105,67 61,61 158,145 194,180 37,35 68,52 110,172 41,119 44,185 124,271 80,87 52,69 107,103 54,34 450,269 530,299 81,31 264,122 320,134 56,11 338,103 356,108 17,4 54,17 131,57 77,39 151,68 151,68 0,0 19,25 63,44 44,19 113,54 178,86 66,33 68,53 171,46 103,-7 153,-3 202,-2 48,1 237,85 368,149 131,63 225,115 323,171 98,57 116,95 184,119 41,14 132,53 233,112 68,39 152,101 196,144 76,74 149,114 221,159 87,54 161,101 209,131 87,56 68,58 156,75 88,18 174,67 222,86 49,19 527,219 573,231 46,11 83,16 161,14 79,-2 222,11 290,15 67,5 42,-9 183,49 142,58 318,125 385,154 67,29 149,87 210,86l164 -2 456 -4"/>
    <path class="fil0 str4" d="M1920 2721l813 153c0,0 453,80 509,90 -6,45 -18,128 -24,172 -2,17 -1,16 -7,36l-28 94 1214 734c157,95 321,193 325,197 5,3 68,46 84,59 16,13 83,55 111,85 29,30 93,91 93,91 0,0 39,41 69,63 29,21 343,249 365,264 23,16 605,359 639,383 34,23 1465,857 1492,877 27,20 1448,854 1448,854 0,0 132,80 173,102 27,13 502,239 864,411 217,103 393,187 409,195 20,10 61,29 103,50 46,24 93,52 123,68 27,15 97,54 168,93 78,43 156,85 178,99 16,10 21,14 67,31 10,4 79,30 180,66 145,51 356,127 559,197 295,103 571,197 593,202 31,6 38,23 94,55 23,13 169,99 328,198 219,136 202,134 471,298 22,-35 45,-74 70,-113 0,0 155,95 232,137 39,22 129,74 214,121 46,26 91,51 126,70"/>
    <polyline class="fil0 str4" points="15443,10134 15880,9283 16337,8305 16328,6986 "/>
    <path class="fil0 str4" d="M5376 1028l-82 412 -93 230 -117 257 -113 300 -6 22c0,0 -842,1524 -842,1526 0,2 -27,43 -27,43l-230 312"/>
    <polyline class="fil0 str4" points="6717,1774 6653,1869 6026,2869 5759,3270 5479,3692 5422,3776 5293,3982 5015,4432 4769,4768 4537,5069 "/>
    <path class="fil0 str4" d="M7564 2290c-33,41 -132,160 -197,245 -53,62 -52,65 -57,81 -8,27 -17,68 -21,87l-127 454 -636 2246 -218 773"/>
    <path class="fil0 str4" d="M9429 3258c-60,106 -73,146 -76,223 -5,187 -195,286 -214,419l-27 201 -7 -4 -42 261 -13 95 -37 238 -35 195 -27 167 -35 200 -52 283 -34 181 -23 142 -10 41 -17 112 -10 61 -27 164c-11,68 -26,125 -40,188l-52 229 -95 221 -148 350"/>
    <path class="fil0 str4" d="M11695 5707c-298,475 -594,951 -894,1424 -58,92 -322,434 -332,450 -10,16 -246,317 -358,474"/>
    <path class="fil0 str4" d="M11262 8384c29,-45 97,-160 175,-284 143,-228 315,-498 317,-502l189 -299 100 -160 160 -246 22 -29c0,0 88,-130 153,-226 37,-55 63,-100 63,-102 0,-3 91,-201 91,-204 0,-3 96,-204 96,-204 32,-83 160,-238 190,-260"/>
    <path class="fil0 str4" d="M13831 6239c0,0 -6,33 -24,58 -39,51 -66,105 -99,155 -20,29 -165,251 -165,251 0,0 -97,150 -97,155 0,5 -55,85 -114,175 -62,95 -129,200 -149,232 -98,152 -204,321 -289,452 -77,119 -133,210 -147,231 -27,41 -159,246 -284,447 -39,64 -75,128 -110,186 -59,99 -108,180 -130,219"/>
    <path class="fil0 str4" d="M14786 6562c-87,179 -177,354 -266,532 -3,7 -74,113 -180,277 -195,304 -513,802 -776,1207 -57,88 -111,170 -161,247"/>
    <path class="fil0 str5" d="M15754 9528c-87,-77 -114,-46 -174,-9l-153 93c-80,49 -94,58 -198,56 -105,-2 -120,-9 -188,-93 -67,-84 -151,-71 -221,-26 -69,45 -153,44 -233,-7l-559 -358c-10,-7 -29,-18 -53,-31"/>
   </g>
   <g style="clip-path:url(#id0)">
    <polygon id="江苏省遮罩" class="fil9" points="5945,1247 10538,1247 10538,4086 5945,4086 "/>
   </g>
   <g style="clip-path:url(#id1)">
    <g>
     <line id="1" class="fil0 str6" x1="9650" y1="1250" x2="5208" y2= "1250" />
     <g>
      <path class="fil0 str6" d="M9699 1298c-1480,0 -2961,0 -4442,0"/>
      <path class="fil0 str6" d="M9749 1346c-1481,0 -2962,0 -4443,0"/>
      <path class="fil0 str6" d="M9798 1394c-1481,0 -2962,0 -4443,0"/>
      <path class="fil0 str6" d="M9847 1442c-1481,0 -2961,0 -4442,0"/>
      <path class="fil0 str6" d="M9896 1490c-1480,0 -2961,0 -4442,0"/>
      <path class="fil0 str6" d="M9946 1538c-1481,0 -2962,0 -4443,0"/>
      <path class="fil0 str6" d="M9995 1586c-1481,0 -2962,0 -4443,0"/>
      <path class="fil0 str6" d="M10044 1634c-1481,0 -2961,0 -4442,0"/>
      <path class="fil0 str6" d="M10093 1682c-1480,0 -2961,0 -4442,0"/>
      <path class="fil0 str6" d="M10143 1730c-1481,0 -2962,0 -4443,0"/>
      <path class="fil0 str6" d="M10192 1778c-1481,0 -2962,0 -4442,0"/>
      <path class="fil0 str6" d="M10241 1826c-1481,0 -2961,0 -4442,0"/>
      <path class="fil0 str6" d="M10290 1874c-1480,0 -2961,0 -4442,0"/>
      <path class="fil0 str6" d="M10340 1922c-1481,0 -2962,0 -4443,0"/>
      <path class="fil0 str6" d="M10389 1970c-1481,0 -2962,0 -4442,0"/>
      <path class="fil0 str6" d="M10438 2018c-1481,0 -2961,0 -4442,0"/>
      <path class="fil0 str6" d="M10488 2067c-1481,0 -2962,0 -4443,0"/>
      <path class="fil0 str6" d="M10537 2115c-1481,0 -2962,0 -4443,0"/>
      <path class="fil0 str6" d="M10586 2163c-1481,0 -2962,0 -4442,0"/>
      <path class="fil0 str6" d="M10635 2211c-1480,0 -2961,0 -4442,0"/>
      <path class="fil0 str6" d="M10685 2259c-1481,0 -2962,0 -4443,0"/>
      <path class="fil0 str6" d="M10734 2307c-1481,0 -2962,0 -4443,0"/>
      <path class="fil0 str6" d="M10783 2355c-1481,0 -2962,0 -4442,0"/>
      <path class="fil0 str6" d="M10832 2403c-1480,0 -2961,0 -4442,0"/>
      <path class="fil0 str6" d="M10882 2451c-1481,0 -2962,0 -4443,0"/>
      <path class="fil0 str6" d="M10931 2499c-1481,0 -2962,0 -4443,0"/>
      <path class="fil0 str6" d="M10980 2547c-1481,0 -2961,0 -4442,0"/>
      <path class="fil0 str6" d="M11029 2595c-1480,0 -2961,0 -4442,0"/>
      <path class="fil0 str6" d="M11079 2643c-1481,0 -2962,0 -4443,0"/>
      <path class="fil0 str6" d="M11128 2691c-1481,0 -2962,0 -4443,0"/>
      <path class="fil0 str6" d="M11177 2739c-1481,0 -2961,0 -4442,0"/>
      <path class="fil0 str6" d="M11226 2787c-1480,0 -2961,0 -4442,0"/>
      <path class="fil0 str6" d="M11276 2835c-1481,0 -2962,0 -4443,0"/>
      <path class="fil0 str6" d="M11325 2883c-1481,0 -2962,0 -4442,0"/>
      <path class="fil0 str6" d="M11374 2931c-1481,0 -2961,0 -4442,0"/>
      <path class="fil0 str6" d="M11424 2979c-1481,0 -2962,0 -4443,0"/>
      <path class="fil0 str6" d="M11473 3027c-1481,0 -2962,0 -4443,0"/>
      <path class="fil0 str6" d="M11522 3075c-1481,0 -2962,0 -4442,0"/>
      <path class="fil0 str6" d="M11571 3123c-1481,0 -2961,0 -4442,0"/>
      <path class="fil0 str6" d="M11621 3171c-1481,0 -2962,0 -4443,0"/>
      <path class="fil0 str6" d="M11670 3219c-1481,0 -2962,0 -4443,0"/>
      <path class="fil0 str6" d="M11719 3267c-1481,0 -2962,0 -4442,0"/>
      <path class="fil0 str6" d="M11768 3315c-1480,0 -2961,0 -4442,0"/>
      <path class="fil0 str6" d="M11818 3363c-1481,0 -2962,0 -4443,0"/>
      <path class="fil0 str6" d="M11867 3411c-1481,0 -2962,0 -4443,0"/>
      <path class="fil0 str6" d="M11916 3459c-1481,0 -2962,0 -4442,0"/>
      <path class="fil0 str6" d="M11965 3507c-1480,0 -2961,0 -4442,0"/>
      <path class="fil0 str6" d="M12015 3555c-1481,0 -2962,0 -4443,0"/>
      <path class="fil0 str6" d="M12064 3603c-1481,0 -2962,0 -4443,0"/>
      <path class="fil0 str6" d="M12113 3651c-1481,0 -2961,0 -4442,0"/>
      <path class="fil0 str6" d="M12162 3699c-1480,0 -2961,0 -4442,0"/>
      <path class="fil0 str6" d="M12212 3747c-1481,0 -2962,0 -4443,0"/>
      <path class="fil0 str6" d="M12261 3795c-1481,0 -2962,0 -4442,0"/>
      <path class="fil0 str6" d="M12310 3843c-1481,0 -2961,0 -4442,0"/>
      <path class="fil0 str6" d="M12360 3891c-1481,0 -2962,0 -4443,0"/>
      <path class="fil0 str6" d="M12409 3939c-1481,0 -2962,0 -4443,0"/>
      <path class="fil0 str6" d="M12458 3987c-1481,0 -2962,0 -4442,0"/>
      <path class="fil0 str6" d="M12507 4035c-1481,0 -2961,0 -4442,0"/>
      <path class="fil0 str6" d="M12557 4083c-1481,0 -2962,0 -4443,0"/>
      <path class="fil0 str6" d="M12606 4131c-1481,0 -2962,0 -4443,0"/>
     </g>
     <line class="fil0 str6" x1="12655" y1="4179" x2="8213" y2= "4179" />
    </g>
   </g>
   <path class="fil0" d="M5945 1247l187 84c0,0 33,5 47,2 14,-3 38,12 50,28 13,17 21,21 21,21l37 -32c0,0 23,5 47,8 25,2 104,5 119,8 15,3 170,38 224,62 53,23 234,123 331,184 187,118 375,240 558,364 69,47 192,125 321,211 215,143 446,300 461,312 25,18 776,555 797,563 21,9 231,165 246,176 15,11 138,68 161,80 23,12 373,232 431,285 62,55 215,142 296,227 80,84 234,203 249,221 14,18 13,28 0,34 -1,0 -2,1 -2,1 -134,-47 -279,-122 -342,-170 -111,-85 -123,-33 -123,-33l-59 102 -147 -51 -13 -51c0,0 -4,-17 -182,-51 -178,-35 -469,-273 -501,-308 -32,-35 -91,-110 -143,-111 -52,-1 -208,-127 -208,-119 0,8 -14,-60 -14,-60l-202 -34c0,0 0,-77 -45,-86 -44,-8 -269,-50 -269,-50l-300 -239c0,0 -505,-55 -534,-91 -78,-92 -186,39 -456,-129 -94,-59 -128,-84 -284,-140 -117,-43 -146,-80 -197,-138 -65,-73 -124,-162 -200,-273 -56,-82 -75,-140 -90,-177 -21,-51 -22,-65 21,-78 104,-30 45,-67 25,-119 -25,-64 -31,-187 -112,-153 -65,27 -106,-121 -157,-192 -30,-42 -49,-88 -49,-88z"/>
   <g id="镇界">
    <polygon class="fil10 str7" points="11374,5634 11311,5759 11157,5662 11210,5551 "/>
    <polyline class="fil10 str7" points="8739,3604 8595,3689 8434,3548 "/>
    <polyline class="fil10 str7" points="8468,3891 8485,3823 8374,3762 "/>
    <polyline class="fil10 str7" points="8595,3689 8594,3732 8636,3798 8509,3935 "/>
    <path class="fil10 str7" d="M14914 7262c0,-49 -1,-99 -1,-148 44,0 71,-1 113,15l234 91 -12 145"/>
    <line class="fil10 str7" x1="8557" y1="3963" x2="8742" y2= "3748" />
    <polyline class="fil10 str7" points="2933,720 3041,715 3042,678 3394,590 "/>
    <path class="fil10 str7" d="M5914 1596c36,-14 41,-11 85,-36 32,-18 -81,-25 63,-102"/>
    <polyline class="fil10 str7" points="3218,3142 3331,3181 3349,3194 3338,3200 3351,3243 3383,3254 3460,3317 3363,3375 "/>
    <path class="fil10 str7" d="M9393 4361l52 -45 131 83 182 120 -29 199 -35 151 -36 -23c-68,-70 -118,-124 -152,-215 -18,-48 -28,-95 -44,-140 -17,-45 -42,-95 -69,-130"/>
    <polygon class="fil10 str7" points="8106,3516 8193,3549 8226,3453 8185,3424 8094,3368 8137,3293 8196,3291 8348,3372 8434,3417 8385,3523 8436,3548 8374,3762 8161,3646 8071,3606 "/>
    <path class="fil10 str7" d="M7264 3438c11,-16 59,-130 89,-193"/>
    <polyline class="fil10 str7" points="7509,3313 7641,3366 7724,3384 7786,3406 8106,3516 "/>
    <polyline class="fil10 str7" points="7582,2771 7554,2875 7640,2920 7509,3313 7353,3245 7295,3222 7439,2729 "/>
    <polyline class="fil10 str7" points="11816,5582 12172,5770 12661,5932 12712,5990 12628,6128 12374,5963 12314,5932 12007,5782 11865,5727 11751,5680 11772,5648 "/>
    <path class="fil10 str7" d="M3190 3558l127 -116 46 -67 7 5c32,-14 183,-82 196,-107l8 6 9 47c34,0 25,7 37,36 7,-2 14,-4 21,-7 -2,7 -2,13 0,19 7,13 9,27 8,43 5,11 10,18 16,22 7,8 14,14 21,22 7,12 -48,9 -60,18l39 70 -209 101 15 41 17 77 -20 12 -63 -39c-11,2 -20,-3 -22,-14l-148 -89"/>
    <polyline class="fil10 str7" points="7217,2694 7118,3040 7089,3135 6998,3096 6903,3091 6887,3114 6849,3092 6885,3043 6725,2926 6752,2876 6862,2951 6998,2611 "/>
    <polyline class="fil10 str7" points="9540,4246 9573,4231 10408,4740 10321,4899 "/>
    <path class="fil10 str7" d="M7640 2920c68,29 236,258 337,363 40,39 79,61 121,90"/>
    <path class="fil10 str7" d="M9758 4519l563 380c-3,110 -57,187 -83,275 -29,-15 -59,-27 -88,-42 -157,-81 -302,-171 -456,-263"/>
    <path class="fil10 str7" d="M2927 3473l82 -378 -272 -27c6,-56 12,-111 18,-167 0,-5 -1,-5 -2,-9l-35 -29 159 -125 39 -31 16 54c3,9 29,73 29,73 17,23 37,40 57,57l-4 33 72 -28c11,14 18,23 34,32 -1,5 -2,10 -3,14 20,3 18,-1 27,16l19 75 6 17 11 60c12,11 24,22 38,32 -1,21 -22,81 -34,125l-15 -7 -96 209"/>
    <path class="fil10 str7" d="M15260 7222l222 88 120 60c21,12 13,27 18,51l282 200 56 126c1,68 -3,123 -2,191 1,6 -1,11 -3,17 -16,21 -22,22 -22,49l2 170 -216 -39"/>
    <path class="fil10 str7" d="M15871 9938l74 -182c4,-10 6,-14 -4,-20l-26 -15c-11,-6 -11,-7 -4,-18l242 -351 398 247"/>
    <path class="fil10 str7" d="M6699 3518c11,-14 12,-18 9,-36l-62 -176 203 -214"/>
    <polyline class="fil10 str7" points="11085,5256 11366,5391 11748,5582 "/>
    <path class="fil10 str7" d="M13145 6401c-125,-96 -286,-182 -430,-241 -33,-13 12,-37 34,-71 39,-58 126,-172 139,-188"/>
    <polyline class="fil10 str7" points="13820,6214 13731,6367 13683,6356 13641,6519 "/>
    <path class="fil10 str7" d="M14877 6543c269,48 520,88 815,147l24 5 119 -6 461 260 354 218 207 245 38 67 148 130 221 173 -11 729 -58 118"/>
    <path class="fil10 str7" d="M14780 6533l-91 -16 -8 38c-91,-26 -782,-286 -808,-303l-191 278 34 16 262 80 -124 192 -68 -29 -17 59 54 28c-460,673 -898,1357 -1353,2032"/>
    <path class="fil10 str7" d="M15337 9326c-77,-75 -188,-138 -133,-224 26,-40 58,-77 59,-185l-78 -46 18 -148 23 -149c80,-86 9,-85 16,-163 9,-124 17,-247 25,-371 5,-124 -22,-256 -101,-338l-92 -95c-44,-39 -236,-170 -243,-180 -58,-57 9,-110 59,-147 38,-28 52,-24 94,-10l182 62 73 28 9 5 85 53c178,93 201,126 215,162 7,18 31,51 47,62 32,21 44,-14 72,39l45 99c30,66 34,68 28,131l-11 133 -12 91c-9,63 -20,139 -38,257 -4,23 -17,37 -34,48 -28,20 -34,36 -16,55 15,17 22,14 21,46 -1,102 -24,213 -78,322 -12,24 -22,50 -33,76l186 0c-44,249 -537,455 -744,597 55,48 109,96 163,144 -118,163 -285,259 -496,291l46 190"/>
    <polyline class="fil10 str7" points="3375,782 3388,642 3394,590 3379,520 3599,338 3704,283 "/>
    <path class="fil10 str7" d="M8154 5261l-62 382 -80 461c-20,66 -27,73 -72,130l-123 204 -114 -53 -77 -66 -29 -13 -93 -58 -101 -55 -119 -63c-30,-11 -59,-22 -89,-33 68,-102 135,-204 206,-301l116 -148 -114 -87 -105 -77c-24,-23 -39,-28 -58,-41l-14 1 -203 -21 -480 -76c69,-242 128,-456 197,-699 58,-207 126,-443 184,-651"/>
    <path class="fil10 str7" d="M6033 3246c62,57 128,94 204,133 42,19 84,35 123,45l27 7 146 18 26 -2 -18 96 36 5 0 12"/>
    <path class="fil10 str7" d="M11799 8606c8,-12 5,-7 17,-15l-2 -17 21 -41 -22 -6 39 -71 41 -47 107 -173c16,-25 24,-33 30,-61l132 -210 147 -228 69 -113c122,-196 233,-372 358,-566 73,-114 144,-220 213,-333 38,-62 77,-132 112,-197l32 15 43 -109 9 -33"/>
    <path class="fil10 str7" d="M5446 4760c215,130 426,253 636,380 147,89 296,176 443,265l18 -58"/>
    <path class="fil10 str7" d="M8746 7442l130 91 52 -78 20 -175 23 -205 27 -217 195 115 99 -469 43 -265 74 -424 24 -125c9,-35 14,-44 28,-76 3,-7 9,-19 13,-29"/>
    <line class="fil10 str7" x1="7615" y1="6772" x2="7817" y2= "6438" />
    <path class="fil10 str7" d="M9660 7955c146,-275 145,-301 212,-443 46,-113 90,-103 113,-98 27,5 28,-10 84,-130l42 -331 27 -260 498 278c68,40 51,47 49,107 0,15 3,30 21,40l129 99c-34,69 -145,148 -75,185 31,5 133,-7 193,-23l376 93 78 -121c279,84 421,97 506,133 21,9 62,9 55,32 -5,15 2,30 21,30 12,0 11,30 24,58 13,27 40,52 44,62 27,69 65,126 107,295"/>
    <path class="fil10 str7" d="M2875 2740l-107 -121 141 13 9 -54 -43 3 -26 -53 -44 -53c-13,-29 -26,-58 -45,-84l-58 -63 -68 -90 -78 -65 -58 -21 -107 -84 5 -69 26 0 -7 37 16 21 81 47 54 -83m1209 2149l-57 -19 -152 -200 -34 -41c-20,-23 -15,-40 -26,-64l-36 -67"/>
    <path class="fil10 str7" d="M10138 6693l10 -105c49,27 250,127 294,152 13,-127 14,-257 35,-384 35,-208 109,-387 273,-596"/>
    <polyline class="fil10 str7" points="9592,10269 9593,10245 9565,10247 "/>
    <polyline class="fil10 str7" points="9699,10304 9670,10272 9650,10302 "/>
    <line class="fil10 str7" x1="10195" y1="10463" x2="10131" y2= "10465" />
    <polyline class="fil10 str7" points="10274,10547 10255,10505 10255,10478 10239,10463 10228,10462 "/>
    <path class="fil10 str7" d="M10739 10887l35 -49 -25 -19c-8,10 -21,21 -31,28 -38,-19 -74,-58 -102,-90l-61 -11"/>
    <polyline class="fil10 str7" points="11687,10609 11711,10679 11883,10684 "/>
    <polyline class="fil10 str7" points="9554,10235 9561,10193 9495,10070 9500,9987 9637,9931 9636,9921 "/>
    <path class="fil10 str7" d="M4550 5080l21 -37 32 -40 -12 -11 -10 13 -12 15c-6,8 -13,16 -19,24l-16 21m-668 -935l56 -72 174 -240c17,-29 179,-321 195,-350 13,-22 456,-822 468,-844l206 -375 5 -20 36 6c47,-1 94,-1 141,-2 24,0 18,19 10,44 0,18 14,14 29,14 50,5 280,37 309,71l-8 58c52,32 69,45 127,65 6,-8 12,-16 17,-24 23,36 46,67 73,104l-17 22 29 25c24,-28 53,-54 77,-82 21,9 35,16 36,42l18 151c23,105 45,210 68,316 22,69 58,138 118,207 -49,184 -127,401 -210,599l0 108 -72 147c-134,221 -211,424 -305,660 -13,-10 -25,-16 -38,-26 4,84 8,119 26,213l-57 -33 -2 211 -182 33 -32 -4c10,87 -57,170 -127,225l23 5 4 52 -72 -23"/>
    <path class="fil10 str7" d="M15716 6695c-80,184 -115,453 -234,615"/>
    <path class="fil10 str7" d="M13133 9244l106 -129 -2 -30 389 -603c300,-459 617,-903 916,-1363 96,-187 162,-345 260,-549"/>
    <polyline class="fil10 str7" points="15932,8150 15937,8233 15725,8939 "/>
    <path class="fil10 str7" d="M2933 720l4 74c119,-7 225,-4 350,-9l88 -3 -15 187c16,-3 34,-6 51,-9l460 93 627 188 796 199 663 168c59,89 105,164 164,253 27,-10 54,-21 82,-32"/>
    <path class="fil10 str7" d="M4970 2229c4,-9 5,-14 6,-17 -55,-25 -69,-31 -115,-65 -34,-30 -44,-26 -90,-27 -11,-1 -14,-2 -25,-5 -76,-58 -135,-119 -210,-165l-54 -57c-54,-73 -88,-135 -136,-207 -35,-44 -69,-91 -104,-134 -10,-9 -20,-18 -31,-25 -8,35 -18,71 -25,106 -28,1 -56,2 -84,3 -19,4 -20,15 -35,19 -3,0 -8,4 -22,4 -1,0 -62,-21 -75,-23 -54,-10 -109,-21 -164,-30 -6,50 -11,100 -18,151 -33,-4 -71,-9 -101,-9l-2 15 -41 -1 -1 -20 -67 72 -2 50 -81 8 -11 58 -16 22 -44 3 -17 17c-5,1 -15,1 -19,1 0,4 -2,13 -2,17 -114,55 -371,204 -489,189 -9,-55 -17,-109 -26,-164 -37,9 -74,19 -111,29 -47,-32 -97,-67 -144,-99 -16,25 -32,51 -48,76 -113,-81 -202,-159 -315,-240 -24,24 -49,49 -73,73 -123,-22 -267,-46 -390,-69 -16,-8 -32,-15 -48,-23 0,-53 0,-105 0,-158 7,-20 13,-40 20,-59"/>
    <polyline class="fil10 str7" points="8434,3417 8450,3387 8736,3602 8781,3634 9092,3909 9105,3873 9189,3921 9577,4141 9546,4242 9497,4268 9445,4316 "/>
    <path class="fil10 str7" d="M13050 6549l-44 -28 9 -19 -222 -152 -40 -22 -165 -26 -25 42 -205 -95 -118 -81 -85 -83 -195 -79 -100 72 -66 45 -11 -18 -40 25c-67,47 -62,6 -32,-9l149 -98c5,-3 47,-31 50,-39 -92,-17 -280,-35 -370,-83 -28,53 -95,134 -146,162l-117 -79 -110 -70 -107 -45 -27 31 -11 -7 4 -8 -75 -68 -26 -14 -56 -10 -27 -16 -23 14 -37 -29 -39 -2 -77 -95 -387 -134 -38 21 -261 0 -8 31c-78,-20 -393,2 -487,10l-29 -21 -231 -17 -2 -19 -347 -67 -5 18 -166 -50 -87 -79 -173 -39 -282 -115 -9 57 -169 -156 -15 -11 -18 -8 -78 -30 5 -30 -209 -62 11 -58c-28,-12 -55,-24 -83,-36 -6,-2 -12,-7 -15,-16 -7,-30 -15,-88 -38,-110l-86 -86c-16,-18 -18,-16 -18,-40l1 -21c-10,-9 -82,-75 -84,-100l-32 -10 -2 -13 -22 -11 21 -25 -56 -57 -20 -25 -60 -80 -31 2c-6,-7 -28,-20 -39,-37l-4 -29c-65,-58 -95,-119 -136,-169l-3 16 -25 18 2 -57c-20,-17 -48,-40 -71,-59 -3,-36 -1,-32 -29,-57 -14,-29 -47,-52 -63,-78 -22,-35 -62,-25 -121,-42 25,-57 9,-48 -24,-99 -8,-12 -17,-25 -26,-37 -18,-18 -41,-26 -68,-23l22 -20 6 -45c50,-17 101,-34 151,-52 47,-45 107,-101 167,-134 48,-28 107,-27 163,-25 52,1 64,-11 108,17 25,17 37,39 65,56 17,9 19,13 40,18 199,66 197,51 263,81l38 19 107 48 239 67 460 209c30,9 60,18 90,27 60,83 139,97 225,78 51,-12 66,0 124,19l292 111 -367 -351 39 -114"/>
    <path class="fil10 str7" d="M11355 5624c300,178 238,107 406,175l98 35 172 59c178,107 407,250 522,320 46,28 55,49 102,34 64,-22 57,-12 147,30l324 181"/>
    <path class="fil10 str7" d="M10408 4740l114 42 212 105c124,90 257,192 386,272 -21,97 -71,186 -125,278 60,32 125,61 193,89l22 25"/>
    <polyline class="fil10 str7" points="7570,3539 7625,3413 7780,3481 8071,3606 "/>
    <path class="fil10 str7" d="M8128 2944c-9,15 -18,30 -26,45 -57,-31 -113,-63 -170,-94l-38 -43 -23 -39"/>
    <path class="fil10 str7" d="M9881 3943l-106 12c-457,-185 -583,-276 -1013,-577l-292 -238 11 -38"/>
    <path class="fil10 str7" d="M10575 4119l-50 100 -183 -1c-143,-89 -251,-167 -341,-233"/>
    <path class="fil0 str8" d="M7708 2791c12,134 94,226 200,295 107,70 208,142 273,148 58,6 162,67 269,153"/>
    <polyline class="fil0 str8" points="10856,5785 10962,5583 11157,5662 "/>
    <path class="fil0 str8" d="M15593 7062c0,0 646,0 680,2 33,2 71,38 152,87 81,50 339,267 339,267l57 -48"/>
    <polyline class="fil10 str7" points="14357,10031 14397,9935 14230,9909 14130,9841 "/>
    <polyline class="fil10 str7" points="13145,6401 13233,6371 13716,6546 "/>
    <polyline class="fil10 str7" points="13978,6626 14634,6826 14499,7127 14525,7145 "/>
    <path class="fil10 str7" d="M15580 7113l-521 -254c-99,-29 -198,-58 -298,-88 -32,-9 -34,-9 -43,20l-82 291 -78 5 -49 82 -55 27"/>
    <polyline class="fil10 str7" points="2933,720 2919,702 2532,879 "/>
    <path class="fil10 str7" d="M4635 597c-19,115 -51,169 17,165 67,-5 506,76 626,125"/>
    <polyline class="fil10 str7" points="7378,4531 7441,4255 7790,4322 7678,4901 "/>
    <path class="fil10 str7" d="M6121 1861c45,98 228,461 253,521 26,60 63,193 212,375 39,48 34,54 139,169"/>
   </g>
   <g id="省界区界">
    <path class="fil0" d="M5945 1247l-360 -535c-139,-206 -228,-213 -379,-273l-829 -332c-273,-110 -318,-155 -720,-38 -27,8 -563,230 -822,333 -387,154 -1329,715 -1632,1143 -303,427 -1203,989 -1203,989l494 510 303 223 779 647 1212 904 432 427 1208 1568 1271 889 1251 1863 1042 849 1206 771 3039 1742 2626 1019c0,0 196,-262 301,-309 104,-46 574,-3 667,-59 94,-57 200,20 312,22 112,2 129,-32 56,-79 -73,-46 -125,-159 75,-45 122,70 89,24 51,-6 -24,-18 -10,-56 43,-50 174,21 50,-112 243,-91 192,20 439,-86 624,9 185,96 266,32 266,-28 0,-60 295,-245 357,-168 62,77 275,77 297,136 23,60 150,40 262,40 112,0 65,-98 142,-243 77,-146 123,5 179,73 57,67 64,54 195,125 131,71 24,-125 -17,-189 -41,-64 -149,-39 -189,-110 -39,-71 -164,-98 -222,-118 -58,-21 -152,-6 -298,179 -145,185 -321,68 -201,-74 119,-143 -126,-264 -186,-234 -59,30 -114,26 -138,-23 -24,-48 -140,-78 -213,21 -73,99 -167,43 -131,-11 36,-54 15,-83 -60,-124 -75,-41 -237,42 -340,129 -103,88 -168,103 -168,58 0,-45 -28,-47 -77,-9 -88,68 -345,-8 136,-133 246,-63 -46,-166 -175,-82 -129,84 -163,-13 -163,-47 0,-33 30,-146 -84,-159 -114,-13 -340,-164 -421,-217 -80,-52 -116,15 -215,-28 -99,-43 -838,-355 -838,-355 0,0 2,-1161 -13,-1483 243,4 846,-74 924,-127 79,-52 378,-104 711,-142 332,-37 646,-217 994,-407 348,-191 1436,-756 1649,-801 213,-45 236,-205 299,-344 64,-138 -33,-205 -97,-209 -63,-4 -71,-30 -172,-101 -101,-71 -168,-340 -826,-539 -658,-198 -1032,-523 -1388,-789 -355,-265 -1312,-572 -1312,-572l11 -620 -144 -13c-1727,-308 -3869,-1209 -3976,-1260 -106,-51 -276,-65 -467,-134 -191,-68 -261,-137 -359,-86 -32,17 -93,10 -164,-10 -149,-40 -345,-137 -419,-194 -111,-86 -124,-34 -124,-34l-59 103 -147 -51 -13 -52c0,0 -4,-17 -182,-51 -178,-34 -468,-273 -500,-308 -33,-35 -92,-110 -143,-110 -52,-1 -208,-127 -208,-120 0,8 -14,-60 -14,-60l-202 -34c0,0 0,-77 -45,-85 -45,-8 -269,-50 -269,-50l-300 -239c0,0 -505,-55 -534,-91 -78,-92 -186,39 -457,-129 -93,-59 -128,-84 -283,-141 -117,-42 -147,-79 -198,-137 -64,-73 -123,-163 -199,-273 -56,-82 -75,-140 -90,-177 -21,-51 -22,-65 21,-78 104,-30 45,-67 25,-119 -25,-64 -31,-187 -112,-153 -65,26 -106,-121 -157,-192 -30,-42 -49,-88 -49,-88"/>
    <path class="fil0 str9" d="M5945 1247c0,0 19,46 49,88 51,71 92,218 157,192 81,-34 87,89 112,153 20,52 79,89 -25,119 -43,13 -42,27 -21,78 15,37 34,95 90,177 76,110 135,200 199,273 51,58 81,95 198,137 155,57 190,82 283,141 271,168 379,37 457,129 29,36 534,91 534,91l300 239c0,0 224,42 269,50 45,8 45,85 45,85l202 34c0,0 14,68 14,60 0,-7 156,119 208,120 51,0 110,75 143,110 32,35 322,274 500,308 178,34 183,51 183,51l12 52 147 51 59 -103c0,0 13,-52 124,34 75,57 270,154 419,194"/>
    <path class="fil0 str10" d="M5945 1247c0,0 19,46 49,88 51,71 92,218 157,192 81,-34 87,89 112,153 20,52 79,89 -25,119 -43,13 -42,27 -21,78 15,37 34,95 90,177 76,110 135,200 199,273 51,58 81,95 198,137 155,57 190,82 283,141 271,168 379,37 457,129 29,36 534,91 534,91l300 239c0,0 224,42 269,50 45,8 45,85 45,85l202 34c0,0 14,68 14,60 0,-7 156,119 208,120 51,0 110,75 143,110 32,35 322,274 500,308 178,34 183,51 183,51l12 52 147 51 59 -103c0,0 13,-52 124,34 75,57 270,154 419,194"/>
   </g>
  </g>
 </g>
</svg>
