<?xml version="1.0" encoding="UTF-8"?>
<!DOCTYPE svg PUBLIC "-//W3C//DTD SVG 1.1//EN" "http://www.w3.org/Graphics/SVG/1.1/DTD/svg11.dtd">
<!-- Creator: CorelDRAW X7 -->
<?xml-stylesheet href="土壤类型-2.css" type="text/css"?>
<svg xmlns="http://www.w3.org/2000/svg" xml:space="preserve" width="173.706mm" height="140.301mm" version="1.1" style="shape-rendering:geometricPrecision; text-rendering:geometricPrecision; image-rendering:optimizeQuality; fill-rule:evenodd; clip-rule:evenodd"
viewBox="0 0 5826 4706"
 xmlns:xlink="http://www.w3.org/1999/xlink">
 <defs>
   <clipPath id="id0">
    <path d="M1643 363l65 29c0,0 12,2 17,1 5,-1 13,4 18,10 4,6 7,8 7,8l13 -12c0,0 8,2 16,3 9,1 37,2 42,3 6,1 60,13 79,22 19,8 82,43 116,64 66,42 132,85 197,128 24,17 67,44 112,74 76,51 157,106 163,110 8,6 272,195 280,198 7,3 81,58 86,62 5,4 49,24 57,28 8,5 131,82 151,100 22,20 76,50 104,80 29,30 83,71 88,78 5,6 5,10 0,12 0,0 -1,0 -1,0 -47,-16 -98,-43 -120,-60 -39,-30 -43,-11 -43,-11l-21 36 -52 -18 -4 -18c0,0 -2,-6 -64,-18 -63,-12 -165,-96 -176,-109 -12,-12 -32,-38 -51,-39 -18,0 -73,-44 -73,-41 0,2 -5,-22 -5,-22l-71 -11c0,0 0,-28 -15,-30 -16,-3 -95,-18 -95,-18l-106 -84c0,0 -177,-20 -187,-32 -28,-33 -66,14 -161,-46 -33,-20 -45,-29 -99,-49 -42,-15 -52,-28 -70,-48 -23,-26 -43,-57 -70,-96 -20,-29 -26,-49 -32,-62 -7,-18 -7,-23 8,-28 36,-10 16,-23 8,-42 -8,-22 -10,-66 -39,-54 -23,10 -37,-42 -55,-67 -11,-15 -17,-31 -17,-31z"/>
   </clipPath>
   <clipPath id="id1">
    <path d="M1643 363l65 29c0,0 12,2 17,1 5,-1 13,4 18,10 4,6 7,8 7,8l13 -12c0,0 8,2 16,3 9,1 37,2 42,3 6,1 60,13 79,22 19,8 82,43 116,64 66,42 132,85 197,128 24,17 67,44 112,74 76,51 157,106 163,110 8,6 272,195 280,198 7,3 81,58 86,62 5,4 49,24 57,28 8,5 131,82 151,100 22,20 76,50 104,80 29,30 83,71 88,78 5,6 5,10 0,12 0,0 -1,0 -1,0 -47,-16 -98,-43 -120,-60 -39,-30 -43,-11 -43,-11l-21 36 -52 -18 -4 -18c0,0 -2,-6 -64,-18 -63,-12 -165,-96 -176,-109 -12,-12 -32,-38 -51,-39 -18,0 -73,-44 -73,-41 0,2 -5,-22 -5,-22l-71 -11c0,0 0,-28 -15,-30 -16,-3 -95,-18 -95,-18l-106 -84c0,0 -177,-20 -187,-32 -28,-33 -66,14 -161,-46 -33,-20 -45,-29 -99,-49 -42,-15 -52,-28 -70,-48 -23,-26 -43,-57 -70,-96 -20,-29 -26,-49 -32,-62 -7,-18 -7,-23 8,-28 36,-10 16,-23 8,-42 -8,-22 -10,-66 -39,-54 -23,10 -37,-42 -55,-67 -11,-15 -17,-31 -17,-31z"/>
   </clipPath>
 </defs>
 <g id="地图">
  <metadata id="CorelCorpID_0Corel-Layer"/>
  <g id="崇明面">
   <path class="fil0" d="M4435 4447c0,0 0,0 0,0 0,0 0,0 0,0zm-1744 -1351c-53,-6 -85,-15 -128,-15 -43,0 -104,-9 -111,24 -10,44 36,77 109,114 74,37 56,21 92,52 35,32 70,52 94,84 24,32 74,98 111,122 36,24 54,38 54,46 0,8 9,-2 15,18 3,9 18,4 31,5 14,2 25,9 29,11 9,4 -5,14 26,8 7,-1 12,-1 20,-1l36 37c0,0 20,5 36,4 16,-1 9,0 9,0l2 12 15 0 11 -23c0,0 5,0 5,1 0,2 -2,8 -2,8l3 0c0,0 -15,15 -9,24 6,8 11,8 19,4 9,-4 0,4 20,6 20,2 30,14 30,14 0,0 3,18 20,26 16,9 33,24 36,26 2,2 -11,3 0,11 12,9 38,37 46,29 9,-8 20,15 34,25 15,10 -8,6 11,16 19,11 58,36 84,56 26,21 50,32 71,41 21,10 86,52 106,63 19,12 52,40 57,46 5,6 11,-31 11,-31l5 1c0,0 -12,24 0,36 12,12 13,20 27,20 13,0 0,5 12,8 13,3 18,7 15,12 -2,4 19,10 35,19 17,8 61,31 65,33 4,3 7,5 12,3 4,-3 11,5 12,9 2,5 74,51 84,56 10,5 -1,4 10,12 12,9 16,16 24,13 7,-2 53,44 65,55 11,11 -3,5 18,26 21,21 37,37 37,37l-6 5 7 7c0,0 8,-4 8,-5 0,-1 18,22 21,28 3,6 14,9 20,0 5,-7 18,-19 14,-3 0,0 -9,18 -9,20 0,1 9,3 1,11 -7,7 2,16 10,30 8,14 12,19 13,28 1,9 8,15 11,10 4,-5 9,6 15,0 6,-6 6,-10 11,-6 4,5 -13,8 -9,15 4,7 -18,1 3,21 21,20 0,6 14,19 13,14 19,27 26,27 8,-1 4,2 24,8 21,6 50,18 71,20 21,2 1,4 51,22 50,18 45,27 57,18 12,-9 -15,-40 -15,-86 0,-43 -7,-42 -8,-41 0,-2 3,-17 0,-41 -3,-26 -1,-65 -8,-69 -8,-3 -7,-9 2,-9 8,0 -7,-29 -5,-59 3,-30 0,-90 0,-90l-23 -1 8 -11c0,0 -26,-45 -31,-57 -6,-12 -8,-34 -15,-37 2,-11 -9,-35 -15,-46 -6,-12 -35,-53 -48,-65 -13,-12 -24,-22 -50,-35 -25,-14 -170,-105 -183,-114 -12,-10 -74,-32 -74,-32 0,0 -10,-7 -15,3 -4,11 -10,19 -10,18 0,-1 -13,2 -6,-19 4,-10 -4,-11 -12,-14 -10,-4 -21,-8 -21,-8 -7,-2 -42,-20 -47,-24 -4,-3 -17,-11 -23,-11 -6,0 -9,-2 -22,-7 -13,-5 -13,-5 -32,-9 -19,-5 -112,-44 -130,-51 -17,-6 -26,-8 -35,-16 -9,-7 -9,-6 -31,-14 -23,-7 -25,-5 -27,-11 -3,-6 3,-5 -17,-11 -21,-6 -56,-19 -67,-19 -11,-1 -16,-3 -22,1 -5,4 -5,2 -12,0 -6,-2 -27,-9 -37,-12 -9,-4 -9,-5 -19,-4 -10,1 -23,-10 -47,-20 -24,-11 -44,-23 -61,-25 -20,-3 -19,0 -31,-14 -6,-6 -45,-15 -49,-21 -1,-1 -3,-2 -5,-3 -4,-2 -13,-6 -21,-8 -20,-7 -50,-11 -59,-9 -4,1 -10,-3 -19,-5 -17,-4 -43,-9 -59,-13 -2,-1 -3,-2 -6,-3 -15,-3 -27,-2 -34,-4 -13,-13 -52,-27 -76,-35 -6,-11 -10,-28 -25,-50 -5,-8 -12,-15 -18,-24 -27,-35 -39,-42 -51,-108 -4,-20 -13,-36 -21,-48 -24,-33 -58,-34 -79,-36 -28,-2 -49,-6 -49,-7 0,-1 4,-18 6,-32 1,-4 1,-7 0,-10 0,-1 -3,-2 -13,-2z"/>
   <polygon class="fil0" points="3078,3225 3045,3276 3107,3339 3171,3393 3205,3357 3152,3259 "/>
   <path class="fil0" d="M4475 4010c-20,3 -18,-1 -15,18l3 4 14 17 7 31c0,0 33,44 35,50 2,7 4,6 -3,11 -8,4 -8,0 -6,25 3,26 6,54 5,62 0,8 4,9 14,7 9,-1 -4,6 -11,6 -6,1 0,22 0,32 -1,9 28,136 32,138 3,1 27,16 27,16 0,0 12,55 12,56 0,1 24,25 24,25 0,0 73,62 76,63l46 29 22 -5 2 7 -13 3c-1,1 -14,21 -14,23 0,2 35,22 43,27 14,10 23,10 31,-1 5,-6 4,-6 11,-1l23 17 3 6 9 6 5 0c0,0 11,16 13,18 2,2 3,7 16,-3 13,-11 66,-53 70,-57 3,-4 3,0 8,-14 6,-15 21,-49 23,-56 3,-8 1,-4 11,-11 10,-7 34,-19 36,-23 4,-8 -5,-1 8,-21 16,-25 42,-80 62,-100 2,-2 5,-7 5,-11 2,-10 7,-30 1,-39 -6,-8 -10,-28 2,-39 6,-4 6,-3 -9,-15 -7,-17 -21,-73 -29,-82 -6,-7 -5,-21 -5,-32l-32 -36 -102 -33 -32 -24c0,0 -104,-51 -108,-53 -5,-3 -10,-1 -16,-1 -5,0 -36,4 -41,4 -6,0 -5,1 -5,5 0,3 -6,2 -6,-2 -1,-5 -13,-7 -21,-11 -9,-3 -7,0 -15,3 -8,3 -13,6 -13,6 0,0 -29,-43 -30,-43l-146 -18 -14 7c2,16 3,13 -13,9z"/>
   <path class="fil0" d="M5132 3419c0,0 -18,46 -23,58 -4,12 -6,10 -15,11 -10,1 -110,10 -110,10l4 -7 -12 -6 -8 16 -129 12 -114 2 -6 -18 -8 2 -32 -19 -17 0 -120 -57c0,0 -29,-20 -29,-22l7 -17 -122 -82c-18,-12 -14,-7 -5,-37 9,-29 29,-52 29,-52 0,0 -6,-6 -6,-5 0,1 -25,39 -25,39l-12 -4c0,0 -34,48 -34,51 0,2 -92,-59 -92,-59l-20 -4 -75 -42 12 -15c0,0 -7,-3 -7,-4 0,-1 -3,4 -3,4l-6 0 -71 -18 -21 -9c0,0 -53,-36 -53,-37 0,-1 -6,-11 -6,-11l-101 -63 -5 7c0,0 -71,-35 -75,-42 -4,-7 -2,-6 -21,-9 -18,-3 -90,-34 -96,-39 -5,-4 -5,-3 -7,-2 -1,1 -3,5 -9,-3 -7,-7 -26,-15 -38,-17 -13,-2 -29,-12 -44,-15 -15,-4 -49,-13 -63,-18 -14,-5 -14,-11 -18,-3 -5,9 -5,11 -18,5 -16,-7 14,-21 4,-28 -6,-4 -9,2 -17,12 -6,9 -15,3 -15,13 0,2 -73,-17 -73,-17l4 -7 -17 -11 -23 -6c0,5 -1,5 -1,10 -3,0 -8,-2 -11,-2 -12,-3 -11,-5 -22,0 -14,6 -38,3 -58,3 -20,1 -16,-4 -28,-11 -12,-8 -10,-9 -22,-3 -18,9 -14,13 -29,-1 -16,-13 -16,-10 -46,-17 -31,-6 -22,-6 -33,-14 -11,-8 -9,8 -27,-3 -10,-7 -21,-9 -12,-20l30 -38 -8 -6c0,0 -24,30 -30,38 -6,7 -25,-3 -33,-10 -9,-8 -32,-18 -34,-20 -2,-2 -9,-12 -24,-8 -16,4 -29,-9 -29,-9l-10 -8 5 -16c0,0 -18,-5 -18,-4 0,1 -3,5 -3,5l10 5 -5 10 -33 -13 -19 -14 -10 -6 1 -9c0,0 4,3 -29,-14 -33,-16 -38,-19 -37,-22 5,-10 -2,-5 -5,-14 -2,-8 -18,-1 -18,-7 0,-6 3,-15 0,-18 -4,-3 -4,-6 -7,2 -4,8 0,7 0,7 0,0 0,2 -3,15 -3,12 -1,13 -16,6 -16,-8 -122,-70 -133,-75 -11,-5 -7,-7 -2,-16 6,-10 7,-15 5,-18 -1,-2 -8,-2 -14,0 -7,1 -4,1 -12,-3 -7,-5 -50,-32 -50,-32 0,0 -7,-2 -10,-1 -4,1 -15,-5 -17,-10 -3,-4 -5,-1 -12,-3 -8,-1 -7,-12 -3,-21 3,-9 -3,-6 -3,-6l-6 14 -7 -4 -4 -9c0,0 -70,-38 -70,-39 0,-2 4,-8 4,-8l-22 -3 -43 -24 4 -12c0,0 -6,-8 -19,-10 -14,-3 -58,-28 -58,-28l-20 -8c0,0 -11,4 -11,3 0,-2 -11,-13 -18,-20 -4,-4 -5,-7 -4,-8 0,-5 -4,-4 -6,-1 -4,6 1,2 -10,3 -14,0 -21,-8 -21,-8l-23 -6 -5 9 -26 -6c0,0 -146,-73 -152,-77 -6,-4 -7,-12 -7,-12 0,0 -14,-6 -28,-12 -15,-7 -9,1 -14,3 -6,2 -13,-7 -18,-8 -5,0 -19,-11 -20,-16 -2,-5 -36,-40 -36,-40l-7 4c-7,-6 -13,-13 -19,-20 -17,3 -16,3 -33,-1 -21,-11 -24,-12 -27,-17 -10,-12 -13,-9 -26,-8 -9,-2 -43,-20 -47,-23 -7,-6 -36,-13 -59,-18 -20,-4 -39,-8 -52,-10 -22,-4 -13,-2 -28,-12 -16,-10 -38,-19 -46,-30 -8,-12 -7,-3 -12,-11 -5,-8 0,-12 0,-12l10 -16 -4 -2 -6 6 -10 10 -16 -14 -1 -20 5 -4c-18,-18 -59,-47 -93,-61 -23,-9 -31,-7 -57,-20 -11,-6 -27,-14 -39,-19 -1,-1 -96,-80 -93,-83 4,-3 7,-7 7,-8 -11,-5 -44,-30 -50,-41l-5 7 -12 -10c-22,-16 -48,-35 -70,-52 -17,-13 11,-4 -9,-28 -18,-21 -51,-79 -97,-112 0,0 -41,-58 -49,-67 -7,-8 -15,-27 -9,-37 2,-4 13,-23 13,-23l-24 -18c0,0 -1,-4 -22,23 -28,35 -43,35 -84,28 -23,-4 -207,-83 -207,-83 0,0 -2,-3 -5,-7 -5,-7 -15,-20 -23,-32 -8,-13 -13,-26 -14,-28 -3,-5 -8,-16 -8,-16 0,0 -12,-17 -10,-18 6,-4 15,-9 22,-12 11,-5 24,-9 38,-12 32,-7 66,-8 79,-8 21,1 23,1 23,1 -3,-15 -4,-35 -24,-24l-22 -28 -11 -8 -51 2 -223 -49 -16 -23 4 -38 -10 -1c0,0 -1,9 -1,14 0,4 -1,11 -5,6 -16,-22 -103,-155 -114,-172l10 1 1 -7 -18 -4 -26 -39c-3,2 -6,3 -9,5 -38,-24 -79,-74 -109,-108 -4,-4 -52,-81 -58,-91 -7,-10 -6,-10 -3,-14 8,-11 14,-27 19,-34 2,-3 16,-18 26,-27 55,-45 105,-97 150,-133 9,-7 30,-24 32,-26 2,-3 40,-30 40,-30l-4 -7 97 -75c0,0 3,-12 9,-16 9,-7 42,-30 52,-34l7 21 8 -6c0,0 0,-9 0,-14 0,-6 -4,-10 11,-18l269 -145c39,-22 92,-39 134,-58 22,-9 46,-14 69,-21 27,3 53,6 80,10l142 75 20 41c0,0 6,4 13,5 7,1 9,5 7,12 -3,17 -1,15 3,16 16,5 3,-31 6,-46 0,-3 30,8 38,10 2,1 89,61 104,71 15,10 41,25 51,26 9,2 24,17 38,30 15,14 16,14 16,14l-3 18 8 2 3 -8c46,28 57,34 97,66 12,-10 11,-6 26,-2 11,4 21,7 30,15l8 -6 13 2 84 38c0,0 12,2 17,1 5,-1 13,4 18,10 4,6 7,8 7,8l13 -12c0,0 8,2 16,3 9,1 37,2 42,3 6,1 60,13 79,22 19,8 82,43 116,64 66,42 132,85 197,128 24,17 67,44 112,74 76,51 157,106 162,110 9,6 273,195 281,198 7,3 81,58 86,62 5,4 49,24 57,28 8,4 131,82 151,100 22,20 76,50 104,80 29,30 83,71 88,78 5,6 4,10 0,12 -5,2 2,11 2,11 0,0 15,-3 28,7 14,10 172,124 178,131 5,8 25,36 21,48 -1,5 7,7 13,13 9,9 21,24 30,33 5,5 101,53 112,56 23,8 120,32 135,36 15,4 15,4 7,17 -7,13 -101,175 -103,187 -2,12 14,10 14,10 0,0 22,-32 23,-34 2,-2 1,-4 9,0 68,34 230,85 298,99 12,2 24,6 24,6l38 18 155 24 172 81c0,0 4,2 -1,10 -2,4 9,6 13,0 23,-38 17,-63 75,-58l231 21c49,4 85,1 64,49l-47 104 11 5 5 -11 21 3 1 -15 -7 -4 49 -124c8,-20 10,-34 35,-33 17,1 38,2 46,2 45,2 120,24 163,41 32,12 64,31 89,55 21,19 45,45 45,55 0,16 -4,10 -4,10 27,24 53,47 80,70 8,10 6,10 6,23l12 -3c4,-1 6,-2 10,4 37,56 72,70 122,112 36,30 68,57 74,62 14,12 141,126 141,126l86 96 47 71 37 97c9,22 10,33 10,49 -1,23 -3,58 -4,77 -1,23 4,29 -27,19 -31,-10 -195,-58 -195,-58l-40 104 -62 126c0,0 -89,80 -114,102 -11,9 -9,8 1,14 8,6 18,13 20,14 3,1 5,4 -1,8l-84 54 -89 43 -97 -5z"/>
  </g>
  <g id="专题面">
   <g id="滩涂">
    <path class="fil1" d="M4429 4448c0,0 0,0 0,0 0,0 0,0 0,0zm-1743 -1350c-54,-6 -86,-15 -129,-15 -42,0 -104,-9 -111,24 -10,43 36,77 110,114 73,36 56,20 91,52 36,32 70,52 94,84 24,31 75,97 111,121 36,25 54,38 54,46 0,9 9,-2 16,19 3,9 18,4 30,5 14,1 26,8 29,10 10,4 -5,14 26,9 7,-2 13,-2 20,-2l36 37c0,0 20,6 36,5 16,-1 10,-1 10,-1l1 13 16 0 10 -24c0,0 5,0 5,2 0,1 -2,7 -2,7l4 0c0,0 -16,16 -10,24 6,9 11,8 19,4 9,-4 0,4 20,6 20,2 31,14 31,14 0,0 2,18 19,27 17,8 34,23 36,25 2,2 -11,3 0,12 12,8 38,37 47,28 8,-8 19,15 33,25 15,11 -8,6 11,17 20,10 59,35 84,56 26,20 51,32 71,41 21,9 86,51 106,63 19,12 53,39 58,45 4,6 10,-31 10,-31l5 1c0,0 -12,24 0,36 12,13 13,21 27,21 14,0 0,4 13,7 12,4 17,7 14,12 -2,5 19,11 35,19 17,9 61,32 65,34 4,2 7,5 12,2 4,-2 11,5 13,10 1,4 73,50 83,55 10,5 -1,4 11,12 11,9 15,16 23,13 7,-2 53,44 65,55 11,11 -3,5 18,26 21,21 37,37 37,37l-6 5 7 7c0,0 7,-4 7,-5 0,-1 19,22 22,28 3,7 14,10 20,1 5,-8 18,-20 14,-3 0,0 -9,18 -9,19 0,1 9,4 1,11 -7,7 2,16 10,30 8,15 11,19 13,28 1,9 8,15 11,10 4,-4 9,6 15,0 6,-5 6,-10 11,-5 4,4 -13,7 -9,14 4,8 -18,2 3,22 21,20 0,5 13,19 14,13 20,26 27,26 8,-1 4,2 24,8 21,6 50,18 71,20 21,2 1,4 51,22 49,18 44,27 57,18 12,-9 -15,-40 -15,-86 0,-43 -7,-42 -8,-41 0,-2 3,-17 0,-40 -4,-27 -1,-66 -8,-69 -8,-4 -7,-10 1,-10 9,0 -6,-29 -4,-59 2,-30 0,-90 0,-90l-23 0 8 -12c0,0 -26,-45 -32,-57 -5,-12 -7,-33 -14,-37 2,-11 -9,-34 -15,-46 -6,-12 -36,-52 -48,-64 -13,-12 -24,-22 -50,-36 -25,-14 -171,-104 -183,-114 -12,-9 -74,-32 -74,-32 0,0 -10,-7 -15,4 -4,10 -10,19 -10,18 0,-2 -13,1 -6,-20 4,-9 -4,-11 -12,-14 -10,-4 -21,-7 -21,-7 -7,-3 -42,-21 -47,-24 -4,-4 -17,-11 -23,-11 -6,0 -9,-3 -22,-8 -13,-5 -12,-4 -32,-9 -19,-5 -112,-43 -130,-50 -17,-7 -26,-9 -35,-16 -9,-8 -9,-7 -31,-14 -22,-8 -25,-5 -27,-12 -3,-6 3,-5 -17,-11 -21,-5 -56,-18 -67,-19 -11,0 -16,-2 -21,1 -6,4 -6,2 -12,0 -7,-2 -28,-9 -37,-12 -10,-3 -10,-5 -19,-3 -10,1 -24,-10 -48,-21 -24,-10 -44,-22 -60,-24 -21,-3 -20,0 -32,-14 -6,-7 -44,-15 -49,-21 -1,-1 -3,-2 -5,-3 -4,-2 -13,-6 -21,-9 -20,-6 -50,-10 -59,-9 -4,1 -10,-2 -18,-4 -18,-4 -44,-10 -59,-14 -3,-1 -4,-2 -6,-2 -15,-3 -28,-2 -35,-5 -13,-12 -52,-27 -76,-35 -5,-10 -10,-27 -24,-50 -5,-7 -12,-14 -19,-23 -27,-36 -39,-42 -51,-108 -3,-21 -13,-37 -21,-48 -23,-33 -57,-34 -78,-36 -28,-3 -50,-6 -50,-7 0,-1 4,-18 7,-32 0,-4 0,-8 0,-11 -1,-1 -4,-2 -13,-1z"/>
    <polygon class="fil1" points="3070,3227 3038,3277 3099,3339 3162,3393 3195,3357 3143,3260 "/>
    <path class="fil1" d="M4467 4012c-20,3 -17,-1 -15,18l3 4 14 16 7 31c0,0 33,45 36,51 2,6 4,6 -4,10 -7,5 -7,0 -5,26 2,26 5,53 5,62 0,8 4,8 13,7 9,-2 -4,5 -10,6 -6,1 0,22 -1,31 0,10 28,136 32,138 4,2 27,16 27,16 0,0 13,56 13,57 0,1 24,25 24,25 0,0 73,61 75,63l47 29 21 -5 3 7 -13 3c-2,1 -14,21 -14,23 0,2 35,22 43,27 13,10 23,10 31,-1 4,-6 4,-6 10,-1l23 17 4 6 9 6 5 0c0,0 11,16 13,18 1,2 3,7 16,-4 13,-11 66,-52 69,-56 3,-5 4,0 9,-14 5,-15 20,-49 23,-57 3,-7 1,-4 11,-10 10,-7 34,-20 36,-23 4,-8 -5,-2 8,-22 16,-24 42,-80 62,-99 2,-3 4,-7 5,-11 1,-11 7,-30 1,-39 -7,-9 -11,-29 2,-39 6,-4 6,-4 -9,-16 -7,-16 -21,-73 -29,-81 -6,-8 -6,-22 -6,-33l-31 -36 -102 -32 -33 -25c0,0 -103,-51 -108,-53 -4,-2 -10,0 -15,0 -6,-1 -36,4 -42,4 -5,0 -5,1 -5,4 1,3 -5,3 -6,-2 -1,-4 -13,-6 -21,-10 -8,-4 -6,-1 -14,3 -8,3 -13,6 -13,6 0,0 -29,-44 -30,-44l-147 -17 -13 7c2,16 3,12 -14,9z"/>
    <path class="fil1" d="M5126 3415c0,0 -18,46 -23,58 -4,12 -6,10 -15,11 -10,1 -109,10 -109,10l3 -8 -12 -5 -8 16 -129 12 -114 2 -6 -18 -8 2 -31 -19 -18 0 -120 -57c0,0 -29,-20 -28,-22l7 -17 -122 -82c-18,-12 -14,-7 -5,-37 9,-29 29,-52 29,-52 0,0 -6,-5 -6,-4 0,1 -25,38 -25,38l-12 -3c0,0 -34,47 -34,50 0,3 -92,-59 -92,-59l-20 -3 -75 -42 12 -15c0,0 -7,-4 -7,-5 0,-1 -3,4 -3,4l-6 0 -71 -18 -21 -9c0,0 -53,-36 -53,-37 0,-1 -6,-11 -6,-11l-101 -63 -5 7c0,0 -70,-35 -74,-42 -5,-6 -3,-6 -21,-9 -18,-3 -90,-34 -96,-38 -5,-4 -5,-4 -7,-2 -2,1 -3,4 -9,-3 -7,-8 -26,-15 -39,-17 -12,-2 -29,-12 -43,-16 -15,-3 -49,-13 -63,-18 -14,-4 -14,-11 -18,-2 -5,8 -6,11 -18,5 -17,-8 14,-21 4,-28 -6,-4 -9,1 -17,12 -6,8 -15,3 -15,13 0,1 -73,-18 -73,-18l4 -6 -17 -12 -23 -5c0,4 -1,5 -1,10 -3,0 -8,-2 -11,-3 -12,-3 -11,-5 -22,0 -14,6 -38,4 -58,4 -19,0 -16,-4 -28,-12 -12,-7 -10,-8 -22,-2 -18,9 -14,12 -29,-1 -15,-14 -16,-11 -46,-17 -31,-6 -22,-6 -33,-14 -11,-8 -9,8 -27,-4 -10,-6 -21,-9 -12,-20l30 -37 -8 -6c0,0 -23,30 -29,37 -7,8 -25,-2 -34,-10 -8,-7 -32,-18 -34,-19 -1,-2 -8,-13 -24,-8 -16,4 -29,-9 -29,-9l-10 -9 5 -15c0,0 -17,-5 -17,-4 0,1 -3,5 -3,5l9 5 -4 9 -33 -12 -19 -14 -11 -6 2 -9c0,0 4,3 -29,-14 -33,-16 -39,-19 -37,-22 5,-10 -2,-6 -5,-14 -3,-8 -19,-1 -19,-7 0,-6 4,-15 0,-18 -3,-3 -3,-7 -7,2 -3,8 1,7 1,7 0,0 0,2 -3,14 -4,13 -1,14 -17,6 -15,-7 -121,-69 -132,-74 -11,-5 -7,-7 -2,-16 6,-10 7,-15 5,-18 -1,-2 -8,-2 -14,0 -7,1 -5,1 -12,-3 -7,-5 -50,-32 -50,-32 0,0 -7,-2 -11,-1 -3,1 -14,-5 -17,-10 -2,-4 -4,-1 -11,-3 -8,-1 -7,-12 -3,-21 3,-9 -3,-6 -3,-6l-6 14 -7 -4 -4 -9c0,0 -70,-38 -70,-39 0,-1 4,-8 4,-8l-22 -3 -43 -24 4 -12c0,0 -6,-7 -19,-10 -13,-3 -58,-28 -58,-28l-20 -8c0,0 -11,4 -11,3 0,-1 -11,-13 -18,-20 -4,-4 -4,-7 -4,-8 1,-5 -4,-3 -5,-1 -4,6 0,3 -11,3 -14,0 -21,-7 -21,-7l-23 -7 -5 9 -26 -6c0,0 -146,-72 -151,-76 -6,-4 -7,-13 -7,-13 0,0 -14,-5 -29,-12 -14,-7 -8,2 -14,4 -5,2 -12,-8 -17,-8 -5,-1 -19,-11 -21,-16 -2,-6 -35,-40 -35,-40l-8 4c-6,-7 -12,-14 -18,-20 -17,3 -16,2 -33,-2 -21,-10 -24,-12 -27,-16 -11,-13 -13,-9 -26,-9 -10,-1 -43,-19 -47,-22 -7,-6 -36,-13 -59,-18 -20,-5 -39,-9 -52,-11 -22,-3 -12,-1 -28,-11 -16,-10 -38,-19 -46,-30 -8,-12 -7,-3 -12,-11 -5,-9 1,-13 1,-13l9 -15 -4 -2 -5 6 -11 10 -15 -15 -2 -19 5 -5c-18,-17 -59,-46 -93,-60 -23,-10 -31,-8 -57,-20 -11,-6 -27,-14 -38,-20 -2,0 -97,-79 -94,-82 4,-3 8,-7 7,-8 -10,-5 -43,-30 -49,-41l-6 7 -12 -10c-21,-16 -47,-35 -69,-52 -18,-13 11,-4 -10,-28 -17,-21 -50,-79 -96,-112 0,0 -41,-57 -49,-67 -7,-8 -15,-27 -10,-37 3,-4 13,-23 13,-23l-23 -17c0,0 -2,-5 -22,22 -28,35 -43,35 -84,28 -23,-4 -206,-83 -206,-83 0,0 -2,-2 -5,-6 -6,-8 -16,-21 -24,-33 -8,-13 -13,-25 -14,-27 -3,-5 -8,-17 -8,-17 0,0 -12,-16 -9,-18 5,-3 15,-9 21,-12 11,-5 25,-9 38,-12 33,-7 66,-8 79,-8 21,1 23,1 23,1 -3,-14 -4,-35 -24,-23l-21 -29 -12 -7 -51 1 -222 -49 -16 -23 3 -37 -9 -1c0,0 -1,8 -1,13 -1,5 -2,12 -5,7 -16,-22 -103,-155 -115,-172l11 1 1 -8 -19 -3 -26 -39c-2,2 -5,3 -8,4 -38,-23 -79,-73 -110,-107 -3,-4 -51,-81 -58,-91 -6,-10 -5,-10 -3,-13 9,-12 15,-28 20,-35 1,-3 16,-18 26,-27 55,-44 105,-97 150,-133 8,-7 30,-23 32,-26 2,-2 40,-29 40,-29l-4 -8 96 -75c0,0 4,-11 10,-16 9,-7 41,-30 52,-33l7 21 8 -7c0,0 -1,-9 -1,-14 0,-5 -4,-9 11,-17l269 -145c39,-22 92,-40 134,-58 22,-10 46,-14 69,-22 26,4 53,7 80,10l141 76 21 41c0,0 6,3 13,5 7,1 8,4 7,12 -3,16 -2,15 2,16 16,4 4,-32 6,-46 1,-3 30,8 38,10 2,0 90,60 104,70 15,11 42,25 51,27 9,2 24,16 39,30 14,13 15,14 15,14l-3 18 8 2 3 -9c46,28 58,35 98,66 11,-10 10,-6 25,-2 11,5 21,8 30,15l8 -6 13 3 84 38c0,0 12,2 17,1 5,-1 13,4 17,10 5,6 8,7 8,7l13 -11c0,0 8,1 16,2 9,1 37,2 42,3 5,1 60,14 79,22 18,8 82,43 116,65 66,41 132,84 196,128 24,16 67,43 113,73 75,51 156,106 161,110 9,6 273,195 280,198 8,3 81,58 87,62 5,3 48,23 56,28 8,4 131,81 151,100 22,19 76,50 104,79 29,30 83,72 88,78 5,6 4,10 0,12 -5,2 2,12 2,12 0,0 15,-4 28,6 14,10 172,124 178,132 5,7 25,36 21,48 -1,4 7,6 12,12 10,9 22,24 31,33 5,5 101,53 111,56 24,8 121,32 135,36 15,4 15,4 8,17 -8,13 -101,175 -103,187 -3,12 14,10 14,10 0,0 21,-32 23,-34 1,-2 1,-4 9,0 68,33 230,85 297,98 13,3 24,7 24,7l38 18 155 23 172 82c0,0 4,1 -1,9 -3,5 9,7 13,0 23,-38 16,-62 75,-57l231 20c48,4 84,1 63,49l-46 104 11 5 5 -10 21 2 0 -14 -7 -5 49 -124c8,-20 10,-34 35,-32 17,1 39,1 47,2 44,1 119,24 163,41 31,12 63,31 88,54 21,20 45,45 45,55 0,17 -4,11 -4,11 27,23 53,46 79,70 9,9 6,9 7,22l12 -3c4,-1 6,-2 9,4 38,56 73,70 123,112 35,30 68,57 73,62 14,12 142,126 142,126l86 96 46 71 38 97c8,21 9,33 9,48 -1,23 -3,58 -4,78 -1,23 4,29 -27,19 -31,-10 -195,-59 -195,-59l-40 105 -62 125c0,0 -88,81 -113,102 -11,9 -9,8 0,14 9,6 19,13 21,14 3,1 5,4 -2,8l-83 54 -89 43 -97 -5z"/>
   </g>
   <g id="青紫泥">
    <polygon class="fil2 str0" points="635,932 674,928 683,940 692,954 707,975 707,1013 699,1054 685,1096 674,1116 647,1114 635,1091 637,1047 649,1011 654,982 648,961 603,935 "/>
    <polygon class="fil2 str0" points="1650,808 1660,852 1667,887 1661,920 1644,947 1641,929 1637,897 1631,850 1624,809 1621,788 1596,739 1590,715 1592,683 1589,657 1591,627 1594,604 1602,580 1614,594 1618,630 1625,671 1631,703 1647,788 "/>
   </g>
   <g id="黄泥">
    <polygon id="黄泥_0" class="fil3 str0" points="613,656 639,656 672,649 672,681 664,714 667,731 703,766 698,810 684,834 669,843 654,840 588,756 573,733 570,710 575,677 593,662 "/>
    <polygon class="fil3 str0" points="1335,1078 1349,1072 1361,1052 1381,1048 1393,1072 1385,1098 1374,1128 1386,1157 1390,1186 1378,1210 1349,1216 1337,1231 1326,1246 1296,1244 1265,1268 1232,1271 1220,1251 1214,1207 1192,1175 1166,1155 1142,1149 1127,1129 1133,1114 1150,1102 1176,1096 1185,1087 1179,1075 1144,1073 1146,1052 1158,1032 1175,1022 1196,1022 1225,1039 1276,1082 1303,1085 "/>
    <polygon class="fil3 str0" points="1578,1697 1587,1730 1634,1732 1652,1749 1656,1778 1650,1811 1621,1811 1597,1794 1568,1786 1553,1818 1533,1836 1501,1843 1489,1817 1488,1778 1490,1728 1478,1705 1475,1682 1474,1655 1497,1619 1502,1590 1508,1560 1534,1560 1546,1572 1562,1618 1591,1635 1598,1659 "/>
    <polygon class="fil3 str0" points="1749,1597 1788,1617 1821,1631 1859,1625 1900,1604 1900,1636 1895,1662 1889,1698 1890,1736 1855,1751 1921,1797 1950,1808 2009,1816 2062,1818 2097,1818 2101,1838 2101,1853 2116,1873 2125,1897 2123,1920 2102,1935 2028,1892 1987,1899 1970,1917 1961,1938 1956,1952 1965,1967 1994,1966 2026,1969 2041,1980 2045,1998 2043,2068 2008,2075 1960,2041 1936,2012 1906,1989 1877,1980 1868,1966 1873,1951 1896,1924 1893,1912 1893,1886 1904,1877 1916,1868 1924,1847 1808,1764 1800,1782 1800,1805 1777,1803 1744,1765 1731,1727 1727,1677 1735,1630 "/>
    <polygon class="fil3 str0" points="1799,1391 1835,1420 1874,1460 1886,1492 1889,1510 1896,1554 1849,1554 1831,1528 1804,1499 1786,1479 1776,1441 1779,1415 "/>
    <polygon class="fil3 str0" points="1864,1240 1884,1222 1920,1236 1944,1262 1938,1291 1924,1303 1894,1313 1856,1302 1844,1287 1849,1261 "/>
    <path class="fil3 str0" d="M2286 2329l13 -62 -12 -35 -117 -101 3 -27 20 -12 33 11 29 -18 14 -15 27 9 15 32 4 41 21 23 38 -15 20 -4 9 18 -8 32 15 15 38 11 18 20 7 21 24 17 12 23 -6 33 -35 6 -23 24 -23 46 -20 -6 -44 -24 4 -12c0,0 -11,-9 -19,-10 -7,-1 -59,-28 -60,-28 -1,-1 3,-13 3,-13z"/>
    <path class="fil3 str0" d="M2521 2493l14 -18 21 -18 31 -13 9 -24 -1 -32 -9 -20 -3 -36 8 -29 30 38 27 43 10 62 33 40 -4 77 -2 46c0,0 -48,-29 -57,-33 -8,-3 -13,-3 -9,-11 5,-7 16,-27 3,-25 -12,2 -9,5 -26,-5 -16,-11 -39,-29 -46,-29 -7,-1 -11,0 -15,-2 -4,-2 -14,-11 -14,-11z"/>
    <polygon class="fil3 str0" points="3080,2359 3091,2326 3141,2326 3156,2331 3220,2330 3224,2348 3244,2350 3271,2379 3278,2408 3219,2418 3151,2384 3109,2373 "/>
    <polygon class="fil3 str0" points="3146,2766 3157,2737 3201,2713 3241,2671 3249,2615 3249,2594 3263,2594 3281,2579 3298,2567 3333,2552 3404,2559 3448,2582 3425,2609 3372,2604 3331,2607 3302,2629 3276,2664 3268,2697 3277,2726 3319,2746 3337,2766 3317,2796 3302,2793 3254,2762 3219,2753 3181,2760 "/>
    <polygon class="fil3 str0" points="3594,2497 3665,2516 3651,2561 3660,2590 3666,2619 3661,2646 3635,2655 3591,2659 3617,2629 3619,2591 3613,2567 3568,2542 "/>
    <polygon class="fil3 str0" points="3712,2710 3738,2700 3762,2700 3786,2714 3813,2740 3834,2763 3825,2793 3808,2805 3787,2802 3766,2791 3746,2777 3728,2759 3716,2751 3704,2730 "/>
    <polygon class="fil3 str0" points="4170,2831 4209,2857 4218,2871 4192,2910 4183,2916 4160,2922 4137,2940 4110,2955 4098,2944 4098,2923 4104,2903 4092,2891 4088,2876 4094,2865 4129,2861 4147,2852 "/>
    <polygon class="fil3 str0" points="4396,2959 4443,2964 4449,2979 4429,3020 4456,3035 4416,3097 4398,3097 4389,3068 4385,3015 4381,2983 "/>
    <polygon class="fil3 str0" points="4551,3292 4597,3191 4622,3155 4646,3140 4657,3108 4689,3110 4667,3154 4652,3190 4633,3228 4619,3276 4613,3308 4566,3435 4543,3424 4514,3401 4521,3385 4497,3369 "/>
    <polygon id="黄泥_1" class="fil3 str0" points="1413,874 1468,809 1504,811 1496,879 1502,911 1515,940 1515,978 1513,1022 1487,1043 1457,1006 1459,941 1443,909 "/>
   </g>
   <g id="并煞砂土">
    <polygon class="fil4 str0" points="214,548 232,548 276,550 305,556 332,552 353,555 373,557 391,563 418,580 447,600 468,611 498,614 481,649 478,685 458,709 438,721 423,706 413,674 404,654 387,657 372,678 370,710 365,737 324,767 272,821 248,818 236,801 245,789 250,768 256,747 264,727 273,712 275,688 266,671 248,656 228,657 172,658 148,632 145,597 153,582 173,567 191,560 "/>
    <path class="fil4 str0" d="M725 1010l38 11 15 14 10 29 -24 19 -20 9 -5 20 9 24 27 17 26 11 73 -54 35 26 54 37 33 23 35 17 -2 38 -20 15 -44 -8 -42 -17 -57 -46 -23 27 -25 48 -8 44 -19 -38 -80 -49 -5 -18c-4,-5 -16,-1 -16,-5 -3,-33 -17,-28 -24,-24l-12 -13 -10 -15 -13 -8 -45 3 -121 -27 3 -24 -1 -41 15 -15 38 -3 41 5 30 32 27 29 29 11 27 2 11 -20 14 -42 8 -41 18 -3z"/>
   </g>
   <g id="旱作灰潮土">
    <path id="旱作灰潮土_2" class="fil5 str0" d="M203 427l-4 63 0 29 15 29 -23 12 -18 7 -20 15 -8 15 3 35 24 26 56 -1 20 -1 18 15 9 17 -2 24 -9 15 -8 20 -6 21 -5 21 -9 12 12 17 24 3 52 -54 41 -30 5 -27 2 -32 15 -21 17 -3 9 20 10 32 15 15 20 -12 20 -24 33 37 16 32 32 29 13 27 6 26 33 52 24 44 -32 3 45 26 6 21 -5 29 -12 36 -2 44 12 23 -29 -11 -27 -29 -30 -32 -41 -5 -38 3 -15 15 1 42 -3 23 -106 -23 -16 -23 4 -38 -10 -1c0,0 0,26 -4,22 -3,-4 -116,-174 -116,-174l8 1 2 -8 -17 -3 -26 -39 -9 5c0,0 -86,-72 -110,-108 -23,-36 -64,-95 -62,-100 1,-5 18,-35 19,-37 17,-21 129,-121 181,-167z"/>
    <polygon id="旱作灰潮土_3" class="fil5 str0" points="689,637 797,585 830,620 860,640 898,654 939,662 957,650 963,644 1032,584 1053,595 1062,616 1048,645 1045,672 1043,696 1058,713 1076,733 1064,751 1053,778 1033,781 1023,761 1023,740 1017,722 996,711 967,709 943,712 914,721 882,728 846,720 802,709 778,691 751,671 734,663 713,657 "/>
    <path id="旱作灰潮土_4" class="fil5 str0" d="M1008 1548l11 -23 45 -107 -12 -32 -33 -40 -29 0 -24 3 -23 13 -21 3 -24 5c0,0 30,11 25,19 -5,9 -17,24 -12,36 4,11 16,31 23,37 15,20 27,44 58,69 5,4 10,13 16,17z"/>
    <polygon id="旱作灰潮土_5" class="fil5 str0" points="1021,958 1064,874 1076,892 1102,900 1140,897 1179,899 1200,910 1215,931 1180,969 1139,973 1092,1009 1093,1024 1070,1042 1052,1025 1051,1007 1051,986 1036,963 "/>
    <polygon id="旱作灰潮土_6" class="fil5 str0" points="1307,673 1319,685 1317,708 1305,729 1276,730 1238,745 1203,763 1174,776 1147,767 1135,741 1137,711 1143,691 1160,679 1175,676 1190,690 1211,704 1234,707 1266,697 "/>
    <polygon id="旱作灰潮土_7" class="fil5 str0" points="1339,1469 1377,1501 1396,1539 1402,1574 1383,1630 1356,1634 1326,1614 1308,1582 1308,1555 1316,1540 1307,1520 1301,1485 1312,1467 1324,1464 "/>
    <path id="旱作灰潮土_8" class="fil5 str0" d="M1582 2042l4 -66 10 -70 -3 -18 -18 -2 -55 48 -32 34 12 11c0,0 15,-18 17,-16 2,1 3,0 0,6 -4,6 -11,14 -9,18 2,4 2,8 6,9 3,1 6,4 9,8 3,5 19,15 31,21 11,5 28,17 28,17z"/>
    <path id="旱作灰潮土_9" class="fil5 str0" d="M2762 2653l-77 -44 2 -46 4 -77 -33 -40 -10 -62 -27 -43 -30 -38 17 -42 23 -32 74 69 59 5 32 -30 14 -71 -51 -49 -44 10 -27 6 -30 -35 -52 25 -50 -5 -143 -89 -35 -14 16 -77 8 -26 70 -72 -19 -32 -32 -23 -33 0 -49 34 -36 -20 -20 -15 -65 1 1 -94 2 -44 -32 -20 -21 1 -11 14 -3 27 12 32 7 53 -2 32 -17 24 -18 -8 -7 -50 -16 -53 -24 -29 -41 -26 -39 -11 -32 4 -14 18 -9 23 -8 50 -11 27 -14 6 -66 -46 35 -15 -1 -38 6 -36 5 -26 0 -32 -4 -50 -7 -44 -3 -18 -12 -32 -39 -40 -36 -29 -42 -47 -9 -14 -50 4 -39 -8 -32 -35 2 -33 5 -53 11 -44 17 -29 38 -13 20 -9 6 -21 -4 -38 -39 -43 -27 -26 0 -21 -12 -14 17 -27 37 61 36 52 53 40 33 38 111 92 47 32 64 90 63 99 183 202 151 89 39 20 166 67 30 23 23 -6 112 13 156 6 123 3 59 -6 39 11 89 45 68 31 44 2 104 75 44 -1 190 118 53 10 50 -3 66 45 50 41 89 33 64 -33 29 -15 27 26 45 2 21 29 9 41 54 31 29 26 4 47 54 26 68 60 39 14 67 2 41 -33 30 17 -9 30 13 35 51 72 42 35 59 8 49 -10 13 29 -2 53 13 97 1 62 -19 82 -2 68 13 26 -37 68 18 32 39 38 245 281 -115 11 2 -6 -11 -8 -8 16 -129 13 -113 2 24 -254 16 -83 -22 -50 -35 -19 -21 0 -32 -2 -21 -3 -29 -11 -9 -9 -34 -52 -29 -14 -30 0 -49 16 -27 -15 20 -41 -6 -15 -47 -5 -41 10 -35 39 -44 6 -18 -44 28 -38 -15 -21 -17 -5 -36 -35 -9 -14 -39 -26 -12 -12 -62 -2 -111 17 -54 -61 -42 -25 -45 -44 -12 -26 -29 3 -19 -46 -24 -41 -13 -53 -71 -22 -11 -3 -71 -19 -30 -11 -35 3 -29 27 -52 66 -44 -23 -71 -7 49 -37 6 -26 -50 1 -38 15 -35 36 -14 35 -2 18 0 21 -8 56 -40 42 -44 24 -11 29 -41 5 -26 35c15,-21 26,-37 32,-44 2,-2 -5,-9 -8,-6 -9,9 -31,41 -33,39l-21 -30 11 -41 26 -9 24 2 54 -71 35 -25 0 -20 85 -143 12 -38 -18 -12 -7 -29 -27 -29 -20 -2 -4 -18 -50 -43 -30 -26 -47 1 -8 35 6 29 -11 33 -32 9 -32 45 -23 45 7 44 0 26 -14 15 3 29 1 33 -26 29 -23 30 -11 27 2 26 -3 5 9 6 -4 9 -33 -12 -19 -15 -11 -6 1 -8c-22,-11 -44,-21 -64,-33 -3,-2 1,-5 1,-8 0,-1 -3,-4 -5,-5 -4,-9 -7,-8 -10,-8 -7,-2 -13,2 -9,-15 0,-7 -4,-13 -9,-5 -3,5 2,7 -1,15 -3,10 -2,22 -13,16zm-898 -1413l-15 21 -5 26 12 15 38 11 30 -10 14 -12 6 -29 -24 -26 -36 -14 -20 18z"/>
    <path class="fil5 str0" d="M1716 2059l9 -14 0 -27 4 -53 0 -17 6 -30 20 -6 9 14 6 30 21 17 10 23 -9 30 -2 53 -4 31c-13,-11 -11,-13 -27,-14 -18,-2 -33,-12 -52,-23l9 -14z"/>
    <polygon class="fil5 str0" points="3532,2639 3508,2657 3500,2663 3479,2684 3456,2682 3447,2658 3461,2623 3484,2596 3504,2581 3548,2580 3557,2586 3566,2606 3552,2624 "/>
    <polygon class="fil5 str0" points="4139,3087 4168,3066 4206,3054 4241,3056 4283,3070 4313,3093 4340,3119 4290,3158 4259,3191 4259,3209 4255,3236 4234,3232 4209,3218 4211,3186 4214,3142 4201,3113 4177,3095 "/>
   </g>
   <polygon id="园林灰潮土" class="fil6 str0" points="1487,1043 1513,1022 1537,1031 1557,1025 1566,1019 1568,989 1565,954 1621,956 1656,982 1663,1026 1652,1046 1611,1062 1587,1074 1567,1098 1559,1122 1536,1145 1524,1137 1518,1111 1514,1069 1502,1046 "/>
   <g id="黄泥盐土">
    <polygon class="fil7 str0" points="2610,1186 2642,1200 2882,1325 2998,1382 2907,1533 2874,1528 2850,1487 2841,1455 2840,1428 2834,1414 2819,1408 2790,1391 2730,1339 2715,1337 2677,1343 2644,1302 2620,1262 2604,1221 "/>
    <polygon class="fil7 str0" points="797,585 835,558 867,528 884,510 901,510 911,521 908,536 890,554 882,572 885,595 894,613 901,627 898,654 860,640 830,620 "/>
   </g>
   <g id="夹砂盐土">
    <polygon class="fil8 str0" points="2907,1533 2998,1382 3069,1427 3141,1485 3231,1566 3112,1682 3095,1694 3063,1704 3039,1687 3020,1646 2955,1609 "/>
    <polygon class="fil8 str0" points="4288,2173 4294,2049 4330,2066 4354,2077 4356,2181 4362,2228 4401,2265 4381,2286 4354,2281 4309,2235 "/>
    <polygon class="fil8 str0" points="4506,2231 4514,2166 4582,2195 4703,2240 4696,2304 4670,2358 4612,2365 4582,2368 4573,2359 4570,2315 4563,2289 4543,2289 4502,2317 4504,2264 "/>
   </g>
   <g id="黄泥盐化土">
    <path class="fil9 str0" d="M1139 115l14 -13 13 27 13 5c16,5 -6,28 11,29 13,1 5,-34 5,-46 0,-6 40,10 45,13l-59 84 -61 7 -38 36 -32 -23 13 -62 76 -57z"/>
    <polygon class="fil9 str0" points="1650,808 1674,787 1682,790 1695,816 1710,837 1722,851 1739,848 1763,830 1774,839 1784,885 1838,914 1873,940 1891,972 1836,1017 1739,1004 1759,953 1697,952 1667,887 1660,852 "/>
    <polygon class="fil9 str0" points="1819,697 1825,697 1846,714 1867,746 1873,778 1853,802 1820,764 1805,723 "/>
    <polygon class="fil9 str0" points="2112,988 2124,985 2142,988 2154,1008 2154,1041 2152,1099 2153,1149 2121,1179 2092,1171 2080,1139 2097,1100 2108,1068 2101,1033 2104,1006 "/>
    <polygon class="fil9 str0" points="2715,1337 2730,1339 2790,1391 2819,1408 2834,1414 2840,1428 2841,1455 2850,1487 2818,1488 2761,1433 2722,1419 2698,1390 2692,1363 "/>
    <polygon class="fil9 str0" points="3147,1835 3091,1812 3079,1783 3090,1765 3108,1765 3143,1764 3184,1763 3199,1775 3182,1813 "/>
    <polygon class="fil9 str0" points="4423,2324 4443,2318 4464,2335 4539,2389 4562,2415 4533,2434 4466,2417 4424,2391 4400,2362 4399,2339 "/>
    <polygon class="fil9 str0" points="2644,1802 2646,1761 2660,1726 2648,1699 2630,1700 2607,1721 2566,1718 2568,1668 2562,1654 2515,1640 2500,1620 2508,1590 2537,1566 2539,1528 2518,1519 2471,1523 2465,1497 2476,1452 2520,1416 2528,1378 2565,1339 2586,1339 2595,1350 2579,1433 2580,1486 2584,1568 2596,1606 2632,1629 2673,1637 2677,1687 2689,1710 2716,1704 2736,1692 2750,1677 2768,1647 2785,1638 2806,1644 2821,1661 2816,1711 2802,1758 2782,1782 2749,1774 2726,1780 2697,1819 2674,1825 "/>
    <polygon class="fil9 str0" points="1477,312 1516,329 1524,324 1548,344 1560,337 1537,366 1505,417 1480,450 1477,485 1501,496 1522,508 1525,528 1511,558 1476,576 1432,568 1422,539 1428,512 1442,497 1450,462 1441,448 1450,433 1461,409 1458,391 1455,365 1466,347 1480,326 "/>
   </g>
   <g id="夹砂盐化土">
    <polygon class="fil10 str0" points="3220,2330 3156,2331 3141,2326 3091,2326 3085,2297 3093,2262 3140,2261 3170,2287 "/>
    <path class="fil10 str0" d="M199 490l4 -61 34 -27 35 -26c-10,-11 35,-34 53,-51l40 -31c6,-21 40,-35 61,-50l7 21c3,-2 6,-4 8,-7 2,-23 67,-51 88,-62l201 -77 44 -10 91 -25 41 0 141 -6 100 19 9 3 -17 15 -76 57 -13 62 32 23 38 -36 61 -7 59 -84 23 16 66 45 -1 3 -26 33 -23 29 -14 15 -6 21 1 21 17 8 30 0 26 -10 23 -27 20 -29 21 -7 15 15 3 26 -23 21 12 15 9 5 35 -12 29 -6 3 14 -14 21 -11 18 3 26 3 18 -11 24 -9 15 9 14 -8 35 -14 15 -6 27 10 29 44 8 35 -18 14 -30 -3 -20 -21 -12 -24 -11 3 -35 25 -33 32 -51c10,-11 15,-26 21,-26 14,-2 26,8 41,14 3,2 5,5 9,0 4,-5 32,7 82,30 9,4 19,11 29,9 15,-2 21,6 25,12 5,7 7,6 9,4 8,-11 127,86 139,101l9 18 146 88 125 83 75 72 24 32 36 41 24 38 36 37 36 44 69 81 42 34 45 61 12 6 39 41 -6 35 16 41 24 40 33 41 38 -6 -23 26 6 27 24 29 39 14 57 55 32 -1 24 41 33 5 48 76 65 37 19 41 24 17 32 -10 17 -12 119 -116 137 94 50 29 36 20 86 54 113 66 32 17 15 9c-5,11 -33,48 -18,54 9,4 11,1 18,-11 4,-5 9,-14 13,-19 7,-9 7,-5 15,-1 25,12 51,22 77,32l49 21 89 31 59 22 36 14 29 12 36 14 68 7 50 5 52 4 21 9 -6 124 21 62 45 46 27 5 20 -21 -39 -37 -6 -47 -2 -104 59 29 48 44 53 16 -8 65 -2 33 -2 53 41 -28 20 0 7 26 3 44 9 9 30 -3 58 -7 26 -54 7 -64 115 9 80 11 38 5 50 8 44 5 68 13 41 0 128 77 18 11 9 0 9 26 90 69 221 196 -1 256 -54 138 -63 126 -120 110 -358 -213 -15 -12 -38 1 -41 3 -50 4 -12 -14 -26 0 -13 -26 2 -68 19 -82 -1 -62 -13 -97 2 -53 -13 -29 18 -21 -7 -20 -18 -35 -30 -26 -38 -29 -28 -41 -20 -14 -21 9 -26 12 -35 -5 -30 -17 -41 33 -67 -2 -39 -14 -68 -60 -54 -26 -4 -47 -29 -26 -54 -31 -9 -41 -21 -29 -45 -2 -27 -26 -29 15 -64 33 -89 -33 -50 -41 -66 -45 5 -71 -21 -17 -41 -6 -35 30 -42 -31 0 -30 -27 -20 -32 -11 -44 7 -56 24 -44 1 -104 -75 -44 -2 -68 -31 -89 -45 -39 -11 35 -22 17 -38 -15 -12 -41 1 -35 1 -18 0 -11 18 12 29 56 23 -59 6 -123 -3 -156 -6 -112 -13 29 -39 23 -6 33 8 20 -24 14 -47 5 -50 -15 -17 -21 -6 -17 9 -18 30 -14 15 -20 12 -27 6 -12 -23 -4 -50 -41 -8 -36 -23 -12 -38 -4 -82 -1 -53 16 -83 -9 -11 -21 0 -37 39 -8 38 -44 36 -11 45 6 26 47 -4 21 9 -2 38 -29 24 -8 30 15 20 47 14 6 14 -2 50 41 3 23 -21 18 -1 12 27 -14 35 -2 41 -166 -67 -39 -20 -151 -89 -183 -202 -63 -99 -64 -90 -47 -32 -111 -92 -33 -38 -53 -40 -36 -52 -37 -61 6 -33 30 65 62 1 -20 51 97 13 55 -45 -18 -32 -35 -26 -54 -29 -10 -46 -11 -9 -24 18 -17 3 -12 -14 -15 -21 -13 -26 -8 -3 -24 21 -3 -20 -16 -85 -6 -32 -7 -41 -4 -36 -12 -14 -8 24 -3 23 -2 30 3 26 -2 32 6 24 25 49 -21 -2 -24 -6 -26 -14 -24 -41 -27 -29 -45 -37 -36 -17 -32 -17 -33 -8 -32 -3 -30 7 -40 15 -87 -51 -32 -32 -25 -47 -12 -32 -12 -14 -18 6 -14 24 -5 32 -3 32 -11 30 -69 60 -15 -3 -3 -17 14 -36 20 -24 11 -12 -6 -20 14 -24 15 -27 -65 -10 -9 6 -5 21 -9 8 -6 1 -8 14 -10 -11 -17 0 -17 18 -32 30 -38 27 -108 52 -17 12 -33 7 -26 0 -15 -35 -21 -3 -23 1 -21 -3 -18 -2 -17 0 -30 -3 -21 -11 -29 -20 -27 -17 -18 -6 -20 -2 -21 -3 -27 4 -29 -6 -44 -2 -18 0 -15 -29 0 -29zm4224 1834l-24 15 1 23 24 29 42 26 67 17 29 -19 -23 -26 -75 -54 -21 -17 -20 6zm-2311 -1336l-8 18 -3 27 7 35 -11 32 -17 39 12 32 29 8 32 -30 -1 -50 2 -58 0 -33 -12 -20 -18 -3 -12 3zm-293 -291l-14 26 15 41 33 38 20 -24 -6 -32 -21 -32 -21 -17 -6 0z"/>
   </g>
   <g id="砂质盐化土">
    <path id="砂质盐化土_10" class="fil11 str0" d="M1466 288l56 37 -6 4 -39 -17 -29 6 -35 12 -9 -5 -12 -15 23 -21 -3 -26 -15 -15 -21 7 -20 29 -23 27 -26 10 -30 0 -17 -8 -1 -21 6 -21 14 -15 23 -29 28 -36c15,11 28,20 53,31 13,5 27,15 40,28 7,6 20,15 19,22 -1,3 -5,12 0,14 4,1 5,1 6,-5 2,-5 15,4 18,7z"/>
    <polygon id="砂质盐化土_11" class="fil11 str0" points="774,109 865,84 906,84 904,139 889,157 872,181 861,220 847,229 817,209 790,185 775,145 "/>
    <polygon id="砂质盐化土_12" class="fil11 str0" points="3535,1998 3591,1974 3635,1967 3667,1978 3694,1998 3694,2028 3736,2059 3771,2029 3812,2035 3833,2052 3828,2123 3778,2126 3725,2116 "/>
    <polygon id="砂质盐化土_13" class="fil11 str0" points="4614,2482 4649,2487 4675,2475 4696,2466 4716,2480 4744,2521 4782,2550 4812,2576 4830,2611 4837,2631 4819,2652 4770,2662 4711,2654 4669,2619 4618,2547 4605,2512 "/>
    <polygon id="砂质盐化土_14" class="fil11 str0" points="4836,3069 4862,3069 4874,3083 4924,3079 4965,3076 5003,3075 5018,3087 5376,3299 5407,3323 5303,3393 5230,3424 5133,3419 5105,3487 4856,3207 4817,3169 4799,3137 "/>
   </g>
   <g id="砂夹黄">
    <polygon id="砂夹黄_15" class="fil12 str0" points="478,685 481,649 498,614 515,614 533,616 554,619 577,618 598,621 613,656 593,662 575,677 570,710 573,733 588,756 559,783 527,754 511,722 "/>
    <path class="fil12 str0" d="M825 1339l-15 -25 8 -44 25 -48 23 -27 57 46 42 17 -12 12 18 21 42 34 6 21 -29 0 -24 3 -23 13c0,0 -43,5 -45,8 -3,2 -19,22 -19,22 -5,-3 -9,-5 -13,-9 -16,-11 -26,-24 -41,-44z"/>
    <polygon class="fil12 str0" points="914,721 943,712 967,709 996,711 1017,722 1023,740 1023,761 1033,781 1053,778 1014,872 982,908 982,926 1021,958 1036,963 1051,986 1051,1007 1052,1025 1014,1037 984,1038 957,1014 931,1003 898,1001 878,995 877,978 929,933 944,903 937,877 919,868 867,869 855,855 863,816 894,763 "/>
    <polygon class="fil12 str0" points="1031,1213 996,1196 963,1173 909,1136 874,1110 867,1060 881,1033 916,1027 940,1032 952,1056 964,1085 991,1120 1024,1137 1051,1157 1057,1177 "/>
    <polygon class="fil12 str0" points="911,521 919,507 925,506 934,498 939,477 948,471 1013,481 998,508 984,532 990,552 979,564 959,588 945,624 948,641 963,644 957,650 939,662 898,654 901,627 894,613 885,595 882,572 890,554 908,536 "/>
    <path class="fil12 str0" d="M1153 1711c7,6 6,3 8,0 3,-3 3,-3 7,3 4,5 32,27 41,34 10,6 3,5 0,7 -3,2 -3,3 0,7 4,5 17,15 17,15l18 -30 37 -50 23 -36 23 11 13 27 0 41 -7 67 14 -32 40 -54 50 -33 -10 -44 -13 -61 -12 -9 -19 56 -27 4 -30 -20 -18 -32 0 -27 8 -15 -9 -20 -6 -35 11 -18 12 -3 15 5 8 -29 -12 -35 -4 -27 15 -18 53 11 35 -18 11 -24 5 -26 -12 -29 -15 3 -41 -2 -29 -18 -16 -26 -11 15 -14 36 -23 21 -17 29 -9 42 7 23 3 32 -35 -5 -61 54 1 35 36 32 0 21 -29 3 -33 -23 -19 -47 -6 -35 -24 -32 -39 -14 -56 130c0,0 47,62 56,74 9,11 12,18 10,20 -3,3 -6,5 4,13 10,7 75,56 75,56z"/>
    <polygon class="fil12 str0" points="1032,584 1043,554 1046,522 1051,490 1065,466 1083,460 1095,474 1107,506 1132,553 1164,585 1251,636 1289,668 1307,673 1266,697 1234,707 1211,704 1190,690 1175,676 1160,679 1143,691 1137,711 1135,741 1147,767 1174,776 1203,763 1238,745 1276,730 1305,729 1311,744 1329,749 1349,740 1381,707 1396,704 1411,718 1408,742 1412,763 1432,768 1459,765 1488,761 1500,767 1503,787 1504,811 1468,809 1413,874 1399,880 1396,866 1395,842 1378,834 1334,870 1314,882 1261,886 1215,931 1200,910 1179,899 1140,897 1102,900 1076,892 1064,874 1103,786 1106,750 1076,733 1058,713 1043,696 1045,672 1048,645 1062,616 1053,595 "/>
    <polygon class="fil12 str0" points="1550,766 1576,780 1600,786 1621,788 1624,809 1631,850 1637,897 1641,929 1644,947 1656,961 1656,982 1621,956 1565,954 1559,930 1558,904 1545,851 1550,801 "/>
    <polygon class="fil12 str0" points="1757,1344 1799,1391 1779,1415 1776,1441 1786,1479 1804,1499 1831,1528 1849,1554 1896,1554 1900,1604 1859,1625 1821,1631 1788,1617 1749,1597 1743,1568 1739,1518 1733,1486 1706,1454 1708,1413 1728,1377 "/>
    <path class="fil12 str0" d="M1816 2043l35 -15 32 -1 36 5 41 9 48 34 35 -7 30 47 24 32 39 29 39 34 33 29 3 53 1 19c0,0 -13,-5 -16,-6 -2,-2 -22,-7 -22,-7l-7 8 -26 -6 -138 -69c0,0 -16,-6 -18,-13 -3,-7 -4,-7 -4,-7l-34 -15c0,0 -4,11 -11,6 -7,-4 -12,-8 -16,-9 -4,-1 -14,-7 -18,-15 -5,-8 -35,-40 -35,-40l-8 5 -19 -21c0,0 -21,5 -32,-1 -12,-6 -22,-11 -22,-11 5,-39 7,-35 30,-67z"/>
    <polygon class="fil12 str0" points="2218,1821 2201,1842 2201,1875 2216,1895 2211,1913 2184,1913 2158,1946 2135,1949 2102,1935 2123,1920 2125,1897 2116,1873 2101,1853 2101,1838 2097,1818 2062,1818 2058,1768 2040,1745 2014,1740 1978,1746 1946,1764 1954,1714 1963,1691 1977,1673 2009,1669 2048,1680 2089,1706 2113,1735 2129,1788 2136,1838 2154,1846 2171,1822 2173,1790 2166,1737 2154,1705 2157,1678 2168,1664 2189,1663 2221,1683 2219,1727 "/>
    <polygon class="fil12 str0" points="2378,2051 2359,2016 2359,1975 2373,1948 2390,1910 2375,1883 2339,1855 2388,1821 2421,1821 2453,1844 2472,1876 2402,1948 2394,1974 "/>
    <polygon class="fil12 str0" points="3333,2552 3298,2567 3281,2579 3263,2594 3249,2594 3251,2576 3265,2541 3300,2505 3338,2490 3388,2489 3382,2515 "/>
    <path class="fil12 str0" d="M3276 2664l26 -35 29 -22 41 -3 53 5 23 -27 52 -66 29 -27 35 -3 30 11 -26 45 45 25 6 24 -2 38 -26 30 -70 74 -64 -7 -59 -17 -36 -35 -51 -22 -35 12zm256 -25l20 -15 14 -18 -9 -20 -9 -6 -44 1 -20 15 -23 27 -14 35 9 24 23 2 21 -21 8 -6 24 -18z"/>
    <polygon class="fil12 str0" points="3866,2954 3799,2961 3757,2938 3719,2915 3686,2892 3691,2842 3705,2824 3740,2815 3770,2823 3818,2852 3871,2877 3918,2879 3930,2891 3951,2908 3969,2940 3975,2967 3949,2979 3914,2971 "/>
    <polygon class="fil12 str0" points="3786,2714 3803,2681 3832,2678 3844,2704 3889,2748 3931,2773 3985,2834 3959,2852 3941,2853 3897,2847 3849,2831 3823,2810 3808,2805 3825,2793 3834,2763 3813,2740 "/>
    <path class="fil12 str0" d="M3980 3055l14 -18 29 -21 38 -13 42 8 44 38 21 17 -29 21 -56 4 -18 -11 -32 6c-16,1 -27,4 -29,14l-41 -26 17 -19z"/>
    <polygon class="fil12 str0" points="4259,3209 4259,3191 4290,3158 4340,3119 4351,3092 4350,3060 4320,3008 4355,2969 4396,2959 4381,2983 4385,3015 4389,3068 4398,3097 4416,3097 4456,3035 4505,3019 4535,3019 4564,3033 4598,3085 4607,3094 4578,3112 4539,3107 4504,3113 4473,3155 4405,3147 4370,3151 4347,3181 4364,3195 4474,3246 4498,3240 4518,3251 4525,3283 4551,3292 4497,3369 4408,3309 4384,3295 4399,3252 4423,3214 4417,3209 4392,3246 4380,3244 4346,3295 4255,3236 "/>
    <polygon class="fil12 str0" points="4613,3308 4619,3276 4633,3228 4652,3190 4667,3154 4689,3110 4710,3110 4745,3129 4767,3179 4751,3262 4726,3516 4713,3499 4680,3481 4663,3481 4566,3435 "/>
    <polygon id="砂夹黄_16" class="fil12 str0" points="725,1010 707,1013 707,975 692,954 706,925 721,925 738,915 762,921 779,929 792,950 789,976 795,997 814,1038 823,1058 814,1064 788,1064 778,1035 763,1021 "/>
    <polygon id="黄夹沙" class="fil12 str0" points="3866,2954 3914,2971 3949,2979 3975,2967 3969,2940 3951,2908 3930,2891 3918,2879 3871,2877 3818,2852 3770,2823 3740,2815 3705,2824 3691,2842 3686,2892 3719,2915 3757,2938 3799,2961 "/>
   </g>
   <g id="黄夹砂_x0020_">
    <polygon id="黄夹沙_17" class="fil13 str0" points="1053,778 1064,751 1076,733 1106,750 1103,786 1064,874 1021,958 982,926 982,908 1014,872 "/>
    <polygon id="黄夹沙_18" class="fil13 str0" points="1550,766 1550,801 1545,851 1558,904 1559,930 1565,954 1568,989 1566,1019 1557,1025 1537,1031 1513,1022 1515,978 1515,940 1502,911 1496,879 1504,811 1503,787 1500,767 1488,761 1459,765 1432,768 1412,763 1408,742 1411,718 1396,704 1381,707 1349,740 1329,749 1311,744 1305,729 1317,708 1319,685 1307,673 1289,668 1251,636 1291,621 1321,614 1353,617 1386,625 1418,642 1454,659 1499,696 1526,725 "/>
    <path id="黄夹沙_19" class="fil13 str0" d="M2211 2292l-3 -53 -33 -29 -39 -34 -39 -29 -24 -32 -30 -47 2 -70 -4 -18 -15 -11 -32 -3 -29 1 -9 -15 5 -14 9 -21 17 -18 41 -7 74 43 33 14 23 -3 26 -33 27 0 5 -18 -15 -20 0 -33 17 -21 65 -1 20 15 36 20 36 28 15 27 -17 38 -14 27 0 41 19 35 35 14 143 89 50 5 52 -25 30 35 27 -6 44 -10 51 49 -14 71 -32 30 -59 -5 -74 -69 -23 32 -17 42 -8 29 3 36 9 20 1 32 -9 24 -31 13 -21 18c0,0 -10,18 -17,18 -6,0 -15,0 -11,-12 3,-13 2,-19 -3,-11 -5,8 -9,9 -11,5 -1,-4 -4,-9 -4,-9l-69 -39 25 -51 23 -24 35 -6 6 -33 -12 -23 -24 -17 -7 -21 -18 -20 -38 -11 -15 -15 8 -32 -9 -18 -20 4 -38 15 -21 -23 -4 -41 -15 -32 -27 -9 -14 15 -29 18 -33 -11 -20 12 -3 27 117 101 12 35 -17 74 -17 -7 -11 3c0,0 -19,-19 -21,-23 -1,-5 -3,-11 -6,-6 -3,5 -14,3 -15,3 -1,0 -1,-19 -1,-19z"/>
    <path id="黄夹沙_20" class="fil13 str0" d="M2934 2737l-4 -46 11 -27 23 -30 26 -29 -1 -33 -3 -29 14 -15 0 -26 -7 -44 23 -45 32 -45 32 -9 29 14 42 11 68 34 59 -10 18 12 -12 38 -85 143 0 20 -35 25 -54 71 -24 -2 -26 9 -11 41 22 29c0,0 -8,3 -19,-4 -11,-8 -24,-17 -33,-21 -9,-5 -10,-6 -15,-10 -5,-5 -12,-7 -22,-4 -10,2 -22,-5 -29,-11 -7,-6 -9,-5 -7,-12 1,-7 3,-10 3,-10l-17 -5 -3 5 9 6 -4 9z"/>
    <path id="黄夹沙_21" class="fil13 str0" d="M4033 3086l32 -6 18 11 56 -4 38 8 24 18 13 29 -3 44 -2 32 -50 -28 12 -15 -7 -4 -6 3 -74 -18 -22 -8 -52 -38c-3,-5 -6,-7 -6,-10 0,-10 14,-13 29,-14z"/>
    <polygon id="黄夹沙_22" class="fil13 str0" points="4607,3094 4636,3105 4657,3108 4646,3140 4622,3155 4597,3191 4551,3292 4525,3283 4518,3251 4498,3240 4474,3246 4364,3195 4347,3181 4370,3151 4405,3147 4473,3155 4504,3113 4539,3107 4578,3112 "/>
    <path id="黄夹沙_23" class="fil13 str0" d="M1708 2073c-35,-14 -65,-17 -98,-26l-30 -5 6 -66 10 -70 -3 -18 -18 -2 -55 48 -32 34 -3 -4 -2 -19 3 -3c6,-5 -32,-30 -38,-34 -35,-22 -67,-34 -118,-53 -36,-13 -43,-25 -71,-49l-33 -29 18 -30 37 -50 23 -36 23 11 13 27 0 41 -7 67 14 -32 40 -54 50 -33 -10 -44 -13 -61 -12 -9 -6 -35 -19 -38 -38 -32 8 -29 -12 -35 -4 -27 15 -18 53 11 35 -18 11 -24 5 -26 -12 -29 -15 3 -41 -2 -29 -18 -16 -26 12 -15 29 -6 12 -24 -4 -29 -12 -29 11 -30 8 -26 -12 -24 -20 4 -12 20 -14 6 -32 7 -27 -3 -51 -43 -29 -17 -21 0 -17 10 -12 20 -2 21 35 2 6 12 -9 9 -26 6 -17 12 -6 15 15 20 24 6 26 20 22 32 6 44 12 20 33 -3 31 -24 30 2 -14 36 -23 21 -17 29 -9 42 7 23 3 32 -35 -5 -61 54 1 35 36 32 0 21 -29 3 -33 -23 -19 -47 -6 -35 -24 -32 -39 -14 -12 -32 -33 -40 -6 -21 -42 -34 -18 -21 12 -12 44 8 20 -15 2 -38 26 -36 -6 -20 -27 -20 -33 -17 -27 -35 -12 -29 -12 -24 -24 -5 -35 6 -14 27 7 50 -73 54 -26 -11 -27 -17 -9 -24 5 -20 20 -9 24 -19 26 0 9 -6 -9 -20 -19 -41 -6 -21 3 -26 -13 -21 -17 -8 -24 -6 -17 10 -15 0 -14 29 -9 -14 -9 -12 -39 4 -24 -44 -33 -52 -6 -26 -13 -27 29 -27 66 84 15 3 15 -9 14 -24 5 -44 -36 -35 -3 -17 8 -33 0 -32 17 -12 24 20 21 6 17 8 27 20 24 18 44 11 36 8 32 -7 -20 42 -31 53 -8 39 12 14 52 -1 18 9 7 26 -15 30 -52 45 1 17 20 6 33 2 26 11 27 24 30 -1 38 -12 18 17 23 -18 -1 -15 47 -36 41 -4 35 -38 46 -45 53 -4 20 -12 44 -36 17 8 1 24 3 14 14 -6 30 35 16 32 -2 65 30 37 15 3 12 23 4 42 6 26 12 8 23 -23 8 -24 20 -24 24 -12 41 -16 11 -20 -7 -44 27 26 39 43 4 38 -6 21 -20 9 -38 13 -17 29 -11 44 -5 53 -2 33 32 35 39 8 50 -4 9 14 -29 33 -20 36 -2 41 27 32 6 32 4 50 6 29 -14 33 -8 47 4 50 13 38 33 38 23 2 0 -23 8 -18 116 83 -8 21 -12 9 -11 9 0 26 3 12 -23 27 -5 15 9 14 29 9 30 23 24 29 -41 -9 -36 -5 -32 1 -35 15 -26 36 2 -53 9 -30 -10 -23 -21 -17 -6 -30 -9 -14 -20 6 -6 30 0 17 -4 53 0 27 -9 14 -5 9m-133 -371l20 -38 -7 -24 -29 -17 -16 -46 -12 -12 -26 0 -6 30 -5 29 -23 36 1 27 3 23 12 23 -2 50 1 39 12 26 32 -7 20 -18 15 -32 29 8 24 17 29 0 6 -33 -4 -29 -18 -17 -47 -2 -9 -33z"/>
    <polygon id="黄夹沙_24" class="fil13 str0" points="1921,1797 1935,1791 1946,1764 1978,1746 2014,1740 2040,1745 2058,1768 2062,1818 2009,1816 1950,1808 "/>
    <path id="_1" class="fil13 str1" d="M3701 2951c-1,0 -1,0 -2,1 -2,1 -3,4 -9,-3 -7,-8 -26,-15 -38,-17 -13,-2 -30,-12 -44,-16 -15,-3 -49,-13 -63,-18 -14,-4 -14,-11 -18,-2 -5,8 -6,10 -18,5 -17,-8 14,-21 3,-28 -5,-4 -9,1 -16,12 -6,8 -15,3 -15,13 0,1 -73,-18 -73,-18l4 -6 -17 -12 -23 -5c-1,4 -1,5 -2,10 -2,0 -7,-2 -11,-3 -12,-3 -10,-5 -21,0 -14,6 -39,4 -58,4 -20,0 -16,-4 -28,-12 -12,-7 -10,-8 -22,-2 -18,9 -14,12 -30,-1 -15,-14 -15,-11 -46,-17 -30,-6 -22,-6 -32,-14 -11,-8 -9,8 -28,-4 -7,-4 -14,-7 -15,-12 0,0 0,0 0,0l29 -33 38 -7 35 -6 38 -7 35 9 48 31 15 3 20 -30 -18 -20 -42 -20 -9 -29 8 -33 35 -12 51 22 36 35 59 17 64 7 70 -74 44 -4 26 -9 5 -27 -6 -29 -9 -29 14 -45 11 3 71 22 13 53 24 41 19 46 -17 33 -24 -14 -24 0 -26 10 -8 20 12 21 12 8 18 18 20 14 21 11 21 3 15 5 26 21 48 16 44 6 18 -1 26 -18 111 -17 62 2 12 12 -23 21 -18 9 -35 4 -6 11 4 15 12 12 -6 20 0 21 12 11 27 -15 23 -18 23 -6 9 -6 26 -39 36 35 17 5 15 21 -28 38 18 44 44 -6 30 52 1 32 -11 27 -27 -26 -30 -23 -42 -14 -35 -2 -38 12 -21 -17 -44 -38 -42 -8 -38 13 -29 21 -14 18 -17 19 -60 -38 -5 7 -73 -39c-2,-3 -5,-10 -28,-13 -32,-8 -53,-20 -69,-27l-27 -13z"/>
   </g>
  </g>
  <g id="海岸线">
   <polygon class="fil14 str2" points="3078,3225 3045,3276 3107,3339 3171,3393 3205,3357 3152,3259 "/>
   <path class="fil14 str2" d="M4475 4010c-20,3 -18,-1 -15,18l3 4 14 17 7 31c0,0 33,44 35,50 2,7 4,6 -3,11 -8,4 -8,0 -6,25 3,26 6,54 5,62 0,8 4,9 14,7 9,-1 -4,6 -11,6 -6,1 0,22 0,32 -1,9 28,136 32,138 3,1 27,16 27,16 0,0 12,55 12,56 0,1 24,25 24,25 0,0 73,62 76,63l46 29 22 -5 2 7 -13 3c-1,1 -14,21 -14,23 0,2 35,22 43,27 14,10 23,10 31,-1 5,-6 4,-6 11,-1l23 17 3 6 9 6 5 0c0,0 11,16 13,18 2,2 3,7 16,-3 13,-11 66,-53 70,-57 3,-4 3,0 8,-14 6,-15 21,-49 23,-56 3,-8 1,-4 11,-11 10,-7 34,-19 36,-23 4,-8 -5,-1 8,-21 16,-25 42,-80 62,-100 2,-2 5,-7 5,-11 2,-10 7,-30 1,-39 -6,-8 -10,-28 2,-39 6,-4 6,-3 -9,-15 -7,-17 -21,-73 -29,-82 -6,-7 -5,-21 -5,-32l-32 -36 -102 -33 -32 -24c0,0 -104,-51 -108,-53 -5,-3 -10,-1 -16,-1 -5,0 -36,4 -41,4 -6,0 -5,1 -5,5 0,3 -6,2 -6,-2 -1,-5 -13,-7 -21,-11 -9,-3 -7,0 -15,3 -8,3 -13,6 -13,6 0,0 -29,-43 -30,-43l-146 -18 -14 7c2,16 3,13 -13,9z"/>
   <path class="fil14 str2" d="M5132 3419c0,0 -18,46 -23,58 -4,12 -6,10 -15,11 -10,1 -110,10 -110,10l4 -7 -12 -6 -8 16 -129 12 -114 2 -6 -18 -8 2 -32 -19 -17 0 -120 -57c0,0 -29,-20 -29,-22l7 -17 -122 -82c-18,-12 -14,-7 -5,-37 9,-29 29,-52 29,-52 0,0 -6,-6 -6,-5 0,1 -25,39 -25,39l-12 -4c0,0 -34,48 -34,51 0,2 -92,-59 -92,-59l-20 -4 -75 -42 12 -15c0,0 -7,-3 -7,-4 0,-1 -3,4 -3,4l-6 0 -71 -18 -21 -9c0,0 -53,-36 -53,-37 0,-1 -6,-11 -6,-11l-101 -63 -5 7c0,0 -71,-35 -75,-42 -4,-7 -2,-6 -21,-9 -18,-3 -90,-34 -96,-39 -5,-4 -5,-3 -7,-2 -1,1 -3,5 -9,-3 -7,-7 -26,-15 -38,-17 -13,-2 -29,-12 -44,-15 -15,-4 -49,-13 -63,-18 -14,-5 -14,-11 -18,-3 -5,9 -5,11 -18,5 -16,-7 14,-21 4,-28 -6,-4 -9,2 -17,12 -6,9 -15,3 -15,13 0,2 -73,-17 -73,-17l4 -7 -17 -11 -23 -6c0,5 -1,5 -1,10 -3,0 -8,-2 -11,-2 -12,-3 -11,-5 -22,0 -14,6 -38,3 -58,3 -20,1 -16,-4 -28,-11 -12,-8 -10,-9 -22,-3 -18,9 -14,13 -29,-1 -16,-13 -16,-10 -46,-17 -31,-6 -22,-6 -33,-14 -11,-8 -9,8 -27,-3 -10,-7 -21,-9 -12,-20l30 -38 -8 -6c0,0 -24,30 -30,38 -6,7 -25,-3 -33,-10 -9,-8 -32,-18 -34,-20 -2,-2 -9,-12 -24,-8 -16,4 -29,-9 -29,-9l-10 -8 5 -16c0,0 -18,-5 -18,-4 0,1 -3,5 -3,5l10 5 -5 10 -33 -13 -19 -14 -10 -6 1 -9c0,0 4,3 -29,-14 -33,-16 -38,-19 -37,-22 5,-10 -2,-5 -5,-14 -2,-8 -18,-1 -18,-7 0,-6 3,-15 0,-18 -4,-3 -4,-6 -7,2 -4,8 0,7 0,7 0,0 0,2 -3,15 -3,12 -1,13 -16,6 -16,-8 -122,-70 -133,-75 -11,-5 -7,-7 -2,-16 6,-10 7,-15 5,-18 -1,-2 -8,-2 -14,0 -7,1 -4,1 -12,-3 -7,-5 -50,-32 -50,-32 0,0 -7,-2 -10,-1 -4,1 -15,-5 -17,-10 -3,-4 -5,-1 -12,-3 -8,-1 -7,-12 -3,-21 3,-9 -3,-6 -3,-6l-6 14 -7 -4 -4 -9c0,0 -70,-38 -70,-39 0,-2 4,-8 4,-8l-22 -3 -43 -24 4 -12c0,0 -6,-8 -19,-10 -14,-3 -58,-28 -58,-28l-20 -8c0,0 -11,4 -11,3 0,-2 -11,-13 -18,-20 -4,-4 -5,-7 -4,-8 0,-5 -4,-4 -6,-1 -4,6 1,2 -10,3 -14,0 -21,-8 -21,-8l-23 -6 -5 9 -26 -6c0,0 -146,-73 -152,-77 -6,-4 -7,-12 -7,-12 0,0 -14,-6 -28,-12 -15,-7 -9,1 -14,3 -6,2 -13,-7 -18,-8 -5,0 -19,-11 -20,-16 -2,-5 -36,-40 -36,-40l-7 4c-7,-6 -13,-13 -19,-20 -17,3 -16,3 -33,-1 -21,-11 -24,-12 -27,-17 -10,-12 -13,-9 -26,-8 -9,-2 -43,-20 -47,-23 -7,-6 -36,-13 -59,-18 -20,-4 -39,-8 -52,-10 -22,-4 -13,-2 -28,-12 -16,-10 -38,-19 -46,-30 -8,-12 -7,-3 -12,-11 -5,-8 0,-12 0,-12l10 -16 -4 -2 -6 6 -10 10 -16 -14 -1 -20 5 -4c-18,-18 -59,-47 -93,-61 -23,-9 -31,-7 -57,-20 -11,-6 -27,-14 -39,-19 -1,-1 -96,-80 -93,-83 4,-3 7,-7 7,-8 -11,-5 -44,-30 -50,-41l-5 7 -12 -10c-22,-16 -48,-35 -70,-52 -17,-13 11,-4 -9,-28 -18,-21 -51,-79 -97,-112 0,0 -41,-58 -49,-67 -7,-8 -15,-27 -9,-37 2,-4 13,-23 13,-23l-24 -18c0,0 -1,-4 -22,23 -28,35 -43,35 -84,28 -23,-4 -207,-83 -207,-83 0,0 -2,-3 -5,-7 -5,-7 -15,-20 -23,-32 -8,-13 -13,-26 -14,-28 -3,-5 -8,-16 -8,-16 0,0 -12,-17 -10,-18 6,-4 15,-9 22,-12 11,-5 24,-9 38,-12 32,-7 66,-8 79,-8 21,1 23,1 23,1 -3,-15 -4,-35 -24,-24l-22 -28 -11 -8 -51 2 -223 -49 -16 -23 4 -38 -10 -1c0,0 -1,9 -1,14 0,4 -1,11 -5,6 -16,-22 -103,-155 -114,-172l10 1 1 -7 -18 -4 -26 -39c-3,2 -6,3 -9,5 -38,-24 -79,-74 -109,-108 -4,-4 -52,-81 -58,-91 -7,-10 -6,-10 -3,-14 8,-11 14,-27 19,-34 2,-3 16,-18 26,-27 55,-45 105,-97 150,-133 9,-7 30,-24 32,-26 2,-3 40,-30 40,-30l-4 -7 97 -75c0,0 3,-12 9,-16 9,-7 42,-30 52,-34l7 21 8 -6c0,0 0,-9 0,-14 0,-6 -4,-10 11,-18l269 -145c39,-22 92,-39 134,-58 22,-9 46,-14 69,-21 27,3 53,6 80,10l142 75 20 41c0,0 6,4 13,5 7,1 9,5 7,12 -3,17 -1,15 3,16 16,5 3,-31 6,-46 0,-3 30,8 38,10 2,1 89,61 104,71 15,10 41,25 51,26 9,2 24,17 38,30 15,14 16,14 16,14l-3 18 8 2 3 -8c46,28 57,34 97,66 12,-10 11,-6 26,-2 11,4 21,7 30,15l8 -6 13 2 84 38c0,0 12,2 17,1 5,-1 13,4 18,10 4,6 7,8 7,8l13 -12c0,0 8,2 16,3 9,1 37,2 42,3 6,1 60,13 79,22 19,8 82,43 116,64 66,42 132,85 197,128 24,17 67,44 112,74 76,51 157,106 162,110 9,6 273,195 281,198 7,3 81,58 86,62 5,4 49,24 57,28 8,4 131,82 151,100 22,20 76,50 104,80 29,30 83,71 88,78 5,6 4,10 0,12 -5,2 2,11 2,11 0,0 15,-3 28,7 14,10 172,124 178,131 5,8 25,36 21,48 -1,5 7,7 13,13 9,9 21,24 30,33 5,5 101,53 112,56 23,8 120,32 135,36 15,4 15,4 7,17 -7,13 -101,175 -103,187 -2,12 14,10 14,10 0,0 22,-32 23,-34 2,-2 1,-4 9,0 68,34 230,85 298,99 12,2 24,6 24,6l38 18 155 24 172 81c0,0 4,2 -1,10 -2,4 9,6 13,0 23,-38 17,-63 75,-58l231 21c49,4 85,1 64,49l-47 104 11 5 5 -11 21 3 1 -15 -7 -4 49 -124c8,-20 10,-34 35,-33 17,1 38,2 46,2 45,2 120,24 163,41 32,12 64,31 89,55 21,19 45,45 45,55 0,16 -4,10 -4,10 27,24 53,47 80,70 8,10 6,10 6,23l12 -3c4,-1 6,-2 10,4 37,56 72,70 122,112 36,30 68,57 74,62 14,12 141,126 141,126l86 96 47 71 37 97c9,22 10,33 10,49 -1,23 -3,58 -4,77 -1,23 4,29 -27,19 -31,-10 -195,-58 -195,-58l-40 104 -62 126c0,0 -89,80 -114,102 -11,9 -9,8 1,14 8,6 18,13 20,14 3,1 5,4 -1,8l-84 54 -89 43 -97 -5z"/>
   <path class="fil14 str3" d="M4435 4447c0,0 0,0 0,0 0,0 0,0 0,0zm-1744 -1351c-53,-6 -85,-15 -128,-15 -43,0 -104,-9 -111,24 -10,44 36,77 109,114 74,37 56,21 92,52 35,32 70,52 94,84 24,32 74,98 111,122 36,24 54,38 54,46 0,8 9,-2 15,18 3,9 18,4 31,5 14,2 25,9 29,11 9,4 -5,14 26,8 7,-1 12,-1 20,-1l36 37c0,0 20,5 36,4 16,-1 9,0 9,0l2 12 15 0 11 -23c0,0 5,0 5,1 0,2 -2,8 -2,8l3 0c0,0 -15,15 -9,24 6,8 11,8 19,4 9,-4 0,4 20,6 20,2 30,14 30,14 0,0 3,18 20,26 16,9 33,24 36,26 2,2 -11,3 0,11 12,9 38,37 46,29 9,-8 20,15 34,25 15,10 -8,6 11,16 19,11 58,36 84,56 26,21 50,32 71,41 21,10 86,52 106,63 19,12 52,40 57,46 5,6 11,-31 11,-31l5 1c0,0 -12,24 0,36 12,12 13,20 27,20 13,0 0,5 12,8 13,3 18,7 15,12 -2,4 19,10 35,19 17,8 61,31 65,33 4,3 7,5 12,3 4,-3 11,5 12,9 2,5 74,51 84,56 10,5 -1,4 10,12 12,9 16,16 24,13 7,-2 53,44 65,55 11,11 -3,5 18,26 21,21 37,37 37,37l-6 5 7 7c0,0 8,-4 8,-5 0,-1 18,22 21,28 3,6 14,9 20,0 5,-7 18,-19 14,-3 0,0 -9,18 -9,20 0,1 9,3 1,11 -7,7 2,16 10,30 8,14 12,19 13,28 1,9 8,15 11,10 4,-5 9,6 15,0 6,-6 6,-10 11,-6 4,5 -13,8 -9,15 4,7 -18,1 3,21 21,20 0,6 14,19 13,14 19,27 26,27 8,-1 4,2 24,8 21,6 50,18 71,20 21,2 1,4 51,22 50,18 45,27 57,18 12,-9 -15,-40 -15,-86 0,-43 -7,-42 -8,-41 0,-2 3,-17 0,-41 -3,-26 -1,-65 -8,-69 -8,-3 -7,-9 2,-9 8,0 -7,-29 -5,-59 3,-30 0,-90 0,-90l-23 -1 8 -11c0,0 -26,-45 -31,-57 -6,-12 -8,-34 -15,-37 2,-11 -9,-35 -15,-46 -6,-12 -35,-53 -48,-65 -13,-12 -24,-22 -50,-35 -25,-14 -170,-105 -183,-114 -12,-10 -74,-32 -74,-32 0,0 -10,-7 -15,3 -4,11 -10,19 -10,18 0,-1 -13,2 -6,-19 4,-10 -4,-11 -12,-14 -10,-4 -21,-8 -21,-8 -7,-2 -42,-20 -47,-24 -4,-3 -17,-11 -23,-11 -6,0 -9,-2 -22,-7 -13,-5 -13,-5 -32,-9 -19,-5 -112,-44 -130,-51 -17,-6 -26,-8 -35,-16 -9,-7 -9,-6 -31,-14 -23,-7 -25,-5 -27,-11 -3,-6 3,-5 -17,-11 -21,-6 -56,-19 -67,-19 -11,-1 -16,-3 -22,1 -5,4 -5,2 -12,0 -6,-2 -27,-9 -37,-12 -9,-4 -9,-5 -19,-4 -10,1 -23,-10 -47,-20 -24,-11 -44,-23 -61,-25 -20,-3 -19,0 -31,-14 -6,-6 -45,-15 -49,-21 -1,-1 -3,-2 -5,-3 -4,-2 -13,-6 -21,-8 -20,-7 -50,-11 -59,-9 -4,1 -10,-3 -19,-5 -17,-4 -43,-9 -59,-13 -2,-1 -3,-2 -6,-3 -15,-3 -27,-2 -34,-4 -13,-13 -52,-27 -76,-35 -6,-11 -10,-28 -25,-50 -5,-8 -12,-15 -18,-24 -27,-35 -39,-42 -51,-108 -4,-20 -13,-36 -21,-48 -24,-33 -58,-34 -79,-36 -28,-2 -49,-6 -49,-7 0,-1 4,-18 6,-32 1,-4 1,-7 0,-10 0,-1 -3,-2 -13,-2z"/>
  </g>
  <g id="次干">
   <path class="fil14 str4" d="M437 262l8 53 14 123 -2 31 19 132 -18 28c0,0 -91,143 -91,143 0,1 -25,264 -25,264"/>
   <polyline class="fil14 str4" points="752,262 753,408 753,546 692,967 "/>
   <path class="fil14 str4" d="M1188 162c0,0 -15,62 -15,64l-39 135 -55 155 -18 113c-12,36 -27,59 -56,127 -26,61 -49,121 -49,121l-34 55 -13 57 -15 50 -43 142"/>
   <path class="fil14 str4" d="M1753 408c110,113 239,195 239,195l165 92c0,0 43,25 57,36"/>
   <path class="fil14 str4" d="M1518 1963c22,-46 18,-42 23,-55 6,-12 15,-32 19,-36 23,-16 42,-40 54,-53 12,-14 17,-16 33,-25 7,-4 28,-15 34,-31 5,-16 10,-31 10,-31l19 -59 11 -31 25 -71 16 -45c0,0 0,-15 0,-26 1,-40 0,-63 11,-105 4,-11 11,-21 17,-33 8,-15 12,-29 11,-48 0,-16 -2,-15 8,-33 8,-14 12,-26 16,-34 6,-11 15,-30 23,-40 6,-7 13,-14 15,-15 2,-2 5,-55 5,-57 0,-71 53,-90 94,-135"/>
   <path class="fil14 str4" d="M1987 2212c27,-44 55,-83 82,-123 6,-8 10,-16 16,-24 16,-24 32,-48 48,-73l62 -82 21 -70 21 -116 29 -152 32 -162 22 -109 17 -91 6 -27 2 -51c2,-29 16,-42 18,-70 2,-41 65,-134 123,-200"/>
   <path class="fil15 str4" d="M2780 1262c0,1 24,-30 24,-28 0,0 23,13 66,31 37,16 91,36 135,60 92,48 172,105 183,114 24,17 27,22 46,-4 16,-22 25,-34 28,-41 6,-12 21,-5 13,-3 -6,1 -9,8 -12,14 -6,15 -7,15 -16,28 -8,11 -26,25 -12,41 14,17 86,79 125,97 26,12 35,18 41,21 6,4 4,7 -1,15 -8,11 -23,28 -28,34 0,0 -3,11 -23,-4 -20,-15 -97,-61 -109,-75 -12,-14 -39,-32 -50,-49 -12,-18 -173,-143 -266,-181 -94,-38 -144,-70 -144,-70z"/>
   <path class="fil14 str4" d="M2230 2305l113 -189c0,0 22,-20 28,-51 6,-32 26,-159 26,-159l36 -212 27 -172 40 -253"/>
   <line class="fil14 str4" x1="2490" y1="1328" x2="2745" y2= "1418" />
   <path class="fil14 str4" d="M3094 1714l-27 75 -6 87 -6 24 -3 21 -13 26c-5,14 -9,27 -13,41 -1,3 -3,9 -3,13 -3,14 -5,28 -7,45l-17 108 -27 187 -16 117"/>
   <path class="fil14 str4" d="M3258 1788c0,0 -15,47 -15,49 -1,1 0,4 -2,9 -2,4 -12,42 -15,46 -2,4 -20,33 -22,37 -2,4 -30,28 -32,30 -2,1 -2,1 -3,7 -1,7 -6,46 -7,49 -1,3 -4,31 -5,37 -1,6 -11,70 -13,76 -1,6 -10,57 -10,61 0,4 -7,36 -8,39 -1,4 -5,4 -6,15 -1,11 -3,25 -3,35 0,10 -5,59 -6,62 0,2 -16,128 -17,136 -1,8 2,5 -16,40"/>
   <path class="fil14 str4" d="M4166 2183c0,0 -61,105 -61,106 0,1 -25,39 -30,48 -2,4 -49,74 -104,161 -51,81 -110,174 -151,239 -14,23 -27,42 -35,56 -9,15 -14,25 -15,27 -9,17 -24,39 -28,45 -3,6 -23,30 -30,46 -8,17 -10,23 -12,39"/>
   <line class="fil14 str4" x1="2853" y1="2409" x2="2780" y2= "2618" />
   <path class="fil14 str4" d="M4459 2361c71,41 115,64 175,93"/>
   <path class="fil14 str4" d="M4240 3067c-37,58 -67,97 -74,106"/>
   <line class="fil14 str4" x1="4384" y1="2844" x2="4578" y2= "2962" />
   <path class="fil14 str4" d="M4869 4605c0,0 4,10 5,12 1,3 1,4 6,1 6,-4 13,-7 17,-7 4,-1 5,-2 8,-5 2,-2 3,-3 7,-3 4,-1 4,-2 5,4 2,6 4,14 5,17 1,2 1,5 0,7 -1,3 0,7 3,9 4,2 9,5 12,8"/>
   <path class="fil15 str4" d="M545 1240c8,-11 25,-17 51,-17 35,0 101,23 127,66 27,42 76,70 90,80 13,10 14,24 21,34 5,8 7,8 10,9 6,2 10,-3 14,-6 7,-6 11,-12 11,-12 0,0 -6,-9 -20,-21 -8,-7 -38,-42 -70,-73 -28,-27 -58,-50 -66,-55 -25,-17 -22,-19 -43,-19 -6,0 -15,-3 -28,-7 -22,-5 -77,-9 -106,18 6,11 6,7 9,3z"/>
   <polyline class="fil14 str4" points="734,265 744,150 754,118 "/>
   <polyline class="fil14 str4" points="734,1110 808,1069 914,295 960,101 "/>
   <line class="fil14 str4" x1="1580" y1="473" x2="1603" y2= "399" />
   <polyline class="fil14 str4" points="1632,486 1478,745 1429,736 1332,938 1098,1331 970,1513 "/>
   <path class="fil14 str4" d="M2083 718c-29,63 -128,155 -168,239"/>
   <path class="fil14 str4" d="M2566 914c-10,83 -15,112 -54,170 -39,59 -53,87 -66,156"/>
   <path class="fil14 str4" d="M3008 1395c-20,33 -59,94 -59,94 0,0 -13,87 -19,119l-47 279c0,0 0,4 -4,11 -4,8 -7,18 -10,27 -3,9 -21,119 -21,119l-13 74c0,0 -15,93 -15,93 0,0 -6,23 -11,49 -8,39 -15,77 -24,116"/>
   <path class="fil14 str4" d="M3256 1575c0,0 -34,5 -35,30 -1,25 -3,42 -23,40 -20,-3 -8,27 -46,99"/>
   <path class="fil14 str4" d="M3472 1526c-21,45 -13,41 -61,94 -48,53 -132,174 -132,174"/>
   <path class="fil14 str4" d="M3934 1966c-17,64 -112,172 -129,177 -16,6 -36,15 -23,23 5,4 -8,19 -12,23 -6,8 -401,620 -415,646"/>
   <path class="fil14 str4" d="M4147 2166c0,0 43,-68 48,-75"/>
   <path class="fil14 str4" d="M3993 3093c3,-3 6,-9 8,-12 5,-8 0,-4 2,-9 2,-3 3,-5 7,-11 14,-18 65,-99 65,-99l112 -178 282 -439 104 -161"/>
   <line class="fil14 str4" x1="4468" y1="3140" x2="4419" y2= "3210" />
   <path class="fil14 str4" d="M5071 2282c-29,68 -43,172 -82,212 -23,24 -49,38 -61,53 -10,14 -10,25 -27,33 -37,18 -62,48 -74,68 -13,21 -25,53 -44,39 -16,-12 -19,-5 -44,34 -42,67 -85,136 -131,200"/>
   <path class="fil14 str4" d="M5020 3191c8,-6 22,-44 12,-70 -5,-11 -11,-11 -19,-27 -9,-17 19,-51 30,-91 8,-29 12,-58 12,-79 0,-8 0,-5 -6,-11 -17,-16 12,-20 15,-33 5,-31 30,-188 21,-203 -11,-17 -25,-65 -36,-63 -11,1 -20,-3 -31,-27 -12,-23 -49,-37 -75,-54"/>
   <path class="fil14 str4" d="M4993 3178c-12,15 -20,47 -19,55 2,8 -2,18 -25,25 -23,6 -68,45 -77,61"/>
   <polygon class="fil15 str4" points="612,953 629,989 622,1005 612,1008 607,1028 608,1099 592,1098 583,1139 636,1138 656,1094 669,1032 670,993 660,961 "/>
   <path class="fil14 str4" d="M3686 3959c6,-19 8,-56 -6,-78 -7,-10 -9,-23 -7,-39 5,-45 4,-90 0,-133 -7,-58 -60,-69 -107,-89 -46,-19 -54,-33 -92,-25 -37,8 -25,-13 -57,-14 -49,-1 -81,-46 -119,-48 -38,-1 -22,-7 -72,-30 -51,-24 -45,-27 -84,-27 -40,0 -45,2 -60,-6 -14,-9 -27,-17 -56,-17 -29,0 -23,-4 -59,-21 -36,-16 -30,-4 -51,1 -22,5 -23,4 -21,28 3,23 38,41 56,41 17,0 62,-8 96,9 27,14 41,17 81,29 25,8 -2,32 50,60 52,28 102,36 130,64 33,32 118,106 157,113 19,3 46,1 66,2 19,1 32,4 64,21 42,24 94,21 116,16 22,-5 45,-5 45,11 0,30 89,59 89,59 0,0 60,-5 85,4 25,10 169,71 180,77 11,7 15,12 15,22 0,8 6,12 12,12 2,1 3,1 5,1 8,0 5,6 17,28 11,22 10,34 25,33 15,-1 15,9 30,51 8,23 13,10 26,21 32,29 88,62 90,73 4,25 75,98 74,106 -5,60 -13,98 -23,118l-12 -7"/>
   <path class="fil14 str4" d="M2916 3489c0,0 -12,28 13,29"/>
   <polyline class="fil14 str4" points="3317,3742 3332,3728 3341,3734 3328,3752 "/>
   <line class="fil14 str4" x1="3332" y1="3728" x2="3435" y2= "3586" />
   <path class="fil14 str4" d="M3667 3686c46,-5 48,3 91,15 43,12 58,5 62,31 4,26 9,19 26,23 16,4 75,33 101,44 26,12 90,31 112,64 22,32 22,30 39,30 17,0 13,6 38,30 24,23 85,84 94,110 8,26 13,20 33,27 20,6 80,45 96,70 16,25 51,62 47,87 -3,24 0,30 -11,38 -10,8 -12,24 -8,35"/>
   <path class="fil14 str4" d="M3686 3895c23,0 44,-3 86,6 42,10 87,9 90,62 15,17 18,13 38,32 19,18 69,62 92,69 24,7 231,186 237,193 4,11 12,48 54,86 43,38 84,61 89,93 5,32 20,95 35,123"/>
   <line class="fil14 str4" x1="4229" y1="4257" x2="4180" y2= "4313" />
   <path class="fil14 str4" d="M4210 4240c0,0 58,-116 61,-123 3,-8 51,-45 62,-51"/>
   <path class="fil14 str4" d="M3711 3816c0,0 41,14 54,28"/>
   <line class="fil14 str4" x1="4393" y1="4522" x2="4448" y2= "4521" />
   <path class="fil14 str4" d="M3900 3885c1,-56 5,-62 44,-118"/>
   <polyline class="fil14 str4" points="4733,4059 4741,4201 4754,4249 4804,4451 4840,4579 "/>
   <line class="fil14 str4" x1="4758" y1="4599" x2="5034" y2= "4531" />
   <polyline class="fil14 str4" points="4856,4575 4871,4648 4902,4683 "/>
   <path class="fil14 str4" d="M4546 4403c36,-1 52,-6 78,-19 26,-12 21,-16 70,-20 48,-4 89,-22 147,-19 34,2 73,-1 101,2 20,2 22,4 35,16 12,11 32,22 49,34 25,18 49,35 65,36"/>
   <path class="fil14 str4" d="M4520 4249c50,1 22,-17 30,-16 63,3 112,-10 136,-13 29,-3 65,-13 81,-1 17,11 25,9 57,11 33,2 80,0 105,0 24,0 19,0 32,-20 12,-20 47,-59 47,-59"/>
   <path class="fil14 str4" d="M5103 4311c-34,61 -34,67 8,79"/>
   <path class="fil14 str4" d="M4734 4074c-10,-2 -18,-5 -24,-11 -7,-5 -36,1 -36,1l-29 -41 -143 -20 -2 82c0,0 20,23 28,30 8,8 7,22 -2,27 -10,5 -13,2 -11,22 1,11 0,52 5,68 19,1 30,1 30,1"/>
   <path class="fil14 str4" d="M4520 4249c6,50 11,100 32,154"/>
   <path class="fil14 str4" d="M4572 4401c2,17 3,20 5,26 1,5 8,38 12,56 42,50 124,105 146,117 3,-2 16,-4 22,-5"/>
   <path class="fil14 str4" d="M4734 4074c13,-1 0,-15 23,-15 22,0 31,-6 51,6 19,12 104,53 118,65 15,12 61,20 78,26 16,7 20,3 40,23 20,20 18,18 21,42 2,22 26,51 32,101"/>
   <path class="fil14 str4" d="M5104 4388c-1,15 2,17 -15,40 -27,36 -44,73 -66,110l-37 23 -31 74 -75 64c-4,3 -6,2 -8,-1 -3,-4 -8,-9 -13,-14 -7,-7 -3,6 -23,-17 2,-21 -22,-38 -40,-42 -18,-4 -23,-5 -37,-23"/>
   <path class="fil14 str4" d="M5098 4320c-4,48 19,53 6,68"/>
   <path class="fil14 str4" d="M4466 3143c0,0 0,0 0,0l73 -108 39 -73c10,-14 21,-28 31,-42 154,112 325,247 505,311"/>
  </g>
  <g id="主干">
   <path class="fil14 str5" d="M277 890c-15,-16 -30,-32 -45,-48 -2,-1 -3,-5 -3,-11 3,-31 6,-76 7,-88 3,-39 7,-78 10,-116 1,-18 3,-35 4,-52 1,-12 0,-14 -1,-26 -2,-19 -7,-52 -8,-64 -1,-19 -9,-44 20,-62 18,-11 38,-26 58,-40 36,-26 69,-50 74,-54 10,-9 26,-11 52,-14 25,-3 307,-53 307,-53l158 32 224 67 498 125 66 96 83 173 39 79c11,21 14,25 29,43 21,26 52,70 81,94 9,8 33,37 53,36 13,-1 23,0 44,9 40,18 187,78 187,78 0,0 50,19 54,23 4,5 80,70 86,76 7,6 21,12 34,18 14,6 77,38 89,44 12,6 22,13 43,30 21,18 35,40 69,37 35,-3 31,-7 66,6 35,12 72,27 81,30 9,3 16,2 37,23 21,22 55,51 68,64 13,12 24,18 38,60 15,42 16,65 44,95 28,31 18,24 38,36 19,12 158,95 186,106 29,10 93,42 113,47 19,4 118,36 125,37 6,2 19,7 46,20 27,14 53,24 53,24 0,0 7,9 22,16 16,7 40,19 63,30 23,12 23,19 60,16 36,-2 54,-1 71,0 17,0 83,30 129,52 46,22 79,41 114,60 34,20 40,34 64,42 15,5 47,19 82,39 24,14 54,36 69,51 27,26 53,40 78,56 30,19 56,35 73,46 31,20 24,20 55,26 31,7 61,24 78,31 17,6 186,77 202,81 16,4 29,6 57,5 27,-1 77,4 101,5 24,2 15,-3 65,17 50,21 111,44 135,54 23,11 52,31 74,31l57 -1 161 -1"/>
   <path class="fil14 str5" d="M228 881l285 54c0,0 160,28 179,32 -2,15 -6,45 -8,60 -1,6 0,6 -2,13l-10 33 426 258c56,33 113,68 115,69 1,1 23,16 29,21 6,4 29,19 39,30 10,10 33,32 33,32 0,0 14,14 24,22 10,7 121,87 129,93 7,5 212,126 224,134 12,9 515,302 525,309 9,7 509,300 509,300 0,0 46,28 61,36 9,4 176,84 304,144 76,37 138,66 143,69 7,4 22,10 36,18 17,8 33,18 44,24 9,5 34,18 59,32 27,15 55,30 62,35 6,3 8,5 24,11 4,1 28,10 63,23 51,18 125,45 197,69 103,36 200,70 208,71 11,2 14,8 33,20 8,4 60,34 116,69 77,48 71,47 165,105 8,-12 16,-26 25,-40 0,0 54,34 81,49 14,7 46,25 76,42 16,9 32,18 44,25"/>
   <polyline class="fil14 str5" points="4982,3488 5136,3188 5296,2844 5293,2381 "/>
   <path class="fil14 str5" d="M1443 286l-29 145 -33 81 -41 90 -40 105 -2 8c0,0 -296,536 -296,537 0,1 -9,15 -9,15l-81 110"/>
   <polyline class="fil14 str5" points="1914,548 1892,582 1671,933 1577,1074 1479,1223 1459,1252 1414,1325 1316,1483 1229,1601 1148,1707 "/>
   <path class="fil14 str5" d="M2212 730c-12,14 -47,56 -69,86 -19,22 -19,23 -20,28 -3,10 -6,24 -8,31l-44 160 -224 789 -77 272"/>
   <path class="fil14 str5" d="M2867 1070c-20,37 -25,51 -26,78 -2,66 -69,101 -75,148l-10 71 -2 -2 -15 92 -5 33 -13 84 -12 68 -9 59 -13 70 -18 100 -12 64 -8 49 -4 15 -6 39 -3 22 -10 57c-3,24 -9,44 -14,67l-18 80 -33 78 -52 123"/>
   <path class="fil14 str5" d="M3664 1931c-104,167 -208,335 -314,501 -20,32 -113,152 -117,158 -3,6 -86,111 -126,167"/>
   <path class="fil14 str5" d="M3512 2872c10,-16 34,-56 62,-100 50,-80 110,-175 111,-176l66 -105 36 -56 56 -87 8 -10c0,0 31,-46 53,-80 13,-19 23,-35 23,-35 0,-2 31,-71 31,-72 0,-1 34,-72 34,-72 11,-29 57,-84 67,-91"/>
   <path class="fil14 str5" d="M4415 2118c0,0 -2,12 -8,21 -14,17 -23,37 -35,54 -7,10 -58,88 -58,88 0,0 -34,53 -34,55 0,2 -19,30 -40,61 -22,34 -46,71 -53,82 -34,53 -71,113 -101,159 -27,42 -47,74 -52,81 -9,14 -56,86 -100,157 -13,23 -26,45 -38,65 -21,35 -38,64 -46,77"/>
   <path class="fil14 str5" d="M4751 2232c-31,63 -62,124 -93,187 -2,2 -27,39 -64,97 -68,107 -180,282 -273,424 -20,31 -39,60 -56,87"/>
   <path class="fil14 str6" d="M5091 3274c-30,-27 -40,-16 -61,-3l-54 33c-28,17 -33,21 -69,20 -37,-1 -43,-3 -66,-33 -24,-30 -53,-25 -78,-9 -24,16 -54,15 -82,-3l-196 -126c-4,-2 -11,-6 -19,-10"/>
  </g>
  <g style="clip-path:url(#id0)">
   <polygon id="江苏省遮罩" class="fil16" points="1643,363 3258,363 3258,1361 1643,1361 "/>
  </g>
  <g style="clip-path:url(#id1)">
   <g id="_1472859776">
    <line id="1" class="fil14 str7" x1="2945" y1="364" x2="1383" y2= "364" />
    <g>
     <path class="fil14 str7" d="M2963 381c-521,0 -1042,0 -1562,0"/>
     <path class="fil14 str7" d="M2980 398c-521,0 -1041,0 -1562,0"/>
     <path class="fil14 str7" d="M2997 415c-520,0 -1041,0 -1562,0"/>
     <path class="fil14 str7" d="M3015 432c-521,0 -1042,0 -1562,0"/>
     <path class="fil14 str7" d="M3032 449c-521,0 -1041,0 -1562,0"/>
     <path class="fil14 str7" d="M3049 465c-520,0 -1041,0 -1562,0"/>
     <path class="fil14 str7" d="M3067 482c-521,0 -1042,0 -1562,0"/>
     <path class="fil14 str7" d="M3084 499c-521,0 -1041,0 -1562,0"/>
     <path class="fil14 str7" d="M3101 516c-520,0 -1041,0 -1562,0"/>
     <path class="fil14 str7" d="M3119 533c-521,0 -1042,0 -1562,0"/>
     <path class="fil14 str7" d="M3136 550c-521,0 -1041,0 -1562,0"/>
     <path class="fil14 str7" d="M3153 567c-520,0 -1041,0 -1562,0"/>
     <path class="fil14 str7" d="M3170 584c-520,0 -1041,0 -1561,0"/>
     <path class="fil14 str7" d="M3188 600c-521,0 -1041,0 -1562,0"/>
     <path class="fil14 str7" d="M3205 617c-521,0 -1041,0 -1562,0"/>
     <path class="fil14 str7" d="M3222 634c-520,0 -1041,0 -1561,0"/>
     <path class="fil14 str7" d="M3240 651c-521,0 -1041,0 -1562,0"/>
     <path class="fil14 str7" d="M3257 668c-521,0 -1041,0 -1562,0"/>
     <path class="fil14 str7" d="M3274 685c-520,0 -1041,0 -1561,0"/>
     <path class="fil14 str7" d="M3292 702c-521,0 -1042,0 -1562,0"/>
     <path class="fil14 str7" d="M3309 719c-521,0 -1041,0 -1562,0"/>
     <path class="fil14 str7" d="M3326 736c-520,0 -1041,0 -1562,0"/>
     <path class="fil14 str7" d="M3344 752c-521,0 -1042,0 -1562,0"/>
     <path class="fil14 str7" d="M3361 769c-521,0 -1041,0 -1562,0"/>
     <path class="fil14 str7" d="M3378 786c-520,0 -1041,0 -1562,0"/>
     <path class="fil14 str7" d="M3396 803c-521,0 -1042,0 -1562,0"/>
     <path class="fil14 str7" d="M3413 820c-521,0 -1041,0 -1562,0"/>
     <path class="fil14 str7" d="M3430 837c-520,0 -1041,0 -1562,0"/>
     <path class="fil14 str7" d="M3448 854c-521,0 -1042,0 -1562,0"/>
     <path class="fil14 str7" d="M3465 871c-521,0 -1041,0 -1562,0"/>
     <path class="fil14 str7" d="M3482 887c-520,0 -1041,0 -1562,0"/>
     <path class="fil14 str7" d="M3500 904c-521,0 -1042,0 -1562,0"/>
     <path class="fil14 str7" d="M3517 921c-521,0 -1041,0 -1562,0"/>
     <path class="fil14 str7" d="M3534 938c-520,0 -1041,0 -1562,0"/>
     <path class="fil14 str7" d="M3551 955c-520,0 -1041,0 -1561,0"/>
     <path class="fil14 str7" d="M3569 972c-521,0 -1041,0 -1562,0"/>
     <path class="fil14 str7" d="M3586 989c-520,0 -1041,0 -1562,0"/>
     <path class="fil14 str7" d="M3603 1006c-520,0 -1041,0 -1561,0"/>
     <path class="fil14 str7" d="M3621 1022c-521,0 -1041,0 -1562,0"/>
     <path class="fil14 str7" d="M3638 1039c-521,0 -1041,0 -1562,0"/>
     <path class="fil14 str7" d="M3655 1056c-520,0 -1041,0 -1561,0"/>
     <path class="fil14 str7" d="M3673 1073c-521,0 -1042,0 -1562,0"/>
     <path class="fil14 str7" d="M3690 1090c-521,0 -1041,0 -1562,0"/>
     <path class="fil14 str7" d="M3707 1107c-520,0 -1041,0 -1561,0"/>
     <path class="fil14 str7" d="M3725 1124c-521,0 -1042,0 -1562,0"/>
     <path class="fil14 str7" d="M3742 1141c-521,0 -1041,0 -1562,0"/>
     <path class="fil14 str7" d="M3759 1157c-520,0 -1041,0 -1562,0"/>
     <path class="fil14 str7" d="M3777 1174c-521,0 -1042,0 -1562,0"/>
     <path class="fil14 str7" d="M3794 1191c-521,0 -1041,0 -1562,0"/>
     <path class="fil14 str7" d="M3811 1208c-520,0 -1041,0 -1562,0"/>
     <path class="fil14 str7" d="M3829 1225c-521,0 -1042,0 -1562,0"/>
     <path class="fil14 str7" d="M3846 1242c-521,0 -1041,0 -1562,0"/>
     <path class="fil14 str7" d="M3863 1259c-520,0 -1041,0 -1562,0"/>
     <path class="fil14 str7" d="M3881 1276c-521,0 -1042,0 -1562,0"/>
     <path class="fil14 str7" d="M3898 1292c-521,0 -1041,0 -1562,0"/>
     <path class="fil14 str7" d="M3915 1309c-520,0 -1041,0 -1562,0"/>
     <path class="fil14 str7" d="M3933 1326c-521,0 -1042,0 -1562,0"/>
     <path class="fil14 str7" d="M3950 1343c-521,0 -1041,0 -1562,0"/>
     <path class="fil14 str7" d="M3967 1360c-520,0 -1041,0 -1562,0"/>
     <path class="fil14 str7" d="M3984 1377c-520,0 -1041,0 -1561,0"/>
    </g>
    <line class="fil14 str7" x1="4002" y1="1394" x2="2440" y2= "1394" />
   </g>
  </g>
  <path class="fil14" d="M1643 363l65 29c0,0 12,2 17,1 5,-1 13,4 18,10 4,6 7,8 7,8l13 -12c0,0 8,2 16,3 9,1 37,2 42,3 6,1 60,13 79,22 19,8 82,43 116,64 66,42 132,85 197,128 24,17 67,44 112,74 76,51 157,106 163,110 8,6 272,195 280,198 7,3 81,58 86,62 5,4 49,24 57,28 8,5 131,82 151,100 22,20 76,50 104,80 29,30 83,71 88,78 5,6 5,10 0,12 0,0 -1,0 -1,0 -47,-16 -98,-43 -120,-60 -39,-30 -43,-11 -43,-11l-21 36 -52 -18 -4 -18c0,0 -2,-6 -64,-18 -63,-12 -165,-96 -176,-109 -12,-12 -32,-38 -51,-39 -18,0 -73,-44 -73,-41 0,2 -5,-22 -5,-22l-71 -11c0,0 0,-28 -15,-30 -16,-3 -95,-18 -95,-18l-106 -84c0,0 -177,-20 -187,-32 -28,-33 -66,14 -161,-46 -33,-20 -45,-29 -99,-49 -42,-15 -52,-28 -70,-48 -23,-26 -43,-57 -70,-96 -20,-29 -26,-49 -32,-62 -7,-18 -7,-23 8,-28 36,-10 16,-23 8,-42 -8,-22 -10,-66 -39,-54 -23,10 -37,-42 -55,-67 -11,-15 -17,-31 -17,-31z"/>
 </g>
</svg>
